G04*
G04 #@! TF.GenerationSoftware,Altium Limited,CircuitStudio,1.5.2 (30)*
G04*
G04 Layer_Color=8150272*
%FSLAX44Y44*%
%MOMM*%
G71*
G01*
G75*
%ADD33C,0.5000*%
%ADD36C,2.5000*%
%ADD60R,2.5000X27.5000*%
%ADD63R,2.6162X5.2832*%
%ADD84C,1.7272*%
%ADD85C,1.5032*%
G04:AMPARAMS|DCode=86|XSize=1.5032mm|YSize=1.5032mm|CornerRadius=0.4266mm|HoleSize=0mm|Usage=FLASHONLY|Rotation=180.000|XOffset=0mm|YOffset=0mm|HoleType=Round|Shape=RoundedRectangle|*
%AMROUNDEDRECTD86*
21,1,1.5032,0.6500,0,0,180.0*
21,1,0.6500,1.5032,0,0,180.0*
1,1,0.8532,-0.3250,0.3250*
1,1,0.8532,0.3250,0.3250*
1,1,0.8532,0.3250,-0.3250*
1,1,0.8532,-0.3250,-0.3250*
%
%ADD86ROUNDEDRECTD86*%
G04:AMPARAMS|DCode=87|XSize=2.2032mm|YSize=4.2032mm|CornerRadius=0.6016mm|HoleSize=0mm|Usage=FLASHONLY|Rotation=90.000|XOffset=0mm|YOffset=0mm|HoleType=Round|Shape=RoundedRectangle|*
%AMROUNDEDRECTD87*
21,1,2.2032,3.0000,0,0,90.0*
21,1,1.0000,4.2032,0,0,90.0*
1,1,1.2032,1.5000,0.5000*
1,1,1.2032,1.5000,-0.5000*
1,1,1.2032,-1.5000,-0.5000*
1,1,1.2032,-1.5000,0.5000*
%
%ADD87ROUNDEDRECTD87*%
G04:AMPARAMS|DCode=88|XSize=2.2032mm|YSize=4.7032mm|CornerRadius=0.6016mm|HoleSize=0mm|Usage=FLASHONLY|Rotation=270.000|XOffset=0mm|YOffset=0mm|HoleType=Round|Shape=RoundedRectangle|*
%AMROUNDEDRECTD88*
21,1,2.2032,3.5000,0,0,270.0*
21,1,1.0000,4.7032,0,0,270.0*
1,1,1.2032,-1.7500,-0.5000*
1,1,1.2032,-1.7500,0.5000*
1,1,1.2032,1.7500,0.5000*
1,1,1.2032,1.7500,-0.5000*
%
%ADD88ROUNDEDRECTD88*%
G04:AMPARAMS|DCode=89|XSize=2.2032mm|YSize=4.2032mm|CornerRadius=0.6016mm|HoleSize=0mm|Usage=FLASHONLY|Rotation=180.000|XOffset=0mm|YOffset=0mm|HoleType=Round|Shape=RoundedRectangle|*
%AMROUNDEDRECTD89*
21,1,2.2032,3.0000,0,0,180.0*
21,1,1.0000,4.2032,0,0,180.0*
1,1,1.2032,-0.5000,1.5000*
1,1,1.2032,0.5000,1.5000*
1,1,1.2032,0.5000,-1.5000*
1,1,1.2032,-0.5000,-1.5000*
%
%ADD89ROUNDEDRECTD89*%
%ADD90C,1.7032*%
%ADD91O,2.2032X3.2032*%
%ADD92C,2.7432*%
%ADD93O,2.2032X1.7032*%
%ADD94C,2.2032*%
%ADD95R,2.2032X1.7032*%
%ADD96C,0.8032*%
%ADD97C,1.4032*%
%ADD98C,0.9532*%
%ADD99C,1.4532*%
G04:AMPARAMS|DCode=100|XSize=2.4032mm|YSize=1.4032mm|CornerRadius=0.4016mm|HoleSize=0mm|Usage=FLASHONLY|Rotation=270.000|XOffset=0mm|YOffset=0mm|HoleType=Round|Shape=RoundedRectangle|*
%AMROUNDEDRECTD100*
21,1,2.4032,0.6000,0,0,270.0*
21,1,1.6000,1.4032,0,0,270.0*
1,1,0.8032,-0.3000,-0.8000*
1,1,0.8032,-0.3000,0.8000*
1,1,0.8032,0.3000,0.8000*
1,1,0.8032,0.3000,-0.8000*
%
%ADD100ROUNDEDRECTD100*%
%ADD101R,2.4892X5.2832*%
%ADD102R,0.4572X0.4572*%
D33*
X350049Y837549D02*
G03*
X352549Y840049I0J2500D01*
G01*
X362549Y850049D02*
G03*
X352549Y840049I0J-10000D01*
G01*
X512000D02*
G03*
X514500Y837549I2500J0D01*
G01*
X512000Y840049D02*
G03*
X502000Y850049I-10000J0D01*
G01*
X362549D02*
X502000D01*
X667500Y837549D02*
X682500D01*
X514500D02*
X667500D01*
X182500Y837500D02*
X350049D01*
X682500Y410000D02*
Y837549D01*
X622600Y350100D02*
X682500Y410000D01*
X182500D02*
Y837500D01*
X242400Y350100D02*
X622600D01*
X182500Y410000D02*
X242400Y350100D01*
D36*
X359439Y454150D02*
G03*
X368420Y457870I0J12700D01*
G01*
D02*
G03*
X377400Y479550I-21680J21680D01*
G01*
X386380Y513930D02*
G03*
X377400Y492250I21680J-21680D01*
G01*
X415500Y530350D02*
G03*
X393820Y521370I0J-30661D01*
G01*
X475280D02*
G03*
X453600Y530350I-21680J-21680D01*
G01*
X491700Y492250D02*
G03*
X482720Y513930I-30661J0D01*
G01*
X491700Y446711D02*
G03*
X495420Y437730I12700J0D01*
G01*
D02*
G03*
X517100Y428750I21680J21680D01*
G01*
X251000Y454150D02*
X359439D01*
X377400Y479550D02*
Y492250D01*
X386380Y513930D02*
X393820Y521370D01*
X415500Y530350D02*
X453600D01*
X475280Y521370D02*
X482720Y513930D01*
X491700Y446711D02*
Y492250D01*
X517100Y428750D02*
X587250D01*
D60*
X200000Y692500D02*
D03*
D63*
X238685Y807000D02*
D03*
X326315D02*
D03*
D84*
X541000Y716250D02*
D03*
X491000D02*
D03*
X232500Y410000D02*
D03*
X632500D02*
D03*
X517000Y405000D02*
D03*
Y455000D02*
D03*
D85*
X379800Y777000D02*
D03*
X459800D02*
D03*
D86*
X405200D02*
D03*
X485200D02*
D03*
D87*
X572500Y792500D02*
D03*
D88*
Y732500D02*
D03*
D89*
X619500Y762500D02*
D03*
D90*
X392500Y827500D02*
D03*
X432500D02*
D03*
X452500D02*
D03*
X472500D02*
D03*
D91*
X371500D02*
D03*
X493500D02*
D03*
D92*
X457900Y390000D02*
D03*
X407100D02*
D03*
D93*
X578250Y390650D02*
D03*
D94*
Y416050D02*
D03*
Y441450D02*
D03*
D95*
Y466850D02*
D03*
D96*
X591750Y655000D02*
D03*
Y665000D02*
D03*
Y674250D02*
D03*
X602500Y655000D02*
D03*
Y665000D02*
D03*
Y675000D02*
D03*
X197500Y590000D02*
D03*
Y575000D02*
D03*
Y560000D02*
D03*
Y635000D02*
D03*
Y620000D02*
D03*
Y605000D02*
D03*
Y680000D02*
D03*
Y665000D02*
D03*
Y650000D02*
D03*
Y725000D02*
D03*
Y710000D02*
D03*
Y695000D02*
D03*
Y770000D02*
D03*
Y755000D02*
D03*
Y740000D02*
D03*
Y785000D02*
D03*
Y800000D02*
D03*
Y815000D02*
D03*
X312500Y622500D02*
D03*
X355000Y612500D02*
D03*
X548250Y509750D02*
D03*
X282500Y787750D02*
D03*
X539250Y550500D02*
D03*
X449500Y665000D02*
D03*
X376000Y632000D02*
D03*
Y610000D02*
D03*
X256500Y773000D02*
D03*
X234250Y769751D02*
D03*
X569750Y605750D02*
D03*
X607250Y600750D02*
D03*
X532250Y590750D02*
D03*
X569750D02*
D03*
X587250Y565749D02*
D03*
X528250Y564750D02*
D03*
X506000Y564500D02*
D03*
X304500Y807500D02*
D03*
X264500D02*
D03*
X536000Y405660D02*
D03*
X327250Y555250D02*
D03*
X552750Y472000D02*
D03*
X605750Y522250D02*
D03*
Y532750D02*
D03*
X528500Y539500D02*
D03*
X539250Y529090D02*
D03*
X347250Y565000D02*
D03*
X298001Y590499D02*
D03*
X453234Y725716D02*
D03*
X506250Y539249D02*
D03*
X428000Y678000D02*
D03*
X429500Y641500D02*
D03*
X421500Y441000D02*
D03*
X442500D02*
D03*
X327000Y568000D02*
D03*
X246049Y719790D02*
D03*
X365000Y557000D02*
D03*
X290000Y644000D02*
D03*
X309000Y654000D02*
D03*
X309382Y631000D02*
D03*
X356000Y676000D02*
D03*
X284875Y590500D02*
D03*
X312500Y750000D02*
D03*
Y759502D02*
D03*
X590000Y605750D02*
D03*
X580000D02*
D03*
X427500Y602500D02*
D03*
X245000Y515000D02*
D03*
X329050Y511550D02*
D03*
X280000Y385000D02*
D03*
X303650Y408748D02*
D03*
X316350Y408850D02*
D03*
X432500Y470000D02*
D03*
Y440000D02*
D03*
X345000Y387500D02*
D03*
X285000Y407500D02*
D03*
X297500Y422500D02*
D03*
X327500Y417500D02*
D03*
D97*
X427500Y780000D02*
D03*
D98*
X573597Y660000D02*
D03*
X549020D02*
D03*
X524443D02*
D03*
X499867D02*
D03*
X401000Y661000D02*
D03*
X227500Y577500D02*
D03*
X602500Y815000D02*
D03*
D99*
X578250Y407164D02*
D03*
Y450336D02*
D03*
D100*
X616750Y698500D02*
D03*
Y624500D02*
D03*
X591750Y698500D02*
D03*
Y624500D02*
D03*
D101*
X282500Y807000D02*
D03*
D102*
X432500Y462000D02*
D03*
Y468000D02*
D03*
M02*
