G04*
G04 #@! TF.GenerationSoftware,Altium Limited,CircuitStudio,1.5.2 (1.5.2.30)*
G04*
G04 Layer_Physical_Order=4*
G04 Layer_Color=12500520*
%FSLAX44Y44*%
%MOMM*%
G71*
G01*
G75*
%ADD31R,2.4130X5.0800*%
%ADD33C,0.2540*%
%ADD35C,0.5000*%
%ADD36C,2.5000*%
%ADD37C,1.5240*%
%ADD38R,2.0000X1.5000*%
%ADD39C,2.0000*%
%ADD40O,2.0000X1.5000*%
%ADD41C,2.5400*%
%ADD42O,2.0000X3.0000*%
%ADD43C,1.5000*%
G04:AMPARAMS|DCode=44|XSize=2mm|YSize=4mm|CornerRadius=0.5mm|HoleSize=0mm|Usage=FLASHONLY|Rotation=180.000|XOffset=0mm|YOffset=0mm|HoleType=Round|Shape=RoundedRectangle|*
%AMROUNDEDRECTD44*
21,1,2.0000,3.0000,0,0,180.0*
21,1,1.0000,4.0000,0,0,180.0*
1,1,1.0000,-0.5000,1.5000*
1,1,1.0000,0.5000,1.5000*
1,1,1.0000,0.5000,-1.5000*
1,1,1.0000,-0.5000,-1.5000*
%
%ADD44ROUNDEDRECTD44*%
G04:AMPARAMS|DCode=45|XSize=2mm|YSize=4.5mm|CornerRadius=0.5mm|HoleSize=0mm|Usage=FLASHONLY|Rotation=270.000|XOffset=0mm|YOffset=0mm|HoleType=Round|Shape=RoundedRectangle|*
%AMROUNDEDRECTD45*
21,1,2.0000,3.5000,0,0,270.0*
21,1,1.0000,4.5000,0,0,270.0*
1,1,1.0000,-1.7500,-0.5000*
1,1,1.0000,-1.7500,0.5000*
1,1,1.0000,1.7500,0.5000*
1,1,1.0000,1.7500,-0.5000*
%
%ADD45ROUNDEDRECTD45*%
G04:AMPARAMS|DCode=46|XSize=2mm|YSize=4mm|CornerRadius=0.5mm|HoleSize=0mm|Usage=FLASHONLY|Rotation=90.000|XOffset=0mm|YOffset=0mm|HoleType=Round|Shape=RoundedRectangle|*
%AMROUNDEDRECTD46*
21,1,2.0000,3.0000,0,0,90.0*
21,1,1.0000,4.0000,0,0,90.0*
1,1,1.0000,1.5000,0.5000*
1,1,1.0000,1.5000,-0.5000*
1,1,1.0000,-1.5000,-0.5000*
1,1,1.0000,-1.5000,0.5000*
%
%ADD46ROUNDEDRECTD46*%
%ADD47C,1.3000*%
G04:AMPARAMS|DCode=48|XSize=1.3mm|YSize=1.3mm|CornerRadius=0.325mm|HoleSize=0mm|Usage=FLASHONLY|Rotation=180.000|XOffset=0mm|YOffset=0mm|HoleType=Round|Shape=RoundedRectangle|*
%AMROUNDEDRECTD48*
21,1,1.3000,0.6500,0,0,180.0*
21,1,0.6500,1.3000,0,0,180.0*
1,1,0.6500,-0.3250,0.3250*
1,1,0.6500,0.3250,0.3250*
1,1,0.6500,0.3250,-0.3250*
1,1,0.6500,-0.3250,-0.3250*
%
%ADD48ROUNDEDRECTD48*%
%ADD49C,0.6000*%
%ADD50C,0.7500*%
%ADD51C,1.2500*%
%ADD52C,1.2000*%
%ADD53R,0.2540X0.2540*%
%ADD54R,2.2860X5.0800*%
G04:AMPARAMS|DCode=55|XSize=2.2mm|YSize=1.2mm|CornerRadius=0.3mm|HoleSize=0mm|Usage=FLASHONLY|Rotation=270.000|XOffset=0mm|YOffset=0mm|HoleType=Round|Shape=RoundedRectangle|*
%AMROUNDEDRECTD55*
21,1,2.2000,0.6000,0,0,270.0*
21,1,1.6000,1.2000,0,0,270.0*
1,1,0.6000,-0.3000,-0.8000*
1,1,0.6000,-0.3000,0.8000*
1,1,0.6000,0.3000,0.8000*
1,1,0.6000,0.3000,-0.8000*
%
%ADD55ROUNDEDRECTD55*%
G36*
X453595Y515807D02*
X453597Y515807D01*
X453600Y515807D01*
X453862Y515859D01*
X456759Y515574D01*
X459798Y514652D01*
X462598Y513156D01*
X465123Y511083D01*
X472424Y503659D01*
X472431Y503654D01*
X472436Y503647D01*
X472659Y503498D01*
X474505Y501248D01*
X476002Y498448D01*
X476924Y495410D01*
X477244Y492152D01*
X477158Y447369D01*
X477123Y447302D01*
X477093Y447004D01*
X477035Y446711D01*
X477055Y446611D01*
X477045Y446511D01*
X477531Y441570D01*
X477590Y441378D01*
X477609Y441178D01*
X479050Y436427D01*
X479145Y436250D01*
X479203Y436058D01*
X481544Y431679D01*
X481671Y431524D01*
X481766Y431347D01*
X484916Y427509D01*
X484994Y427445D01*
X485050Y427360D01*
X485209Y427254D01*
X489422Y423559D01*
X489539Y423492D01*
X489634Y423397D01*
X494338Y420253D01*
X494463Y420202D01*
X494570Y420120D01*
X499644Y417617D01*
X499774Y417583D01*
X499891Y417515D01*
X505249Y415696D01*
X505382Y415679D01*
X505506Y415628D01*
X511056Y414524D01*
X511190D01*
X511320Y414489D01*
X511599Y414470D01*
X511859Y413181D01*
X510139Y411861D01*
X508597Y409851D01*
X507627Y407511D01*
X507297Y405000D01*
X507627Y402489D01*
X508597Y400149D01*
X510139Y398139D01*
X512148Y396597D01*
X514488Y395628D01*
X517000Y395297D01*
X519511Y395628D01*
X521851Y396597D01*
X523861Y398139D01*
X525403Y400149D01*
X526372Y402489D01*
X526703Y405000D01*
X526372Y407511D01*
X525403Y409851D01*
X523861Y411861D01*
X522570Y412852D01*
X523000Y414122D01*
X566393Y414179D01*
X566559Y412917D01*
X567768Y409998D01*
X569691Y407491D01*
X569946Y407296D01*
X569929Y407164D01*
X570212Y405010D01*
X571044Y403003D01*
X572243Y401440D01*
X572208Y400715D01*
X571997Y399963D01*
X570686Y399420D01*
X568589Y397811D01*
X566980Y395713D01*
X565968Y393271D01*
X565790Y391920D01*
X578250D01*
X590709D01*
X590531Y393271D01*
X589520Y395713D01*
X587910Y397811D01*
X585813Y399420D01*
X584503Y399963D01*
X584292Y400715D01*
X584256Y401440D01*
X585456Y403003D01*
X586287Y405010D01*
X586571Y407164D01*
X586554Y407296D01*
X586808Y407491D01*
X588732Y409998D01*
X589941Y412917D01*
X590144Y414463D01*
X590780Y414546D01*
X591033Y414632D01*
X591294Y414684D01*
X592944Y415367D01*
X594000Y414662D01*
X594000Y360898D01*
X593102Y360000D01*
X253398Y360000D01*
X252500Y360898D01*
X252500Y438961D01*
X361142D01*
X361142Y438961D01*
X361923Y439116D01*
X362584Y439558D01*
X362584Y439558D01*
X362836Y439810D01*
X364580Y439981D01*
X364772Y440040D01*
X364972Y440060D01*
X369723Y441501D01*
X369900Y441595D01*
X370092Y441654D01*
X374471Y443994D01*
X374626Y444121D01*
X374803Y444216D01*
X378641Y447366D01*
X378705Y447444D01*
X378789Y447500D01*
X378895Y447659D01*
X382590Y451872D01*
X382658Y451989D01*
X382753Y452084D01*
X385896Y456789D01*
X385948Y456913D01*
X386030Y457020D01*
X388532Y462094D01*
X388567Y462224D01*
X388634Y462341D01*
X390453Y467699D01*
X390471Y467832D01*
X390522Y467956D01*
X391626Y473506D01*
Y473641D01*
X391661Y473770D01*
X392031Y479417D01*
X392022Y479484D01*
X392035Y479550D01*
Y479550D01*
X392034Y479557D01*
X392035Y479565D01*
X391943Y492265D01*
X391891Y492516D01*
X392176Y495410D01*
X393098Y498448D01*
X394594Y501248D01*
X396667Y503773D01*
X404091Y511074D01*
X404096Y511081D01*
X404103Y511086D01*
X404252Y511309D01*
X406502Y513156D01*
X409302Y514652D01*
X412340Y515574D01*
X415597Y515895D01*
X453595Y515807D01*
D02*
G37*
G36*
X589003Y559999D02*
X589048Y559808D01*
X589167Y559641D01*
X589253Y559455D01*
X589696Y558842D01*
X589725Y558815D01*
X589727Y558811D01*
X589819Y558725D01*
X589906Y558596D01*
X589937Y558565D01*
X590135Y558432D01*
X590310Y558270D01*
X590463Y558213D01*
X590598Y558123D01*
X590832Y558076D01*
X591056Y557993D01*
X591099Y557986D01*
X591255Y557992D01*
X591379Y557968D01*
X591383Y557968D01*
X591422Y557961D01*
X652500D01*
X652500Y557961D01*
X652500Y430898D01*
X651602Y430000D01*
X601754D01*
X601454Y432280D01*
X601368Y432533D01*
X601316Y432794D01*
X600056Y435836D01*
X599907Y436058D01*
X599790Y436297D01*
X597785Y438909D01*
X597585Y439085D01*
X597409Y439286D01*
X594797Y441290D01*
X594558Y441408D01*
X594336Y441556D01*
X591294Y442816D01*
X591033Y442868D01*
X590780Y442954D01*
X590144Y443037D01*
X589941Y444583D01*
X588732Y447502D01*
X586808Y450009D01*
X586554Y450204D01*
X586571Y450336D01*
X586287Y452490D01*
X585456Y454497D01*
X584241Y456080D01*
X584523Y457350D01*
X590250D01*
Y476350D01*
X566250D01*
Y457350D01*
X571977D01*
X572258Y456080D01*
X571044Y454497D01*
X570212Y452490D01*
X569929Y450336D01*
X569946Y450204D01*
X569691Y450009D01*
X567768Y447502D01*
X566559Y444583D01*
X566399Y443369D01*
X517097Y443293D01*
X516837Y443241D01*
X513940Y443526D01*
X510902Y444448D01*
X508102Y445944D01*
X506227Y447483D01*
X506229Y453381D01*
X507499Y453464D01*
X507627Y452489D01*
X508597Y450149D01*
X510139Y448139D01*
X512148Y446597D01*
X514488Y445628D01*
X517000Y445297D01*
X519511Y445628D01*
X521851Y446597D01*
X523861Y448139D01*
X525403Y450149D01*
X526372Y452489D01*
X526703Y455000D01*
X526372Y457511D01*
X525403Y459851D01*
X523861Y461861D01*
X521851Y463403D01*
X519511Y464372D01*
X517000Y464703D01*
X514488Y464372D01*
X512148Y463403D01*
X510139Y461861D01*
X508597Y459851D01*
X507627Y457511D01*
X507500Y456544D01*
X506230Y456628D01*
X506243Y491712D01*
X506271Y491924D01*
X506335Y492250D01*
Y492250D01*
X506322Y492316D01*
X506331Y492383D01*
X505961Y498030D01*
X505926Y498159D01*
Y498294D01*
X504822Y503843D01*
X504771Y503968D01*
X504753Y504101D01*
X502934Y509459D01*
X502867Y509576D01*
X502832Y509706D01*
X500330Y514780D01*
X500248Y514887D01*
X500196Y515011D01*
X497053Y519716D01*
X496958Y519811D01*
X496890Y519928D01*
X493160Y524182D01*
X493099Y524228D01*
X493056Y524292D01*
X485922Y531301D01*
X485814Y531442D01*
X485629Y531719D01*
X485573Y531756D01*
X485532Y531810D01*
X481278Y535541D01*
X481161Y535608D01*
X481066Y535703D01*
X476361Y538847D01*
X476237Y538898D01*
X476130Y538980D01*
X471055Y541483D01*
X470925Y541517D01*
X470809Y541585D01*
X465451Y543403D01*
X465318Y543421D01*
X465193Y543472D01*
X459644Y544576D01*
X459509D01*
X459379Y544611D01*
X453733Y544981D01*
X453666Y544972D01*
X453600Y544986D01*
X453600D01*
X453597Y544985D01*
X453595Y544986D01*
X416027Y544894D01*
X415826Y544921D01*
X415500Y544986D01*
X415500D01*
X415434Y544972D01*
X415367Y544981D01*
X409720Y544611D01*
X409590Y544576D01*
X409456D01*
X403906Y543472D01*
X403782Y543421D01*
X403649Y543403D01*
X398291Y541585D01*
X398174Y541517D01*
X398044Y541483D01*
X392970Y538980D01*
X392863Y538898D01*
X392738Y538847D01*
X388034Y535703D01*
X387939Y535608D01*
X387822Y535541D01*
X383568Y531810D01*
X383521Y531749D01*
X383458Y531706D01*
X376449Y524572D01*
X376308Y524464D01*
X376031Y524279D01*
X375994Y524223D01*
X375940Y524182D01*
X372209Y519928D01*
X372142Y519811D01*
X372047Y519716D01*
X368903Y515011D01*
X368852Y514887D01*
X368770Y514780D01*
X366267Y509706D01*
X366232Y509576D01*
X366165Y509459D01*
X364346Y504101D01*
X364329Y503968D01*
X364277Y503843D01*
X363173Y498294D01*
Y498159D01*
X363139Y498030D01*
X362769Y492383D01*
X362777Y492316D01*
X362764Y492250D01*
Y492250D01*
X362766Y492243D01*
X362764Y492235D01*
X362835Y482491D01*
X361941Y481589D01*
X250000D01*
X249219Y481434D01*
X248558Y480992D01*
X248116Y480330D01*
X247961Y479550D01*
Y468418D01*
X247469Y468354D01*
X247217Y468268D01*
X246955Y468216D01*
X243913Y466956D01*
X243692Y466808D01*
X243452Y466690D01*
X241250Y465000D01*
X212500Y465000D01*
X212500Y542264D01*
X213398Y543162D01*
X378250D01*
X380006Y543511D01*
X381494Y544506D01*
X390400Y553412D01*
X405367D01*
X405549Y553290D01*
X407500Y552902D01*
X409451Y553290D01*
X411105Y554395D01*
X412210Y556049D01*
X412590Y557961D01*
X412590D01*
X500852Y557961D01*
X500894Y557969D01*
X500936Y557962D01*
X500938Y557962D01*
X501054Y557991D01*
X501057Y557990D01*
X501085Y557991D01*
X501170Y558012D01*
X501342Y558020D01*
X501452Y558047D01*
X501528Y558082D01*
X501610Y558093D01*
X501610Y558093D01*
X501663Y558123D01*
X501778Y558146D01*
X501786Y558149D01*
X501790Y558152D01*
X501792Y558153D01*
X501822Y558173D01*
X501858Y558181D01*
X501861Y558184D01*
X501867Y558185D01*
X501878Y558190D01*
X501991Y558274D01*
X501993Y558274D01*
X502042Y558311D01*
X502166Y558362D01*
X502261Y558425D01*
X502297Y558461D01*
X502342Y558482D01*
X502428Y558577D01*
X502454Y558594D01*
X502475Y558615D01*
X502493Y558642D01*
X502634Y558745D01*
X502751Y558874D01*
X502761Y558890D01*
X502777Y558902D01*
X502861Y558994D01*
X502862Y558995D01*
X502863Y558996D01*
X502942Y559112D01*
X503085Y559250D01*
X503118Y559299D01*
X504049Y559790D01*
X506000Y559402D01*
X507951Y559790D01*
X508699Y559638D01*
X508804Y559549D01*
X508883Y559437D01*
X509704Y558659D01*
X509848Y558568D01*
X509848Y558568D01*
X509863Y558554D01*
X509889Y558537D01*
X510019Y558414D01*
X510163Y558323D01*
X510312Y558266D01*
X510486Y558149D01*
X510513Y558144D01*
X510536Y558129D01*
X510742Y558094D01*
X510889Y558033D01*
X511056Y558000D01*
X511236D01*
X511266Y557994D01*
X511287D01*
X511454Y557961D01*
X523392D01*
X523588Y558000D01*
X523789D01*
X523969Y558036D01*
X524154Y558112D01*
X524172Y558116D01*
X524178Y558120D01*
X524330Y558147D01*
X524348Y558158D01*
X524368Y558162D01*
X524504Y558253D01*
X524671Y558319D01*
X524688Y558330D01*
X524690Y558332D01*
X524703Y558340D01*
X524704Y558340D01*
X524704Y558341D01*
X524836Y558425D01*
X524979Y558562D01*
X525001Y558576D01*
X525003Y558578D01*
X525003Y558578D01*
X525152Y558674D01*
X525154Y558676D01*
X525160Y558685D01*
X525170Y558691D01*
X525309Y558829D01*
X525309Y558829D01*
X525310Y558829D01*
X525337Y558856D01*
X525341Y558862D01*
X525348Y558867D01*
X525348D01*
X525373Y558905D01*
X525460Y558990D01*
X525505Y559057D01*
X525505Y559057D01*
X525536Y559087D01*
X525536Y559087D01*
X525536Y559087D01*
X525536Y559088D01*
X525577Y559147D01*
X525592Y559162D01*
X525619Y559202D01*
X525619Y559202D01*
X525716Y559297D01*
X525761Y559364D01*
X525786Y559421D01*
X525823Y559458D01*
X525876Y559588D01*
X525983Y559745D01*
X526005Y559795D01*
X526044Y559984D01*
X526050Y559999D01*
X526051Y560000D01*
X526501D01*
X528250Y559652D01*
X529999Y560000D01*
X530415D01*
X530434Y559976D01*
X530457Y559929D01*
X530459Y559927D01*
X530463Y559923D01*
X530465Y559918D01*
X530466Y559918D01*
X530515Y559821D01*
X530518Y559817D01*
X530519Y559816D01*
X530537Y559779D01*
X530543Y559772D01*
X530563Y559747D01*
X530564Y559746D01*
X530564Y559745D01*
X530602Y559697D01*
X530608Y559682D01*
X530639Y559635D01*
X530665Y559609D01*
X530679Y559581D01*
X530686Y559573D01*
X530704Y559558D01*
X530714Y559537D01*
X530789Y559477D01*
X530854Y559380D01*
X530861Y559373D01*
X530955Y559267D01*
X531071Y559180D01*
X531110Y559136D01*
X531135Y559118D01*
X531147Y559099D01*
X531147Y559099D01*
X531175Y559081D01*
X531250Y558997D01*
X531363Y558911D01*
X531363Y558911D01*
X531922Y558491D01*
X531973Y558467D01*
X531973Y558467D01*
X532072Y558391D01*
X532202Y558329D01*
X532263Y558284D01*
X532277Y558277D01*
X532277Y558277D01*
X532277Y558277D01*
X532314Y558259D01*
X532350Y558250D01*
X532518Y558137D01*
X532533Y558131D01*
X532546Y558128D01*
X532548Y558127D01*
X532674Y558102D01*
X532789Y558046D01*
X532792Y558046D01*
X532805Y558040D01*
X532820Y558036D01*
X533021Y558025D01*
X533054Y558011D01*
X533054Y558011D01*
X533055D01*
X533056Y558011D01*
X533111Y558000D01*
X533187D01*
X533329Y557972D01*
X533453D01*
X533454Y557972D01*
X533454D01*
X533509Y557961D01*
X582963D01*
X583031Y557974D01*
X583044Y557972D01*
X583120Y557987D01*
X583240Y557980D01*
X583321Y557991D01*
X583568Y558076D01*
X583824Y558127D01*
X583941Y558205D01*
X584073Y558251D01*
X584269Y558424D01*
X584486Y558569D01*
X584543Y558627D01*
X584611Y558727D01*
X584669Y558779D01*
X584674Y558790D01*
X584726Y558836D01*
X585185Y559441D01*
X585350Y559779D01*
X585463Y560000D01*
X589002D01*
X589003Y559999D01*
D02*
G37*
G36*
X652500Y829102D02*
X652500Y561270D01*
X652500Y560000D01*
X591468D01*
X591382Y560014D01*
X591321Y560075D01*
X591022Y560487D01*
X591021Y560491D01*
X590915Y560637D01*
X590886Y560780D01*
X590867Y560809D01*
X590859Y560843D01*
X590859Y560844D01*
X590855Y562111D01*
X591106Y562520D01*
X591960Y563798D01*
X592348Y565749D01*
X591960Y567700D01*
X590855Y569354D01*
X589201Y570459D01*
X587250Y570847D01*
X585299Y570459D01*
X583645Y569354D01*
X582540Y567700D01*
X582152Y565749D01*
X582540Y563798D01*
X583380Y562541D01*
X583646Y562086D01*
X583649Y560956D01*
X582829Y560000D01*
X533509D01*
X533454Y560011D01*
X533454D01*
X533453Y560011D01*
X533328Y560011D01*
X533316Y560014D01*
X533297Y560022D01*
X533199Y560096D01*
X533198Y560096D01*
X533198Y560096D01*
X533162Y560114D01*
X533148Y560121D01*
X532589Y560541D01*
X532589Y560541D01*
X532390Y561205D01*
X532362Y561392D01*
X532384Y561938D01*
X532960Y562799D01*
X533348Y564750D01*
X532960Y566701D01*
X531855Y568355D01*
X530201Y569460D01*
X528250Y569848D01*
X526299Y569460D01*
X524645Y568355D01*
X523540Y566701D01*
X523152Y564750D01*
X523540Y562799D01*
X524528Y561321D01*
X524497Y561274D01*
X524354Y561131D01*
X524353Y561130D01*
X524277Y560946D01*
X524166Y560780D01*
X524160Y560765D01*
X524124Y560583D01*
X524109Y560548D01*
X524102Y560537D01*
X524075Y560511D01*
X524029Y560443D01*
X524029Y560443D01*
X523943Y560358D01*
X523943Y560358D01*
X523933Y560348D01*
X523906Y560308D01*
X523906Y560308D01*
X523906Y560308D01*
X523879Y560282D01*
X523879Y560282D01*
X523878Y560282D01*
X523740Y560145D01*
X523737Y560143D01*
X523590Y560048D01*
X523588Y560047D01*
X523571Y560036D01*
X523392Y560000D01*
X511454D01*
X511287Y560033D01*
X511271D01*
X511270Y560034D01*
X511263Y560037D01*
X511251Y560047D01*
X511107Y560138D01*
X511107Y560138D01*
X510287Y560917D01*
X510399Y561994D01*
X510571Y562341D01*
X510710Y562549D01*
X511098Y564500D01*
X510710Y566451D01*
X509605Y568105D01*
X507951Y569210D01*
X506000Y569598D01*
X504049Y569210D01*
X502395Y568105D01*
X501290Y566451D01*
X500902Y564500D01*
X501290Y562549D01*
X501533Y562186D01*
X501681Y561817D01*
X501661Y560710D01*
X501552Y560605D01*
X501549Y560602D01*
X501549Y560601D01*
X501518Y560572D01*
X501438Y560455D01*
X501437Y560454D01*
X501404Y560405D01*
X501403Y560405D01*
X501355Y560369D01*
X501272Y560277D01*
X501268Y560271D01*
X501259Y560263D01*
X501254Y560255D01*
X501246Y560250D01*
X501129Y560121D01*
X501129Y560121D01*
X501128Y560121D01*
X501034Y560057D01*
X501013Y560037D01*
X501002Y560032D01*
X500965Y560027D01*
X500965Y560027D01*
X500965D01*
X500854Y560000D01*
X500851Y560000D01*
X412590Y560000D01*
X412590D01*
X412590Y560000D01*
X369009D01*
X368605Y560605D01*
X366951Y561710D01*
X365000Y562098D01*
X363049Y561710D01*
X361395Y560605D01*
X360991Y560000D01*
X328999D01*
X327250Y560348D01*
X325500Y560000D01*
X215437D01*
X214539Y560898D01*
X214539Y769155D01*
X218345Y772961D01*
X251410D01*
X251790Y771049D01*
X252895Y769395D01*
X254549Y768290D01*
X256500Y767902D01*
X258451Y768290D01*
X260105Y769395D01*
X261210Y771049D01*
X261590Y772961D01*
X337500D01*
X338280Y773116D01*
X338942Y773558D01*
X341732Y776348D01*
X342174Y777010D01*
X342329Y777790D01*
X342174Y778570D01*
X341648Y779840D01*
X341206Y780502D01*
X340544Y780944D01*
X340380Y780977D01*
Y830000D01*
X358498D01*
X359396Y829102D01*
Y822500D01*
X359809Y819367D01*
X361018Y816448D01*
X362941Y813941D01*
X365448Y812018D01*
X368367Y810809D01*
X371500Y810396D01*
X374633Y810809D01*
X377552Y812018D01*
X380058Y813941D01*
X381982Y816448D01*
X383191Y819367D01*
X383480Y821563D01*
X384808Y821919D01*
X385724Y820724D01*
X387709Y819202D01*
X390020Y818244D01*
X392500Y817918D01*
X394980Y818244D01*
X397291Y819202D01*
X399275Y820724D01*
X400798Y822709D01*
X401755Y825020D01*
X402082Y827500D01*
X401920Y828730D01*
X403034Y830000D01*
X421966D01*
X423080Y828730D01*
X422918Y827500D01*
X423245Y825020D01*
X424202Y822709D01*
X425724Y820724D01*
X427709Y819202D01*
X430020Y818244D01*
X432500Y817918D01*
X434980Y818244D01*
X437291Y819202D01*
X439275Y820724D01*
X440798Y822709D01*
X441755Y825020D01*
X441859Y825810D01*
X443140D01*
X443245Y825020D01*
X444202Y822709D01*
X445724Y820724D01*
X447709Y819202D01*
X447912Y819118D01*
Y814000D01*
X448261Y812244D01*
X449256Y810756D01*
X458256Y801756D01*
X459744Y800761D01*
X461500Y800412D01*
X502500D01*
X504256Y800761D01*
X505744Y801756D01*
X514400Y810412D01*
X599017D01*
X600256Y809584D01*
X602500Y809137D01*
X604743Y809584D01*
X606645Y810854D01*
X607916Y812756D01*
X608363Y815000D01*
X607916Y817243D01*
X606645Y819145D01*
X604743Y820416D01*
X602500Y820863D01*
X600256Y820416D01*
X599017Y819588D01*
X512500D01*
X510744Y819239D01*
X509256Y818244D01*
X500600Y809588D01*
X496865D01*
X496633Y810809D01*
X499552Y812018D01*
X502058Y813941D01*
X503982Y816448D01*
X505191Y819367D01*
X505603Y822500D01*
Y830000D01*
X651602D01*
X652500Y829102D01*
D02*
G37*
G36*
X311710Y808270D02*
X326315D01*
Y807000D01*
X327585D01*
Y779060D01*
X339764D01*
X340290Y777790D01*
X337500Y775000D01*
X261177D01*
X260105Y776605D01*
X258451Y777710D01*
X256500Y778098D01*
X254549Y777710D01*
X252895Y776605D01*
X251823Y775000D01*
X217500D01*
X212500Y770000D01*
X212500Y559560D01*
X211730Y559016D01*
X211535Y558811D01*
X211318Y558629D01*
X210911Y558123D01*
X210777Y557866D01*
X210616Y557625D01*
X210594Y557516D01*
X210543Y557417D01*
X210517Y557129D01*
X210461Y556844D01*
Y555000D01*
X188398D01*
X187500Y555898D01*
X187500Y830000D01*
X224080D01*
Y808270D01*
X238685D01*
X253290D01*
Y830000D01*
X269070D01*
Y779600D01*
X295930D01*
Y830000D01*
X311710D01*
Y808270D01*
D02*
G37*
%LPC*%
G36*
X284875Y595598D02*
X282924Y595210D01*
X281270Y594104D01*
X280165Y592451D01*
X279777Y590500D01*
X280165Y588549D01*
X281270Y586895D01*
X282924Y585790D01*
X284875Y585402D01*
X286826Y585790D01*
X288480Y586895D01*
X289585Y588549D01*
X289973Y590500D01*
X289585Y592451D01*
X288480Y594104D01*
X286826Y595210D01*
X284875Y595598D01*
D02*
G37*
G36*
X532250Y595848D02*
X530299Y595460D01*
X528645Y594355D01*
X527540Y592701D01*
X527152Y590750D01*
X527540Y588799D01*
X528645Y587145D01*
X530299Y586040D01*
X532250Y585652D01*
X534201Y586040D01*
X535855Y587145D01*
X536960Y588799D01*
X537348Y590750D01*
X536960Y592701D01*
X535855Y594355D01*
X534201Y595460D01*
X532250Y595848D01*
D02*
G37*
G36*
X539250Y555598D02*
X537299Y555210D01*
X535645Y554104D01*
X534540Y552451D01*
X534152Y550500D01*
X534540Y548549D01*
X535645Y546895D01*
X537299Y545790D01*
X539250Y545402D01*
X541201Y545790D01*
X542855Y546895D01*
X543960Y548549D01*
X544348Y550500D01*
X543960Y552451D01*
X542855Y554104D01*
X541201Y555210D01*
X539250Y555598D01*
D02*
G37*
G36*
X327000Y573098D02*
X325049Y572710D01*
X323395Y571605D01*
X322290Y569951D01*
X321902Y568000D01*
X322290Y566049D01*
X323395Y564395D01*
X325049Y563290D01*
X327000Y562902D01*
X328951Y563290D01*
X330605Y564395D01*
X331710Y566049D01*
X332098Y568000D01*
X331710Y569951D01*
X330605Y571605D01*
X328951Y572710D01*
X327000Y573098D01*
D02*
G37*
G36*
X227500Y583363D02*
X225256Y582916D01*
X223354Y581645D01*
X222084Y579743D01*
X221637Y577500D01*
X222084Y575256D01*
X223354Y573354D01*
X225256Y572084D01*
X227500Y571637D01*
X229743Y572084D01*
X231645Y573354D01*
X232916Y575256D01*
X233363Y577500D01*
X232916Y579743D01*
X231645Y581645D01*
X229743Y582916D01*
X227500Y583363D01*
D02*
G37*
G36*
X569750Y595848D02*
X567799Y595460D01*
X566145Y594355D01*
X565040Y592701D01*
X564652Y590750D01*
X565040Y588799D01*
X566145Y587145D01*
X567799Y586040D01*
X569750Y585652D01*
X571701Y586040D01*
X573355Y587145D01*
X574460Y588799D01*
X574848Y590750D01*
X574460Y592701D01*
X573355Y594355D01*
X571701Y595460D01*
X569750Y595848D01*
D02*
G37*
G36*
X429500Y646598D02*
X427549Y646210D01*
X425895Y645105D01*
X424790Y643451D01*
X424402Y641500D01*
X424790Y639549D01*
X425895Y637895D01*
X427549Y636790D01*
X429500Y636402D01*
X431451Y636790D01*
X433105Y637895D01*
X434210Y639549D01*
X434598Y641500D01*
X434210Y643451D01*
X433105Y645105D01*
X431451Y646210D01*
X429500Y646598D01*
D02*
G37*
G36*
X290000Y649098D02*
X288049Y648710D01*
X286395Y647605D01*
X285290Y645951D01*
X284902Y644000D01*
X285290Y642049D01*
X286395Y640395D01*
X288049Y639290D01*
X290000Y638902D01*
X291951Y639290D01*
X293605Y640395D01*
X294710Y642049D01*
X295098Y644000D01*
X294710Y645951D01*
X293605Y647605D01*
X291951Y648710D01*
X290000Y649098D01*
D02*
G37*
G36*
X309000Y659098D02*
X307049Y658710D01*
X305395Y657605D01*
X304290Y655951D01*
X303902Y654000D01*
X304290Y652049D01*
X305395Y650395D01*
X307049Y649290D01*
X309000Y648902D01*
X310951Y649290D01*
X312605Y650395D01*
X313710Y652049D01*
X314098Y654000D01*
X313710Y655951D01*
X312605Y657605D01*
X310951Y658710D01*
X309000Y659098D01*
D02*
G37*
G36*
X376000Y637098D02*
X374049Y636710D01*
X372395Y635605D01*
X371290Y633951D01*
X370902Y632000D01*
X371290Y630049D01*
X372395Y628395D01*
X374049Y627290D01*
X376000Y626902D01*
X377951Y627290D01*
X379605Y628395D01*
X380710Y630049D01*
X381098Y632000D01*
X380710Y633951D01*
X379605Y635605D01*
X377951Y636710D01*
X376000Y637098D01*
D02*
G37*
G36*
X607250Y605848D02*
X605299Y605460D01*
X603645Y604355D01*
X602540Y602701D01*
X602152Y600750D01*
X602540Y598799D01*
X603645Y597145D01*
X605299Y596040D01*
X607250Y595652D01*
X609201Y596040D01*
X610855Y597145D01*
X611960Y598799D01*
X612348Y600750D01*
X611960Y602701D01*
X610855Y604355D01*
X609201Y605460D01*
X607250Y605848D01*
D02*
G37*
G36*
X427500Y608098D02*
X425549Y607710D01*
X423895Y606605D01*
X422790Y604951D01*
X422402Y603000D01*
X422790Y601049D01*
X423895Y599395D01*
X425549Y598290D01*
X427500Y597902D01*
X429451Y598290D01*
X431105Y599395D01*
X432210Y601049D01*
X432598Y603000D01*
X432210Y604951D01*
X431105Y606605D01*
X429451Y607710D01*
X427500Y608098D01*
D02*
G37*
G36*
X312500Y627598D02*
X310549Y627210D01*
X308895Y626105D01*
X307790Y624451D01*
X307402Y622500D01*
X307790Y620549D01*
X308895Y618895D01*
X310549Y617790D01*
X312500Y617402D01*
X312819Y617465D01*
X320142Y610142D01*
X321224Y609420D01*
X322500Y609166D01*
X351214D01*
X351395Y608895D01*
X353049Y607790D01*
X355000Y607402D01*
X356951Y607790D01*
X358605Y608895D01*
X359710Y610549D01*
X360098Y612500D01*
X359710Y614451D01*
X358605Y616105D01*
X356951Y617210D01*
X355000Y617598D01*
X353049Y617210D01*
X351395Y616105D01*
X351214Y615834D01*
X323881D01*
X317534Y622180D01*
X317598Y622500D01*
X317210Y624451D01*
X316105Y626105D01*
X314451Y627210D01*
X312500Y627598D01*
D02*
G37*
G36*
X345000Y392598D02*
X343049Y392210D01*
X341395Y391105D01*
X340290Y389451D01*
X339902Y387500D01*
X340290Y385549D01*
X341395Y383895D01*
X343049Y382790D01*
X345000Y382402D01*
X346951Y382790D01*
X348605Y383895D01*
X349710Y385549D01*
X350098Y387500D01*
X349710Y389451D01*
X348605Y391105D01*
X346951Y392210D01*
X345000Y392598D01*
D02*
G37*
G36*
X536000Y410758D02*
X534049Y410370D01*
X532395Y409265D01*
X531290Y407611D01*
X530902Y405660D01*
X531290Y403709D01*
X532395Y402055D01*
X534049Y400950D01*
X536000Y400562D01*
X537951Y400950D01*
X539604Y402055D01*
X540710Y403709D01*
X541098Y405660D01*
X540710Y407611D01*
X539604Y409265D01*
X537951Y410370D01*
X536000Y410758D01*
D02*
G37*
G36*
X285000Y412598D02*
X283049Y412210D01*
X281395Y411105D01*
X280290Y409451D01*
X279902Y407500D01*
X280290Y405549D01*
X281395Y403895D01*
X283049Y402790D01*
X285000Y402402D01*
X286951Y402790D01*
X288605Y403895D01*
X289710Y405549D01*
X290098Y407500D01*
X289710Y409451D01*
X288605Y411105D01*
X286951Y412210D01*
X285000Y412598D01*
D02*
G37*
G36*
X590709Y389380D02*
X579520D01*
Y380523D01*
X580750D01*
X583371Y380868D01*
X585813Y381880D01*
X587910Y383489D01*
X589520Y385587D01*
X590531Y388029D01*
X590709Y389380D01*
D02*
G37*
G36*
X407100Y404827D02*
X403262Y404322D01*
X399687Y402840D01*
X396616Y400484D01*
X394259Y397413D01*
X392778Y393837D01*
X392273Y390000D01*
X392778Y386162D01*
X394259Y382587D01*
X396616Y379516D01*
X399687Y377160D01*
X403262Y375678D01*
X407100Y375173D01*
X410937Y375678D01*
X414513Y377160D01*
X417584Y379516D01*
X419940Y382587D01*
X421422Y386162D01*
X421927Y390000D01*
X421422Y393837D01*
X419940Y397413D01*
X417584Y400484D01*
X414513Y402840D01*
X410937Y404322D01*
X407100Y404827D01*
D02*
G37*
G36*
X472600Y404700D02*
X443200D01*
Y375300D01*
X472600D01*
Y404700D01*
D02*
G37*
G36*
X576980Y389380D02*
X565790D01*
X565968Y388029D01*
X566980Y385587D01*
X568589Y383489D01*
X570686Y381880D01*
X573129Y380868D01*
X575750Y380523D01*
X576980D01*
Y389380D01*
D02*
G37*
G36*
X329050Y516648D02*
X327099Y516260D01*
X325445Y515155D01*
X324340Y513501D01*
X323952Y511550D01*
X324340Y509599D01*
X325445Y507945D01*
X327099Y506840D01*
X329050Y506452D01*
X331001Y506840D01*
X332655Y507945D01*
X333760Y509599D01*
X334148Y511550D01*
X333760Y513501D01*
X332655Y515155D01*
X331001Y516260D01*
X329050Y516648D01*
D02*
G37*
G36*
X245000Y520098D02*
X243049Y519710D01*
X241395Y518605D01*
X240290Y516951D01*
X239902Y515000D01*
X240290Y513049D01*
X241395Y511395D01*
X243049Y510290D01*
X245000Y509902D01*
X246951Y510290D01*
X248605Y511395D01*
X249710Y513049D01*
X250098Y515000D01*
X249710Y516951D01*
X248605Y518605D01*
X246951Y519710D01*
X245000Y520098D01*
D02*
G37*
G36*
X605750Y537848D02*
X603799Y537460D01*
X602145Y536354D01*
X601040Y534701D01*
X600652Y532750D01*
X601040Y530799D01*
X602145Y529145D01*
X603799Y528040D01*
X605750Y527652D01*
X607701Y528040D01*
X609355Y529145D01*
X610460Y530799D01*
X610848Y532750D01*
X610460Y534701D01*
X609355Y536354D01*
X607701Y537460D01*
X605750Y537848D01*
D02*
G37*
G36*
X548250Y514848D02*
X546299Y514460D01*
X544645Y513355D01*
X543540Y511701D01*
X543152Y509750D01*
X543540Y507799D01*
X544645Y506145D01*
X546299Y505040D01*
X548250Y504652D01*
X550201Y505040D01*
X551855Y506145D01*
X552960Y507799D01*
X553348Y509750D01*
X552960Y511701D01*
X551855Y513355D01*
X550201Y514460D01*
X548250Y514848D01*
D02*
G37*
G36*
X297500Y427598D02*
X295549Y427210D01*
X293895Y426105D01*
X292790Y424451D01*
X292402Y422500D01*
X292790Y420549D01*
X293895Y418895D01*
X295549Y417790D01*
X297500Y417402D01*
X299451Y417790D01*
X301105Y418895D01*
X302210Y420549D01*
X302598Y422500D01*
X302210Y424451D01*
X301105Y426105D01*
X299451Y427210D01*
X297500Y427598D01*
D02*
G37*
G36*
X432500Y475098D02*
X430549Y474710D01*
X428895Y473605D01*
X427790Y471951D01*
X427402Y470000D01*
X427790Y468049D01*
X428895Y466395D01*
X429166Y466214D01*
Y462000D01*
Y443786D01*
X428895Y443605D01*
X427790Y441951D01*
X427747Y441734D01*
X426452D01*
X426210Y442951D01*
X425105Y444605D01*
X423451Y445710D01*
X421500Y446098D01*
X419549Y445710D01*
X417895Y444605D01*
X416790Y442951D01*
X416402Y441000D01*
X416466Y440681D01*
X411619Y435834D01*
X322500D01*
X321224Y435580D01*
X320142Y434857D01*
X301292Y416007D01*
X300570Y414926D01*
X300316Y413650D01*
Y412533D01*
X300045Y412353D01*
X298940Y410699D01*
X298552Y408748D01*
X298940Y406797D01*
X300045Y405143D01*
X301699Y404038D01*
X303650Y403650D01*
X305601Y404038D01*
X307255Y405143D01*
X308360Y406797D01*
X308748Y408748D01*
X308360Y410699D01*
X307255Y412353D01*
X307238Y412523D01*
X311884Y417169D01*
X313054Y416543D01*
X313016Y416350D01*
Y412636D01*
X312745Y412455D01*
X311640Y410801D01*
X311252Y408850D01*
X311640Y406899D01*
X312745Y405245D01*
X314399Y404140D01*
X316350Y403752D01*
X318301Y404140D01*
X319955Y405245D01*
X321060Y406899D01*
X321448Y408850D01*
X321060Y410801D01*
X319955Y412455D01*
X319684Y412636D01*
Y414969D01*
X321291Y416576D01*
X322669Y416158D01*
X322790Y415549D01*
X323895Y413895D01*
X325549Y412790D01*
X327500Y412402D01*
X329451Y412790D01*
X331105Y413895D01*
X332210Y415549D01*
X332598Y417500D01*
X332210Y419451D01*
X331578Y420396D01*
X332257Y421666D01*
X426500D01*
X427776Y421920D01*
X428857Y422642D01*
X442181Y435965D01*
X442500Y435902D01*
X444451Y436290D01*
X446105Y437395D01*
X447210Y439049D01*
X447598Y441000D01*
X447210Y442951D01*
X446105Y444605D01*
X444451Y445710D01*
X442500Y446098D01*
X440549Y445710D01*
X438895Y444605D01*
X437930Y443160D01*
X437040Y442982D01*
X436506Y443004D01*
X436105Y443605D01*
X435834Y443786D01*
Y462000D01*
Y466214D01*
X436105Y466395D01*
X437210Y468049D01*
X437598Y470000D01*
X437210Y471951D01*
X436105Y473605D01*
X434451Y474710D01*
X432500Y475098D01*
D02*
G37*
G36*
X552750Y477098D02*
X550799Y476710D01*
X549145Y475605D01*
X548040Y473951D01*
X547652Y472000D01*
X548040Y470049D01*
X549145Y468395D01*
X550799Y467290D01*
X552750Y466902D01*
X554701Y467290D01*
X556354Y468395D01*
X557460Y470049D01*
X557848Y472000D01*
X557460Y473951D01*
X556354Y475605D01*
X554701Y476710D01*
X552750Y477098D01*
D02*
G37*
G36*
X494353Y775730D02*
X486470D01*
Y767847D01*
X488450D01*
X490709Y768296D01*
X492624Y769576D01*
X493904Y771491D01*
X494353Y773750D01*
Y775730D01*
D02*
G37*
G36*
X379800Y785573D02*
X377581Y785281D01*
X375513Y784425D01*
X373738Y783062D01*
X372375Y781287D01*
X371519Y779219D01*
X371227Y777000D01*
X371519Y774781D01*
X372375Y772713D01*
X373738Y770938D01*
X375513Y769575D01*
X377581Y768719D01*
X379800Y768427D01*
X382019Y768719D01*
X384087Y769575D01*
X385862Y770938D01*
X387225Y772713D01*
X388081Y774781D01*
X388373Y777000D01*
X388081Y779219D01*
X387225Y781287D01*
X385862Y783062D01*
X384087Y784425D01*
X382019Y785281D01*
X379800Y785573D01*
D02*
G37*
G36*
X459800D02*
X457581Y785281D01*
X455513Y784425D01*
X453738Y783062D01*
X452375Y781287D01*
X451519Y779219D01*
X451227Y777000D01*
X451519Y774781D01*
X452375Y772713D01*
X453738Y770938D01*
X455513Y769575D01*
X457581Y768719D01*
X459800Y768427D01*
X462019Y768719D01*
X464087Y769575D01*
X465862Y770938D01*
X467225Y772713D01*
X468081Y774781D01*
X468373Y777000D01*
X468081Y779219D01*
X467225Y781287D01*
X465862Y783062D01*
X464087Y784425D01*
X462019Y785281D01*
X459800Y785573D01*
D02*
G37*
G36*
X483930Y775730D02*
X476046D01*
Y773750D01*
X476496Y771491D01*
X477776Y769576D01*
X479691Y768296D01*
X481950Y767847D01*
X483930D01*
Y775730D01*
D02*
G37*
G36*
X312500Y755098D02*
X310549Y754710D01*
X308895Y753605D01*
X307790Y751951D01*
X307402Y750000D01*
X307790Y748049D01*
X308895Y746395D01*
X310549Y745290D01*
X312500Y744902D01*
X314451Y745290D01*
X316105Y746395D01*
X317210Y748049D01*
X317598Y750000D01*
X317210Y751951D01*
X316105Y753605D01*
X314451Y754710D01*
X312500Y755098D01*
D02*
G37*
G36*
X403930Y775730D02*
X396046D01*
Y773750D01*
X396496Y771491D01*
X397776Y769576D01*
X399691Y768296D01*
X401950Y767847D01*
X403930D01*
Y775730D01*
D02*
G37*
G36*
X414353D02*
X406470D01*
Y767847D01*
X408450D01*
X410709Y768296D01*
X412624Y769576D01*
X413904Y771491D01*
X414353Y773750D01*
Y775730D01*
D02*
G37*
G36*
X237415Y805730D02*
X224080D01*
Y779060D01*
X237415D01*
Y805730D01*
D02*
G37*
G36*
X253290D02*
X239955D01*
Y779060D01*
X253290D01*
Y805730D01*
D02*
G37*
G36*
X325045D02*
X311710D01*
Y779060D01*
X325045D01*
Y805730D01*
D02*
G37*
G36*
X488450Y786153D02*
X486470D01*
Y778270D01*
X494353D01*
Y780250D01*
X493904Y782509D01*
X492624Y784424D01*
X490709Y785704D01*
X488450Y786153D01*
D02*
G37*
G36*
X483930D02*
X481950D01*
X479691Y785704D01*
X477776Y784424D01*
X476496Y782509D01*
X476046Y780250D01*
Y778270D01*
X483930D01*
Y786153D01*
D02*
G37*
G36*
X403930D02*
X401950D01*
X399691Y785704D01*
X397776Y784424D01*
X396496Y782509D01*
X396046Y780250D01*
Y778270D01*
X403930D01*
Y786153D01*
D02*
G37*
G36*
X408450D02*
X406470D01*
Y778270D01*
X414353D01*
Y780250D01*
X413904Y782509D01*
X412624Y784424D01*
X410709Y785704D01*
X408450Y786153D01*
D02*
G37*
G36*
X587500Y804560D02*
X557500D01*
X555673Y804320D01*
X553970Y803615D01*
X552508Y802493D01*
X551385Y801030D01*
X550680Y799327D01*
X550439Y797500D01*
Y787500D01*
X550680Y785673D01*
X551385Y783970D01*
X552508Y782508D01*
X553970Y781385D01*
X555673Y780680D01*
X557500Y780440D01*
X587500D01*
X589327Y780680D01*
X591030Y781385D01*
X592492Y782508D01*
X593614Y783970D01*
X594320Y785673D01*
X594560Y787500D01*
Y787912D01*
X597099D01*
X607448Y777563D01*
X607439Y777500D01*
Y747500D01*
X607564Y746553D01*
X599256Y738244D01*
X598330Y736860D01*
X598239Y736850D01*
X597060Y737500D01*
X596820Y739327D01*
X596114Y741030D01*
X594992Y742493D01*
X593530Y743615D01*
X591827Y744320D01*
X590000Y744560D01*
X555000D01*
X553173Y744320D01*
X551470Y743615D01*
X550008Y742493D01*
X548885Y741030D01*
X548180Y739327D01*
X547939Y737500D01*
Y727500D01*
X548180Y725673D01*
X548885Y723970D01*
X550008Y722507D01*
X551470Y721385D01*
X553173Y720680D01*
X555000Y720440D01*
X587162D01*
Y711282D01*
X586799Y711210D01*
X585145Y710105D01*
X584040Y708451D01*
X583652Y706500D01*
Y690500D01*
X584040Y688549D01*
X585145Y686895D01*
X586799Y685790D01*
X588750Y685402D01*
X594750D01*
X596701Y685790D01*
X598355Y686895D01*
X599460Y688549D01*
X599848Y690500D01*
Y706500D01*
X599460Y708451D01*
X598355Y710105D01*
X596701Y711210D01*
X596338Y711282D01*
Y724035D01*
X596642Y724350D01*
X597912Y723838D01*
Y717000D01*
X598261Y715244D01*
X599256Y713756D01*
X608652Y704359D01*
Y690500D01*
X609040Y688549D01*
X610145Y686895D01*
X611799Y685790D01*
X613750Y685402D01*
X619750D01*
X621701Y685790D01*
X623355Y686895D01*
X624460Y688549D01*
X624848Y690500D01*
Y706500D01*
X624460Y708451D01*
X623355Y710105D01*
X621701Y711210D01*
X619750Y711598D01*
X614391D01*
X607088Y718900D01*
Y733099D01*
X614437Y740448D01*
X614500Y740440D01*
X624500D01*
X626327Y740680D01*
X628030Y741386D01*
X629492Y742508D01*
X630614Y743970D01*
X631320Y745673D01*
X631560Y747500D01*
Y777500D01*
X631320Y779327D01*
X630614Y781030D01*
X629492Y782493D01*
X628030Y783615D01*
X626327Y784320D01*
X624500Y784560D01*
X614500D01*
X613553Y784436D01*
X602244Y795744D01*
X600756Y796739D01*
X599000Y797088D01*
X594560D01*
Y797500D01*
X594320Y799327D01*
X593614Y801030D01*
X592492Y802493D01*
X591030Y803615D01*
X589327Y804320D01*
X587500Y804560D01*
D02*
G37*
G36*
X401000Y666862D02*
X398756Y666416D01*
X396854Y665145D01*
X395583Y663243D01*
X395137Y661000D01*
X395583Y658756D01*
X396854Y656854D01*
X398756Y655583D01*
X401000Y655137D01*
X403243Y655583D01*
X405145Y656854D01*
X406416Y658756D01*
X406862Y661000D01*
X406416Y663243D01*
X405145Y665145D01*
X403243Y666416D01*
X401000Y666862D01*
D02*
G37*
G36*
X449500Y670098D02*
X447549Y669710D01*
X445895Y668605D01*
X444790Y666951D01*
X444402Y665000D01*
X444790Y663049D01*
X445895Y661395D01*
X447549Y660290D01*
X449500Y659902D01*
X451451Y660290D01*
X453105Y661395D01*
X454210Y663049D01*
X454598Y665000D01*
X454210Y666951D01*
X453105Y668605D01*
X451451Y669710D01*
X449500Y670098D01*
D02*
G37*
G36*
X602500Y680098D02*
X600549Y679710D01*
X598895Y678605D01*
X597790Y676951D01*
X597694Y676466D01*
X596894Y676294D01*
X596372Y676332D01*
X595355Y677855D01*
X593701Y678960D01*
X591750Y679348D01*
X589799Y678960D01*
X588145Y677855D01*
X587040Y676201D01*
X586652Y674250D01*
X587040Y672299D01*
X587162Y672117D01*
Y667133D01*
X587040Y666951D01*
X586652Y665000D01*
X587040Y663049D01*
X587162Y662867D01*
Y657133D01*
X587040Y656951D01*
X586652Y655000D01*
X587040Y653049D01*
X587162Y652867D01*
Y637282D01*
X586799Y637210D01*
X585145Y636105D01*
X584040Y634451D01*
X583652Y632500D01*
Y616500D01*
X584040Y614549D01*
X585145Y612895D01*
X586799Y611790D01*
X588750Y611402D01*
X594750D01*
X596701Y611790D01*
X598355Y612895D01*
X599460Y614549D01*
X599848Y616500D01*
Y632500D01*
X599460Y634451D01*
X598355Y636105D01*
X596701Y637210D01*
X596338Y637282D01*
Y651734D01*
X597608Y652243D01*
X597912Y651926D01*
Y645000D01*
X598261Y643244D01*
X599256Y641756D01*
X608652Y632359D01*
Y616500D01*
X609040Y614549D01*
X610145Y612895D01*
X611799Y611790D01*
X613750Y611402D01*
X619750D01*
X621701Y611790D01*
X623355Y612895D01*
X624460Y614549D01*
X624848Y616500D01*
Y632500D01*
X624460Y634451D01*
X623355Y636105D01*
X621701Y637210D01*
X619750Y637598D01*
X616391D01*
X607088Y646900D01*
Y652867D01*
X607210Y653049D01*
X607598Y655000D01*
X607210Y656951D01*
X607088Y657133D01*
Y662867D01*
X607210Y663049D01*
X607598Y665000D01*
X607210Y666951D01*
X607088Y667133D01*
Y672867D01*
X607210Y673049D01*
X607598Y675000D01*
X607210Y676951D01*
X606105Y678605D01*
X604451Y679710D01*
X602500Y680098D01*
D02*
G37*
G36*
X573597Y665863D02*
X571353Y665416D01*
X569451Y664145D01*
X568180Y662243D01*
X567734Y660000D01*
X568180Y657756D01*
X569451Y655854D01*
X571353Y654584D01*
X573597Y654137D01*
X575840Y654584D01*
X577742Y655854D01*
X579013Y657756D01*
X579459Y660000D01*
X579013Y662243D01*
X577742Y664145D01*
X575840Y665416D01*
X573597Y665863D01*
D02*
G37*
G36*
X499867D02*
X497623Y665416D01*
X495721Y664145D01*
X494450Y662243D01*
X494004Y660000D01*
X494450Y657756D01*
X495721Y655854D01*
X497623Y654584D01*
X499867Y654137D01*
X502110Y654584D01*
X504012Y655854D01*
X505283Y657756D01*
X505729Y660000D01*
X505283Y662243D01*
X504012Y664145D01*
X502110Y665416D01*
X499867Y665863D01*
D02*
G37*
G36*
X524443D02*
X522200Y665416D01*
X520298Y664145D01*
X519027Y662243D01*
X518581Y660000D01*
X519027Y657756D01*
X520298Y655854D01*
X522200Y654584D01*
X524443Y654137D01*
X526687Y654584D01*
X528589Y655854D01*
X529860Y657756D01*
X530306Y660000D01*
X529860Y662243D01*
X528589Y664145D01*
X526687Y665416D01*
X524443Y665863D01*
D02*
G37*
G36*
X549020D02*
X546776Y665416D01*
X544874Y664145D01*
X543604Y662243D01*
X543157Y660000D01*
X543604Y657756D01*
X544874Y655854D01*
X546776Y654584D01*
X549020Y654137D01*
X551264Y654584D01*
X553165Y655854D01*
X554436Y657756D01*
X554883Y660000D01*
X554436Y662243D01*
X553165Y664145D01*
X551264Y665416D01*
X549020Y665863D01*
D02*
G37*
G36*
X246049Y724888D02*
X244098Y724500D01*
X242444Y723395D01*
X241339Y721741D01*
X240951Y719790D01*
X241339Y717839D01*
X242444Y716185D01*
X244098Y715080D01*
X246049Y714692D01*
X248000Y715080D01*
X249654Y716185D01*
X250759Y717839D01*
X251147Y719790D01*
X250759Y721741D01*
X249654Y723395D01*
X248000Y724500D01*
X246049Y724888D01*
D02*
G37*
G36*
X373500Y736098D02*
X371549Y735710D01*
X369895Y734605D01*
X368790Y732951D01*
X368402Y731000D01*
X368790Y729049D01*
X369895Y727395D01*
X371549Y726290D01*
X373500Y725902D01*
X375451Y726290D01*
X377105Y727395D01*
X378210Y729049D01*
X378598Y731000D01*
X378210Y732951D01*
X377105Y734605D01*
X375451Y735710D01*
X373500Y736098D01*
D02*
G37*
G36*
X408500Y737098D02*
X406549Y736710D01*
X404895Y735605D01*
X403790Y733951D01*
X403402Y732000D01*
X403790Y730049D01*
X404895Y728395D01*
X406549Y727290D01*
X408500Y726902D01*
X410451Y727290D01*
X412105Y728395D01*
X413210Y730049D01*
X413598Y732000D01*
X413210Y733951D01*
X412105Y735605D01*
X410451Y736710D01*
X408500Y737098D01*
D02*
G37*
G36*
X541000Y725953D02*
X538489Y725622D01*
X536148Y724653D01*
X534139Y723111D01*
X532597Y721101D01*
X531628Y718761D01*
X531297Y716250D01*
X531628Y713739D01*
X532597Y711398D01*
X534139Y709389D01*
X536148Y707847D01*
X538489Y706878D01*
X541000Y706547D01*
X543511Y706878D01*
X545851Y707847D01*
X547861Y709389D01*
X549403Y711398D01*
X550372Y713739D01*
X550703Y716250D01*
X550372Y718761D01*
X549403Y721101D01*
X547861Y723111D01*
X545851Y724653D01*
X543511Y725622D01*
X541000Y725953D01*
D02*
G37*
G36*
X350500Y690098D02*
X348549Y689710D01*
X346895Y688605D01*
X345790Y686951D01*
X345402Y685000D01*
X345790Y683049D01*
X346895Y681395D01*
X348549Y680290D01*
X350500Y679902D01*
X352451Y680290D01*
X354105Y681395D01*
X355210Y683049D01*
X355598Y685000D01*
X355210Y686951D01*
X354105Y688605D01*
X352451Y689710D01*
X350500Y690098D01*
D02*
G37*
G36*
X426500Y735098D02*
X424549Y734710D01*
X422895Y733605D01*
X421790Y731951D01*
X421402Y730000D01*
X421790Y728049D01*
X422895Y726395D01*
X423166Y726214D01*
Y714454D01*
X421895Y713605D01*
X420790Y711951D01*
X420402Y710000D01*
X420790Y708049D01*
X421895Y706395D01*
X423549Y705290D01*
X425500Y704902D01*
X427451Y705290D01*
X429105Y706395D01*
X430210Y708049D01*
X430598Y710000D01*
X430210Y711951D01*
X429834Y712513D01*
Y726214D01*
X430105Y726395D01*
X431210Y728049D01*
X431598Y730000D01*
X431210Y731951D01*
X430105Y733605D01*
X428451Y734710D01*
X426500Y735098D01*
D02*
G37*
G36*
X427500Y788069D02*
X425411Y787794D01*
X423465Y786988D01*
X421794Y785705D01*
X420512Y784034D01*
X419706Y782088D01*
X419431Y780000D01*
X419706Y777912D01*
X420512Y775965D01*
X421794Y774294D01*
X423465Y773012D01*
X425411Y772206D01*
X427500Y771931D01*
X428896Y772115D01*
X445506Y755506D01*
X446994Y754511D01*
X448750Y754162D01*
X479599D01*
X486412Y747349D01*
Y724762D01*
X486148Y724653D01*
X484139Y723111D01*
X482597Y721101D01*
X481628Y718761D01*
X481297Y716250D01*
X481628Y713739D01*
X482597Y711398D01*
X484139Y709389D01*
X486148Y707847D01*
X488489Y706878D01*
X491000Y706547D01*
X493511Y706878D01*
X495851Y707847D01*
X497861Y709389D01*
X499403Y711398D01*
X500372Y713739D01*
X500703Y716250D01*
X500372Y718761D01*
X499403Y721101D01*
X497861Y723111D01*
X495851Y724653D01*
X495588Y724762D01*
Y749250D01*
X495239Y751006D01*
X494244Y752494D01*
X493218Y753521D01*
X493528Y754332D01*
X493789Y754746D01*
X495629Y755112D01*
X497283Y756217D01*
X498388Y757871D01*
X498776Y759822D01*
X498388Y761773D01*
X497283Y763427D01*
X495629Y764532D01*
X493678Y764920D01*
X491727Y764532D01*
X490073Y763427D01*
X488968Y761773D01*
X488602Y759932D01*
X488188Y759672D01*
X487377Y759362D01*
X484744Y761994D01*
X483256Y762989D01*
X481500Y763338D01*
X450650D01*
X435385Y778603D01*
X435569Y780000D01*
X435294Y782088D01*
X434488Y784034D01*
X433206Y785705D01*
X431534Y786988D01*
X429588Y787794D01*
X427500Y788069D01*
D02*
G37*
%LPD*%
D31*
X326315Y807000D02*
D03*
X238685D02*
D03*
D33*
X426500Y711000D02*
Y730000D01*
X327250Y555250D02*
X363250D01*
X365000Y557000D01*
X325000Y425000D02*
X426500D01*
X316350Y416350D02*
X325000Y425000D01*
X316350Y408850D02*
Y416350D01*
X322500Y432500D02*
X413000D01*
X303650Y413650D02*
X322500Y432500D01*
X303650Y408748D02*
Y413650D01*
X426500Y425000D02*
X442500Y441000D01*
X432500Y440000D02*
Y462000D01*
X413000Y432500D02*
X421500Y441000D01*
X432500Y462000D02*
Y468000D01*
X442500Y440000D02*
Y441000D01*
X322500Y612500D02*
X355000D01*
X312500Y622500D02*
X322500Y612500D01*
D35*
X452500Y814000D02*
Y827500D01*
Y814000D02*
X461500Y805000D01*
X304500Y807500D02*
X326315D01*
X602500Y665000D02*
Y675000D01*
Y655000D02*
Y665000D01*
Y645000D02*
Y655000D01*
X591750Y665000D02*
Y674250D01*
Y655000D02*
Y665000D01*
Y624500D02*
Y655000D01*
X428278Y779222D02*
Y780778D01*
X591750Y698500D02*
Y732500D01*
X428278Y778270D02*
Y779222D01*
X461500Y805000D02*
X502500D01*
X512500Y815000D01*
X602500D01*
X578250Y466850D02*
X580000Y468600D01*
X576419Y465019D02*
X578250Y466850D01*
X242685Y807500D02*
X264500D01*
X427500Y780000D02*
X428278Y779222D01*
X491000Y716250D02*
Y749250D01*
X481500Y758750D02*
X491000Y749250D01*
X448750Y758750D02*
X481500D01*
X428278Y779222D02*
X448750Y758750D01*
X602500Y645000D02*
X616750Y630750D01*
Y624500D02*
Y630750D01*
X572500Y732500D02*
X591750D01*
X612500Y755500D02*
X619500Y762500D01*
Y752000D02*
Y762500D01*
X602500Y735000D02*
X619500Y752000D01*
X602500Y717000D02*
Y735000D01*
Y717000D02*
X616750Y702750D01*
Y698500D02*
Y702750D01*
X572500Y792500D02*
X599000D01*
X619500Y772000D01*
Y762500D02*
Y772000D01*
X512000Y840049D02*
G03*
X502000Y850049I-10000J0D01*
G01*
X512000Y840049D02*
G03*
X514500Y837549I2500J0D01*
G01*
X362549Y850049D02*
G03*
X352549Y840049I0J-10000D01*
G01*
X350049Y837549D02*
G03*
X352549Y840049I0J2500D01*
G01*
X182500Y410000D02*
X242400Y350100D01*
X622600D01*
X182500Y410000D02*
Y837500D01*
X622600Y350100D02*
X682500Y410000D01*
Y837549D01*
X182500Y837500D02*
X350049D01*
X514500Y837549D02*
X667500D01*
X682500D01*
X362549Y850049D02*
X502000D01*
D36*
X495420Y437730D02*
G03*
X517100Y428750I21680J21680D01*
G01*
X491700Y446711D02*
G03*
X495420Y437730I12700J0D01*
G01*
X491700Y492250D02*
G03*
X482720Y513930I-30661J0D01*
G01*
X475280Y521370D02*
G03*
X453600Y530350I-21680J-21680D01*
G01*
X415500D02*
G03*
X393820Y521370I0J-30661D01*
G01*
X386380Y513930D02*
G03*
X377400Y492250I21680J-21680D01*
G01*
X368420Y457870D02*
G03*
X377400Y479550I-21680J21680D01*
G01*
X359439Y454150D02*
G03*
X368420Y457870I0J12700D01*
G01*
X517100Y428750D02*
X587250D01*
X491700Y446711D02*
Y492250D01*
X475280Y521370D02*
X482720Y513930D01*
X415500Y530350D02*
X453600D01*
X386380Y513930D02*
X393820Y521370D01*
X377400Y479550D02*
Y492250D01*
X251000Y454150D02*
X359439D01*
D37*
X517000Y455000D02*
D03*
Y405000D02*
D03*
X632500Y410000D02*
D03*
X232500D02*
D03*
X491000Y716250D02*
D03*
X541000D02*
D03*
D38*
X578250Y466850D02*
D03*
D39*
Y441450D02*
D03*
Y416050D02*
D03*
D40*
Y390650D02*
D03*
D41*
X407100Y390000D02*
D03*
X457900D02*
D03*
D42*
X493500Y827500D02*
D03*
X371500D02*
D03*
D43*
X472500D02*
D03*
X452500D02*
D03*
X432500D02*
D03*
X392500D02*
D03*
D44*
X619500Y762500D02*
D03*
D45*
X572500Y732500D02*
D03*
D46*
Y792500D02*
D03*
D47*
X459800Y777000D02*
D03*
X379800D02*
D03*
D48*
X485200D02*
D03*
X405200D02*
D03*
D49*
X426500Y730000D02*
D03*
X425500Y710000D02*
D03*
X219500Y515000D02*
D03*
X445500Y551000D02*
D03*
X510500Y493000D02*
D03*
Y471000D02*
D03*
X646500Y506000D02*
D03*
Y473000D02*
D03*
Y440000D02*
D03*
Y539000D02*
D03*
X473500Y551000D02*
D03*
X417500D02*
D03*
X376500Y537000D02*
D03*
X354500Y489000D02*
D03*
X219500Y536000D02*
D03*
Y494000D02*
D03*
Y473000D02*
D03*
X268500Y513000D02*
D03*
X280500Y498000D02*
D03*
X327250Y555250D02*
D03*
X350500Y685000D02*
D03*
X373500Y731000D02*
D03*
X408500Y732000D02*
D03*
X493678Y759822D02*
D03*
X327500Y417500D02*
D03*
X297500Y422500D02*
D03*
X285000Y407500D02*
D03*
X345000Y387500D02*
D03*
X432500Y440000D02*
D03*
Y470000D02*
D03*
X316350Y408850D02*
D03*
X303650Y408748D02*
D03*
X280000Y385000D02*
D03*
X329050Y511550D02*
D03*
X245000Y515000D02*
D03*
X427500Y603000D02*
D03*
X580000Y605750D02*
D03*
X590000D02*
D03*
X312500Y759502D02*
D03*
Y750000D02*
D03*
X284875Y590500D02*
D03*
X309382Y631000D02*
D03*
X309000Y654000D02*
D03*
X290000Y644000D02*
D03*
X365000Y557000D02*
D03*
X246049Y719790D02*
D03*
X327000Y568000D02*
D03*
X442500Y441000D02*
D03*
X421500D02*
D03*
X429500Y641500D02*
D03*
X428000Y678000D02*
D03*
X506250Y539249D02*
D03*
X298001Y590499D02*
D03*
X347250Y565000D02*
D03*
X539250Y529090D02*
D03*
X528500Y539500D02*
D03*
X605750Y532750D02*
D03*
Y522250D02*
D03*
X552750Y472000D02*
D03*
X536000Y405660D02*
D03*
X264500Y807500D02*
D03*
X304500D02*
D03*
X506000Y564500D02*
D03*
X528250Y564750D02*
D03*
X587250Y565749D02*
D03*
X569750Y590750D02*
D03*
X532250D02*
D03*
X607250Y600750D02*
D03*
X569750Y605750D02*
D03*
X234250Y769751D02*
D03*
X256500Y773000D02*
D03*
X376000Y610000D02*
D03*
Y632000D02*
D03*
X449500Y665000D02*
D03*
X539250Y550500D02*
D03*
X282500Y787750D02*
D03*
X548250Y509750D02*
D03*
X355000Y612500D02*
D03*
X312500Y622500D02*
D03*
X197500Y815000D02*
D03*
Y800000D02*
D03*
Y785000D02*
D03*
Y740000D02*
D03*
Y755000D02*
D03*
Y770000D02*
D03*
Y695000D02*
D03*
Y710000D02*
D03*
Y725000D02*
D03*
Y650000D02*
D03*
Y665000D02*
D03*
Y680000D02*
D03*
Y605000D02*
D03*
Y620000D02*
D03*
Y635000D02*
D03*
Y560000D02*
D03*
Y575000D02*
D03*
Y590000D02*
D03*
X602500Y675000D02*
D03*
Y665000D02*
D03*
Y655000D02*
D03*
X591750Y674250D02*
D03*
Y665000D02*
D03*
Y655000D02*
D03*
D50*
X602500Y815000D02*
D03*
X227500Y577500D02*
D03*
X401000Y661000D02*
D03*
X499867Y660000D02*
D03*
X524443D02*
D03*
X549020D02*
D03*
X573597D02*
D03*
D51*
X578250Y450336D02*
D03*
Y407164D02*
D03*
D52*
X427500Y780000D02*
D03*
D53*
X432500Y468000D02*
D03*
Y462000D02*
D03*
D54*
X282500Y807000D02*
D03*
D55*
X591750Y624500D02*
D03*
Y698500D02*
D03*
X616750Y624500D02*
D03*
Y698500D02*
D03*
M02*
