G04*
G04 #@! TF.GenerationSoftware,Altium Limited,CircuitStudio,1.5.2 (1.5.2.30)*
G04*
G04 Layer_Color=15065295*
%FSLAX44Y44*%
%MOMM*%
G71*
G01*
G75*
%ADD33C,0.2540*%
%ADD34C,0.2500*%
%ADD35C,0.5000*%
%ADD36C,2.5000*%
%ADD56C,0.0127*%
%ADD57C,0.1000*%
%ADD58C,0.2032*%
%ADD59C,0.2000*%
G36*
X433505Y574436D02*
X433541Y574351D01*
X433538Y574350D01*
X434072Y571563D01*
X434108Y571477D01*
X434165Y571453D01*
X434165Y571453D01*
X436500Y570486D01*
X436557Y570462D01*
X436643Y570498D01*
X436641Y570501D01*
X438990Y572094D01*
X439076Y572129D01*
X439191Y572081D01*
X439182Y572073D01*
X441199Y570073D01*
X441199Y570073D01*
X441247Y569958D01*
X441211Y569873D01*
X441209Y569874D01*
X439616Y567525D01*
X439580Y567439D01*
X439604Y567382D01*
X439604Y567382D01*
X440571Y565048D01*
X440595Y564990D01*
X440680Y564955D01*
X440681Y564958D01*
X443469Y564423D01*
X443554Y564388D01*
X443602Y564273D01*
X443602Y564273D01*
X443590D01*
X443602Y561432D01*
X443602Y561432D01*
X443554Y561318D01*
X443469Y561282D01*
X443468Y561285D01*
X440680Y560751D01*
X440595Y560715D01*
X440571Y560658D01*
X440571Y560658D01*
X439604Y558323D01*
X439580Y558266D01*
X439616Y558180D01*
X439618Y558182D01*
X441211Y555833D01*
X441247Y555747D01*
X441199Y555632D01*
X441199Y555632D01*
X441191Y555641D01*
X439191Y553624D01*
X439076Y553576D01*
X438990Y553612D01*
X438992Y553614D01*
X436643Y555207D01*
X436557Y555243D01*
X436500Y555219D01*
X435431Y554776D01*
X435373Y554753D01*
X435259Y554800D01*
X435235Y554858D01*
X433267Y559678D01*
X433243Y559735D01*
X433291Y559849D01*
X433343Y559871D01*
X433360Y559833D01*
X434337Y560486D01*
X435062Y561572D01*
X435317Y562853D01*
X435062Y564133D01*
X434337Y565219D01*
X433251Y565945D01*
X431970Y566199D01*
X430690Y565945D01*
X429604Y565219D01*
X428878Y564133D01*
X428624Y562853D01*
X428878Y561572D01*
X429604Y560486D01*
X430581Y559833D01*
X430598Y559871D01*
X430650Y559849D01*
X430698Y559735D01*
X430674Y559678D01*
X428706Y554858D01*
X428682Y554800D01*
X428567Y554753D01*
X428510Y554776D01*
Y554776D01*
X427441Y555219D01*
X427384Y555243D01*
X427298Y555207D01*
X427300Y555205D01*
X424951Y553612D01*
X424865Y553576D01*
X424750Y553624D01*
X424759Y553633D01*
X422742Y555632D01*
X422742Y555632D01*
X422694Y555747D01*
X422729Y555833D01*
X422732Y555831D01*
X424325Y558180D01*
X424361Y558266D01*
X424337Y558323D01*
Y558323D01*
X423370Y560658D01*
X423346Y560715D01*
X423260Y560751D01*
X423260Y560747D01*
X420472Y561282D01*
X420387Y561318D01*
X420339Y561432D01*
X420351D01*
X420339Y564273D01*
X420387Y564388D01*
X420472Y564423D01*
X420473Y564420D01*
X423260Y564955D01*
X423346Y564990D01*
X423370Y565048D01*
X423370D01*
X424337Y567382D01*
X424361Y567439D01*
X424325Y567525D01*
X424323Y567523D01*
X422729Y569873D01*
X422694Y569958D01*
X422742Y570073D01*
X422742Y570073D01*
X422750Y570064D01*
X424750Y572081D01*
X424865Y572129D01*
X424951Y572094D01*
X424949Y572091D01*
X427298Y570498D01*
X427384Y570462D01*
X427441Y570486D01*
X427441D01*
X429775Y571453D01*
X429833Y571477D01*
X429868Y571563D01*
X429865Y571563D01*
X430400Y574351D01*
X430435Y574436D01*
X430550Y574484D01*
Y574472D01*
X433391Y574484D01*
X433505Y574436D01*
D02*
G37*
D33*
X293236Y368500D02*
G03*
X293236Y368500I-2236J0D01*
G01*
X279950Y374500D02*
X339950D01*
X279950Y510000D02*
X339950D01*
X285950Y427250D02*
Y457750D01*
X339950Y374500D02*
Y510000D01*
X279950Y421250D02*
X285950Y427250D01*
X279950Y374500D02*
Y421250D01*
Y463750D02*
X285950Y457750D01*
X279950Y463750D02*
Y510000D01*
D34*
X429750Y809000D02*
G03*
X429750Y809000I-1250J0D01*
G01*
D35*
X512000Y840049D02*
G03*
X502000Y850049I-10000J0D01*
G01*
X512000Y840049D02*
G03*
X514500Y837549I2500J0D01*
G01*
X362549Y850049D02*
G03*
X352549Y840049I0J-10000D01*
G01*
X350049Y837549D02*
G03*
X352549Y840049I0J2500D01*
G01*
X182500Y410000D02*
X242400Y350100D01*
X622600D01*
X182500Y410000D02*
Y837500D01*
X622600Y350100D02*
X682500Y410000D01*
Y837549D01*
X182500Y837500D02*
X350049D01*
X514500Y837549D02*
X667500D01*
X682500D01*
X362549Y850049D02*
X502000D01*
D36*
X495420Y437730D02*
G03*
X517100Y428750I21680J21680D01*
G01*
X491700Y446711D02*
G03*
X495420Y437730I12700J0D01*
G01*
X491700Y492250D02*
G03*
X482720Y513930I-30661J0D01*
G01*
X475280Y521370D02*
G03*
X453600Y530350I-21680J-21680D01*
G01*
X415500D02*
G03*
X393820Y521370I0J-30661D01*
G01*
X386380Y513930D02*
G03*
X377400Y492250I21680J-21680D01*
G01*
X368420Y457870D02*
G03*
X377400Y479550I-21680J21680D01*
G01*
X359439Y454150D02*
G03*
X368420Y457870I0J12700D01*
G01*
X517100Y428750D02*
X587250D01*
X491700Y446711D02*
Y492250D01*
X475280Y521370D02*
X482720Y513930D01*
X415500Y530350D02*
X453600D01*
X386380Y513930D02*
X393820Y521370D01*
X377400Y479550D02*
Y492250D01*
X251000Y454150D02*
X359439D01*
D56*
X438992Y553614D02*
G03*
X439182Y553633I84J124D01*
G01*
X424759D02*
G03*
X424949Y553614I106J106D01*
G01*
X433343Y559871D02*
G03*
X433267Y559678I63J-136D01*
G01*
X435235Y554858D02*
G03*
X435431Y554776I139J57D01*
G01*
X436641Y555205D02*
G03*
X436500Y555219I-84J-124D01*
G01*
X441191Y555641D02*
G03*
X441209Y555831I-106J106D01*
G01*
X439604Y558323D02*
G03*
X439618Y558182I139J-57D01*
G01*
X440681Y560747D02*
G03*
X440571Y560658I28J-147D01*
G01*
X443468Y561285D02*
G03*
X443590Y561432I-28J147D01*
G01*
Y564273D02*
G03*
X443468Y564420I-150J0D01*
G01*
X440571Y565048D02*
G03*
X440681Y564958I139J57D01*
G01*
X439618Y567523D02*
G03*
X439604Y567382I124J-84D01*
G01*
X441209Y569874D02*
G03*
X441191Y570064I-124J84D01*
G01*
X439182Y572073D02*
G03*
X438992Y572091I-106J-106D01*
G01*
X436500Y570486D02*
G03*
X436641Y570501I57J139D01*
G01*
X434076Y571563D02*
G03*
X434165Y571453I147J28D01*
G01*
X433538Y574350D02*
G03*
X433391Y574472I-147J-28D01*
G01*
X430550D02*
G03*
X430403Y574350I0J-150D01*
G01*
X429775Y571453D02*
G03*
X429865Y571563I-57J139D01*
G01*
X427300Y570501D02*
G03*
X427441Y570486I84J124D01*
G01*
X424949Y572091D02*
G03*
X424759Y572073I-84J-124D01*
G01*
X422750Y570064D02*
G03*
X422732Y569874I106J-106D01*
G01*
X424337Y567382D02*
G03*
X424323Y567523I-139J57D01*
G01*
X423260Y564958D02*
G03*
X423370Y565048I-28J147D01*
G01*
X420473Y564420D02*
G03*
X420351Y564273I28J-147D01*
G01*
Y561432D02*
G03*
X420473Y561285I150J0D01*
G01*
X423370Y560658D02*
G03*
X423260Y560747I-139J-57D01*
G01*
X424323Y558182D02*
G03*
X424337Y558323I-124J84D01*
G01*
X422732Y555831D02*
G03*
X422750Y555641I124J-84D01*
G01*
X427441Y555219D02*
G03*
X427300Y555205I-57J-139D01*
G01*
X428510Y554776D02*
G03*
X428706Y554858I57J139D01*
G01*
X430674Y559678D02*
G03*
X430598Y559871I-139J57D01*
G01*
X433343D02*
G03*
X430598Y559871I-1372J2982D01*
G01*
X433267Y559678D02*
X435235Y554858D01*
X435431Y554776D02*
X436500Y555219D01*
X436641Y555205D02*
X438992Y553614D01*
X439182Y553633D02*
X441191Y555641D01*
X439618Y558182D02*
X441209Y555831D01*
X439604Y558323D02*
X440571Y560658D01*
X440681Y560747D02*
X443468Y561285D01*
X443590Y561432D02*
Y564273D01*
X440681Y564958D02*
X443468Y564420D01*
X439604Y567382D02*
X440571Y565048D01*
X439618Y567523D02*
X441209Y569874D01*
X439182Y572073D02*
X441191Y570064D01*
X436641Y570501D02*
X438992Y572091D01*
X434165Y571453D02*
X436500Y570486D01*
X433538Y574350D02*
X434076Y571563D01*
X430550Y574472D02*
X433391D01*
X429865Y571563D02*
X430403Y574350D01*
X427441Y570486D02*
X429775Y571453D01*
X424949Y572091D02*
X427300Y570501D01*
X422750Y570064D02*
X424759Y572073D01*
X422732Y569874D02*
X424323Y567523D01*
X423370Y565048D02*
X424337Y567382D01*
X420473Y564420D02*
X423260Y564958D01*
X420351Y561432D02*
Y564273D01*
X420473Y561285D02*
X423260Y560747D01*
X423370Y560658D02*
X424337Y558323D01*
X422732Y555831D02*
X424323Y558182D01*
X422750Y555641D02*
X424759Y553633D01*
X424949Y553614D02*
X427300Y555205D01*
X427441Y555219D02*
X428510Y554776D01*
X428706Y554858D02*
X430674Y559678D01*
D57*
X230500Y644000D02*
X236500D01*
Y662000D01*
X230500D02*
X236500D01*
X206500Y644000D02*
X212500D01*
X206500D02*
Y662000D01*
X212500D01*
X206500Y640000D02*
X212500D01*
X206500Y622000D02*
Y640000D01*
Y622000D02*
X212500D01*
X230500Y640000D02*
X236500D01*
Y622000D02*
Y640000D01*
X230500Y622000D02*
X236500D01*
X206500Y684667D02*
X212500D01*
X206500Y666667D02*
Y684667D01*
Y666667D02*
X212500D01*
X230500Y684667D02*
X236500D01*
Y666667D02*
Y684667D01*
X230500Y666667D02*
X236500D01*
X387500Y710000D02*
X393500D01*
X387500Y692000D02*
Y710000D01*
Y692000D02*
X393500D01*
X411500Y710000D02*
X417500D01*
Y692000D02*
Y710000D01*
X411500Y692000D02*
X417500D01*
X356000Y656500D02*
Y662500D01*
X338000D02*
X356000D01*
X338000Y656500D02*
Y662500D01*
X356000Y632500D02*
Y638500D01*
X338000Y632500D02*
X356000D01*
X338000D02*
Y638500D01*
X225250Y735750D02*
Y741750D01*
Y735750D02*
X243250D01*
Y741750D01*
X225250Y759750D02*
Y765750D01*
X243250D01*
Y759750D02*
Y765750D01*
X319000Y623000D02*
X325000D01*
X319000Y605000D02*
Y623000D01*
Y605000D02*
X325000D01*
X343000Y623000D02*
X349000D01*
Y605000D02*
Y623000D01*
X343000Y605000D02*
X349000D01*
X361000Y641000D02*
X367000D01*
X361000Y623000D02*
Y641000D01*
Y623000D02*
X367000D01*
X385000Y641000D02*
X391000D01*
Y623000D02*
Y641000D01*
X385000Y623000D02*
X391000D01*
X385000Y601000D02*
X391000D01*
Y619000D01*
X385000D02*
X391000D01*
X361000Y601000D02*
X367000D01*
X361000D02*
Y619000D01*
X367000D01*
X475500Y743000D02*
X481500D01*
Y761000D01*
X475500D02*
X481500D01*
X451500Y743000D02*
X457500D01*
X451500D02*
Y761000D01*
X457500D01*
X350000Y694000D02*
Y700000D01*
X332000D02*
X350000D01*
X332000Y694000D02*
Y700000D01*
X350000Y670000D02*
Y676000D01*
X332000Y670000D02*
X350000D01*
X332000D02*
Y676000D01*
X256049Y710790D02*
X262049D01*
Y728790D01*
X256049D02*
X262049D01*
X232049Y710790D02*
X238049D01*
X232049D02*
Y728790D01*
X238049D01*
X239000Y662333D02*
X245000D01*
X239000Y644333D02*
Y662333D01*
Y644333D02*
X245000D01*
X263000Y662333D02*
X269000D01*
Y644333D02*
Y662333D01*
X263000Y644333D02*
X269000D01*
X475500Y723000D02*
X481500D01*
Y741000D01*
X475500D02*
X481500D01*
X451500Y723000D02*
X457500D01*
X451500D02*
Y741000D01*
X457500D01*
X218500Y562500D02*
Y568500D01*
Y562500D02*
X236500D01*
Y568500D01*
X218500Y586500D02*
Y592500D01*
X236500D01*
Y586500D02*
Y592500D01*
X430500Y450000D02*
Y456000D01*
X412500D02*
X430500D01*
X412500Y450000D02*
Y456000D01*
X430500Y426000D02*
Y432000D01*
X412500Y426000D02*
X430500D01*
X412500D02*
Y432000D01*
X290600Y516750D02*
Y522750D01*
Y516750D02*
X308600D01*
Y522750D01*
X290600Y540750D02*
Y546750D01*
X308600D01*
Y540750D02*
Y546750D01*
X356000Y567000D02*
Y573000D01*
Y567000D02*
X374000D01*
Y573000D01*
X356000Y591000D02*
Y597000D01*
X374000D01*
Y591000D02*
Y597000D01*
X332000Y701500D02*
Y707500D01*
Y701500D02*
X350000D01*
Y707500D01*
X332000Y725500D02*
Y731500D01*
X350000D01*
Y725500D02*
Y731500D01*
X239000Y707000D02*
X245000D01*
X239000Y689000D02*
Y707000D01*
Y689000D02*
X245000D01*
X263000Y707000D02*
X269000D01*
Y689000D02*
Y707000D01*
X263000Y689000D02*
X269000D01*
X312000Y701500D02*
Y707500D01*
Y701500D02*
X330000D01*
Y707500D01*
X312000Y725500D02*
Y731500D01*
X330000D01*
Y725500D02*
Y731500D01*
X310400Y516750D02*
Y522750D01*
Y516750D02*
X328400D01*
Y522750D01*
X310400Y540750D02*
Y546750D01*
X328400D01*
Y540750D02*
Y546750D01*
X330000Y694000D02*
Y700000D01*
X312000D02*
X330000D01*
X312000Y694000D02*
Y700000D01*
X330000Y670000D02*
Y676000D01*
X312000Y670000D02*
X330000D01*
X312000D02*
Y676000D01*
X451500Y450000D02*
Y456000D01*
X433500D02*
X451500D01*
X433500Y450000D02*
Y456000D01*
X451500Y426000D02*
Y432000D01*
X433500Y426000D02*
X451500D01*
X433500D02*
Y432000D01*
X290000Y553000D02*
Y559000D01*
Y553000D02*
X308000D01*
Y559000D01*
X290000Y577000D02*
Y583000D01*
X308000D01*
Y577000D02*
Y583000D01*
X239000Y684667D02*
X245000D01*
X239000Y666667D02*
Y684667D01*
Y666667D02*
X245000D01*
X263000Y684667D02*
X269000D01*
Y666667D02*
Y684667D01*
X263000Y666667D02*
X269000D01*
X239000Y640000D02*
X245000D01*
X239000Y622000D02*
Y640000D01*
Y622000D02*
X245000D01*
X263000Y640000D02*
X269000D01*
Y622000D02*
Y640000D01*
X263000Y622000D02*
X269000D01*
X270800Y516750D02*
Y522750D01*
Y516750D02*
X288800D01*
Y522750D01*
X270800Y540750D02*
Y546750D01*
X288800D01*
Y540750D02*
Y546750D01*
X276000Y707000D02*
X282000D01*
X276000Y689000D02*
Y707000D01*
Y689000D02*
X282000D01*
X300000Y707000D02*
X306000D01*
Y689000D02*
Y707000D01*
X300000Y689000D02*
X306000D01*
X330200Y516750D02*
Y522750D01*
Y516750D02*
X348200D01*
Y522750D01*
X330200Y540750D02*
Y546750D01*
X348200D01*
Y540750D02*
Y546750D01*
X251000Y516750D02*
Y522750D01*
Y516750D02*
X269000D01*
Y522750D01*
X251000Y540750D02*
Y546750D01*
X269000D01*
Y540750D02*
Y546750D01*
X350000Y516750D02*
Y522750D01*
Y516750D02*
X368000D01*
Y522750D01*
X350000Y540750D02*
Y546750D01*
X368000D01*
Y540750D02*
Y546750D01*
D58*
X399976Y715924D02*
Y721924D01*
Y715924D02*
X408088D01*
X399976Y738052D02*
Y744148D01*
X408088D01*
X364976Y715924D02*
Y721924D01*
Y715924D02*
X373088D01*
X364976Y738052D02*
Y744148D01*
X373088D01*
X264576Y597476D02*
X270576D01*
Y605588D01*
X242352Y597476D02*
X248448D01*
X242352D02*
Y605588D01*
Y562476D02*
Y570588D01*
Y562476D02*
X248448D01*
X270576D02*
Y570588D01*
X264576Y562476D02*
X270576D01*
X521436Y742710D02*
X527436D01*
Y750822D01*
X499212Y742710D02*
X505308D01*
X499212D02*
Y750822D01*
X337855Y562315D02*
Y567685D01*
X325455Y579224D02*
X334045D01*
X325455Y550776D02*
X334045D01*
X296855Y747315D02*
Y752685D01*
X284455Y764224D02*
X293045D01*
X284455Y735776D02*
X293045D01*
X499212Y779460D02*
Y787572D01*
Y779460D02*
X505308D01*
X527436D02*
Y787572D01*
X521436Y779460D02*
X527436D01*
X374148Y418412D02*
Y426524D01*
X368052D02*
X374148D01*
X345924Y418412D02*
Y426524D01*
X351924D01*
X287315Y633895D02*
X292684D01*
X304224Y637705D02*
Y646295D01*
X275776Y637705D02*
Y646295D01*
X444224Y660705D02*
Y669295D01*
X415776Y660705D02*
Y669295D01*
X427315Y673105D02*
X432685D01*
D59*
X378500Y652000D02*
Y688000D01*
X358500Y652000D02*
X378500D01*
X358500D02*
Y688000D01*
X378500D01*
X518250Y572750D02*
Y608750D01*
X538250D01*
Y572750D02*
Y608750D01*
X518250Y572750D02*
X538250D01*
X617250Y557750D02*
Y593750D01*
X597250Y557750D02*
X617250D01*
X597250D02*
Y593750D01*
X617250D01*
X334000Y629000D02*
Y665000D01*
X314000Y629000D02*
X334000D01*
X314000D02*
Y665000D01*
X334000D01*
X421500Y597000D02*
X457500D01*
Y577000D02*
Y597000D01*
X421500Y577000D02*
X457500D01*
X421500D02*
Y597000D01*
X391000Y644000D02*
Y680000D01*
X411000D01*
Y644000D02*
Y680000D01*
X391000Y644000D02*
X411000D01*
X317500Y735334D02*
Y771334D01*
X337500D01*
Y735334D02*
Y771334D01*
X317500Y735334D02*
X337500D01*
X275000Y617500D02*
X311000D01*
Y597500D02*
Y617500D01*
X275000Y597500D02*
X311000D01*
X275000D02*
Y617500D01*
X554250Y519750D02*
X590250D01*
Y499750D02*
Y519750D01*
X554250Y499750D02*
X590250D01*
X554250D02*
Y519750D01*
X538250Y521500D02*
Y557500D01*
X518250Y521500D02*
X538250D01*
X518250D02*
Y557500D01*
X538250D01*
X516000Y521250D02*
Y557250D01*
X496000Y521250D02*
X516000D01*
X496000D02*
Y557250D01*
X516000D01*
X266500Y732000D02*
Y768000D01*
X246500Y732000D02*
X266500D01*
X246500D02*
Y768000D01*
X266500D01*
X239500Y507500D02*
X275500D01*
Y487500D02*
Y507500D01*
X239500Y487500D02*
X275500D01*
X239500D02*
Y507500D01*
X275000Y377000D02*
Y413000D01*
X255000Y377000D02*
X275000D01*
X255000D02*
Y413000D01*
X275000D01*
X273430Y730730D02*
X309430D01*
Y710730D02*
Y730730D01*
X273430Y710730D02*
X309430D01*
X273430D02*
Y730730D01*
X597340Y605966D02*
Y642034D01*
X617660Y605966D02*
Y642034D01*
X597340Y605966D02*
X617660D01*
X597340Y642034D02*
X617660D01*
X506966Y392160D02*
X543034D01*
X506966Y371840D02*
X543034D01*
X506966D02*
Y392160D01*
X543034Y371840D02*
Y392160D01*
X419500Y772200D02*
Y787800D01*
X435500Y772200D02*
Y787800D01*
Y803000D01*
X419500Y787800D02*
Y803000D01*
X435500D01*
Y757000D02*
Y772200D01*
X419500Y757000D02*
X435500D01*
X419500D02*
Y772200D01*
Y790000D02*
X435500D01*
X504160Y371966D02*
Y408034D01*
X483840Y371966D02*
Y408034D01*
X504160D01*
X483840Y371966D02*
X504160D01*
X517000Y416000D02*
Y444000D01*
X594750Y549750D02*
X617000D01*
Y504250D02*
Y549750D01*
X594750Y504250D02*
X617000D01*
X594750D02*
Y549750D01*
X541750Y492750D02*
X564000D01*
Y447250D02*
Y492750D01*
X541750Y447250D02*
X564000D01*
X541750D02*
Y492750D01*
X454700Y787000D02*
X470300D01*
X454700Y803000D02*
X470300D01*
X439500D02*
X454700D01*
X439500Y787000D02*
X454700D01*
X439500D02*
Y803000D01*
X470300D02*
X485500D01*
Y787000D02*
Y803000D01*
X470300Y787000D02*
X485500D01*
X452500D02*
Y803000D01*
X397000Y561000D02*
Y597000D01*
X377000Y561000D02*
X397000D01*
X377000D02*
Y597000D01*
X397000D01*
X316750Y603000D02*
X352750D01*
Y583000D02*
Y603000D01*
X316750Y583000D02*
X352750D01*
X316750D02*
Y603000D01*
X410534Y789840D02*
Y810160D01*
X374466Y789840D02*
Y810160D01*
Y789840D02*
X410534D01*
X374466Y810160D02*
X410534D01*
X347340Y771966D02*
X367660D01*
X347340Y808034D02*
X367660D01*
X347340Y771966D02*
Y808034D01*
X367660Y771966D02*
Y808034D01*
X489707Y618176D02*
X510027D01*
X489707Y654244D02*
X510027D01*
X489707Y618176D02*
Y654244D01*
X510027Y618176D02*
Y654244D01*
X514283Y618176D02*
X534603D01*
X514283Y654244D02*
X534603D01*
X514283Y618176D02*
Y654244D01*
X534603Y618176D02*
Y654244D01*
X563437Y618176D02*
X583757D01*
X563437Y654244D02*
X583757D01*
X563437Y618176D02*
Y654244D01*
X583757Y618176D02*
Y654244D01*
X538860Y618176D02*
X559180D01*
X538860Y654244D02*
X559180D01*
X538860Y618176D02*
Y654244D01*
X559180Y618176D02*
Y654244D01*
X495680Y608784D02*
X516000D01*
X495680Y572716D02*
X516000D01*
Y608784D01*
X495680Y572716D02*
Y608784D01*
X489707Y701744D02*
X510027D01*
X489707Y665676D02*
X510027D01*
Y701744D01*
X489707Y665676D02*
Y701744D01*
X514283D02*
X534603D01*
X514283Y665676D02*
X534603D01*
Y701744D01*
X514283Y665676D02*
Y701744D01*
X563437D02*
X583757D01*
X563437Y665676D02*
X583757D01*
Y701744D01*
X563437Y665676D02*
Y701744D01*
X538860D02*
X559180D01*
X538860Y665676D02*
X559180D01*
Y701744D01*
X538860Y665676D02*
Y701744D01*
X450500Y404000D02*
Y424000D01*
X414500D02*
X450500D01*
X414500Y404000D02*
Y424000D01*
Y404000D02*
X450500D01*
X545840Y377966D02*
X566160D01*
X545840Y414034D02*
X566160D01*
X545840Y377966D02*
Y414034D01*
X566160Y377966D02*
Y414034D01*
M02*
