G04*
G04 #@! TF.GenerationSoftware,Altium Limited,CircuitStudio,1.5.2 (1.5.2.30)*
G04*
G04 Layer_Color=16770453*
%FSLAX44Y44*%
%MOMM*%
G71*
G01*
G75*
%ADD31R,2.4130X5.0800*%
%ADD35C,0.5000*%
%ADD36C,2.5000*%
%ADD53R,0.2540X0.2540*%
%ADD54R,2.2860X5.0800*%
G04:AMPARAMS|DCode=55|XSize=2.2mm|YSize=1.2mm|CornerRadius=0.3mm|HoleSize=0mm|Usage=FLASHONLY|Rotation=270.000|XOffset=0mm|YOffset=0mm|HoleType=Round|Shape=RoundedRectangle|*
%AMROUNDEDRECTD55*
21,1,2.2000,0.6000,0,0,270.0*
21,1,1.6000,1.2000,0,0,270.0*
1,1,0.6000,-0.3000,-0.8000*
1,1,0.6000,-0.3000,0.8000*
1,1,0.6000,0.3000,0.8000*
1,1,0.6000,0.3000,-0.8000*
%
%ADD55ROUNDEDRECTD55*%
D31*
X326315Y807000D02*
D03*
X238685D02*
D03*
D35*
X512000Y840049D02*
G03*
X502000Y850049I-10000J0D01*
G01*
X512000Y840049D02*
G03*
X514500Y837549I2500J0D01*
G01*
X362549Y850049D02*
G03*
X352549Y840049I0J-10000D01*
G01*
X350049Y837549D02*
G03*
X352549Y840049I0J2500D01*
G01*
X182500Y410000D02*
X242400Y350100D01*
X622600D01*
X182500Y410000D02*
Y837500D01*
X622600Y350100D02*
X682500Y410000D01*
Y837549D01*
X182500Y837500D02*
X350049D01*
X514500Y837549D02*
X667500D01*
X682500D01*
X362549Y850049D02*
X502000D01*
D36*
X495420Y437730D02*
G03*
X517100Y428750I21680J21680D01*
G01*
X491700Y446711D02*
G03*
X495420Y437730I12700J0D01*
G01*
X491700Y492250D02*
G03*
X482720Y513930I-30661J0D01*
G01*
X475280Y521370D02*
G03*
X453600Y530350I-21680J-21680D01*
G01*
X415500D02*
G03*
X393820Y521370I0J-30661D01*
G01*
X386380Y513930D02*
G03*
X377400Y492250I21680J-21680D01*
G01*
X368420Y457870D02*
G03*
X377400Y479550I-21680J21680D01*
G01*
X359439Y454150D02*
G03*
X368420Y457870I0J12700D01*
G01*
X517100Y428750D02*
X587250D01*
X491700Y446711D02*
Y492250D01*
X475280Y521370D02*
X482720Y513930D01*
X415500Y530350D02*
X453600D01*
X386380Y513930D02*
X393820Y521370D01*
X377400Y479550D02*
Y492250D01*
X251000Y454150D02*
X359439D01*
D53*
X432500Y468000D02*
D03*
Y462000D02*
D03*
D54*
X282500Y807000D02*
D03*
D55*
X591750Y624500D02*
D03*
Y698500D02*
D03*
X616750Y624500D02*
D03*
Y698500D02*
D03*
M02*
