G04*
G04 #@! TF.GenerationSoftware,Altium Limited,CircuitStudio,1.5.2 (1.5.2.30)*
G04*
G04 Layer_Color=8150272*
%FSLAX44Y44*%
%MOMM*%
G71*
G01*
G75*
%ADD35C,0.5000*%
%ADD36C,2.5000*%
%ADD60R,2.5000X27.5000*%
%ADD82R,2.6162X5.2832*%
%ADD84C,1.7272*%
%ADD85R,2.2032X1.7032*%
%ADD86C,2.2032*%
%ADD87O,2.2032X1.7032*%
%ADD88C,2.7432*%
%ADD89O,2.2032X3.2032*%
%ADD90C,1.7032*%
G04:AMPARAMS|DCode=91|XSize=2.2032mm|YSize=4.2032mm|CornerRadius=0.6016mm|HoleSize=0mm|Usage=FLASHONLY|Rotation=180.000|XOffset=0mm|YOffset=0mm|HoleType=Round|Shape=RoundedRectangle|*
%AMROUNDEDRECTD91*
21,1,2.2032,3.0000,0,0,180.0*
21,1,1.0000,4.2032,0,0,180.0*
1,1,1.2032,-0.5000,1.5000*
1,1,1.2032,0.5000,1.5000*
1,1,1.2032,0.5000,-1.5000*
1,1,1.2032,-0.5000,-1.5000*
%
%ADD91ROUNDEDRECTD91*%
G04:AMPARAMS|DCode=92|XSize=2.2032mm|YSize=4.7032mm|CornerRadius=0.6016mm|HoleSize=0mm|Usage=FLASHONLY|Rotation=270.000|XOffset=0mm|YOffset=0mm|HoleType=Round|Shape=RoundedRectangle|*
%AMROUNDEDRECTD92*
21,1,2.2032,3.5000,0,0,270.0*
21,1,1.0000,4.7032,0,0,270.0*
1,1,1.2032,-1.7500,-0.5000*
1,1,1.2032,-1.7500,0.5000*
1,1,1.2032,1.7500,0.5000*
1,1,1.2032,1.7500,-0.5000*
%
%ADD92ROUNDEDRECTD92*%
G04:AMPARAMS|DCode=93|XSize=2.2032mm|YSize=4.2032mm|CornerRadius=0.6016mm|HoleSize=0mm|Usage=FLASHONLY|Rotation=90.000|XOffset=0mm|YOffset=0mm|HoleType=Round|Shape=RoundedRectangle|*
%AMROUNDEDRECTD93*
21,1,2.2032,3.0000,0,0,90.0*
21,1,1.0000,4.2032,0,0,90.0*
1,1,1.2032,1.5000,0.5000*
1,1,1.2032,1.5000,-0.5000*
1,1,1.2032,-1.5000,-0.5000*
1,1,1.2032,-1.5000,0.5000*
%
%ADD93ROUNDEDRECTD93*%
%ADD94C,1.5032*%
G04:AMPARAMS|DCode=95|XSize=1.5032mm|YSize=1.5032mm|CornerRadius=0.4266mm|HoleSize=0mm|Usage=FLASHONLY|Rotation=180.000|XOffset=0mm|YOffset=0mm|HoleType=Round|Shape=RoundedRectangle|*
%AMROUNDEDRECTD95*
21,1,1.5032,0.6500,0,0,180.0*
21,1,0.6500,1.5032,0,0,180.0*
1,1,0.8532,-0.3250,0.3250*
1,1,0.8532,0.3250,0.3250*
1,1,0.8532,0.3250,-0.3250*
1,1,0.8532,-0.3250,-0.3250*
%
%ADD95ROUNDEDRECTD95*%
%ADD96C,0.8032*%
%ADD97C,0.9532*%
%ADD98C,1.4532*%
%ADD99C,1.4032*%
%ADD100R,0.4572X0.4572*%
%ADD101R,2.4892X5.2832*%
G04:AMPARAMS|DCode=102|XSize=2.4032mm|YSize=1.4032mm|CornerRadius=0.4016mm|HoleSize=0mm|Usage=FLASHONLY|Rotation=270.000|XOffset=0mm|YOffset=0mm|HoleType=Round|Shape=RoundedRectangle|*
%AMROUNDEDRECTD102*
21,1,2.4032,0.6000,0,0,270.0*
21,1,1.6000,1.4032,0,0,270.0*
1,1,0.8032,-0.3000,-0.8000*
1,1,0.8032,-0.3000,0.8000*
1,1,0.8032,0.3000,0.8000*
1,1,0.8032,0.3000,-0.8000*
%
%ADD102ROUNDEDRECTD102*%
D35*
X512000Y840049D02*
G03*
X502000Y850049I-10000J0D01*
G01*
X512000Y840049D02*
G03*
X514500Y837549I2500J0D01*
G01*
X362549Y850049D02*
G03*
X352549Y840049I0J-10000D01*
G01*
X350049Y837549D02*
G03*
X352549Y840049I0J2500D01*
G01*
X182500Y410000D02*
X242400Y350100D01*
X622600D01*
X182500Y410000D02*
Y837500D01*
X622600Y350100D02*
X682500Y410000D01*
Y837549D01*
X182500Y837500D02*
X350049D01*
X514500Y837549D02*
X667500D01*
X682500D01*
X362549Y850049D02*
X502000D01*
D36*
X495420Y437730D02*
G03*
X517100Y428750I21680J21680D01*
G01*
X491700Y446711D02*
G03*
X495420Y437730I12700J0D01*
G01*
X491700Y492250D02*
G03*
X482720Y513930I-30661J0D01*
G01*
X475280Y521370D02*
G03*
X453600Y530350I-21680J-21680D01*
G01*
X415500D02*
G03*
X393820Y521370I0J-30661D01*
G01*
X386380Y513930D02*
G03*
X377400Y492250I21680J-21680D01*
G01*
X368420Y457870D02*
G03*
X377400Y479550I-21680J21680D01*
G01*
X359439Y454150D02*
G03*
X368420Y457870I0J12700D01*
G01*
X517100Y428750D02*
X587250D01*
X491700Y446711D02*
Y492250D01*
X475280Y521370D02*
X482720Y513930D01*
X415500Y530350D02*
X453600D01*
X386380Y513930D02*
X393820Y521370D01*
X377400Y479550D02*
Y492250D01*
X251000Y454150D02*
X359439D01*
D60*
X200000Y692500D02*
D03*
D82*
X326315Y807000D02*
D03*
X238685D02*
D03*
D84*
X517000Y455000D02*
D03*
Y405000D02*
D03*
X632500Y410000D02*
D03*
X232500D02*
D03*
X491000Y716250D02*
D03*
X541000D02*
D03*
D85*
X578250Y466850D02*
D03*
D86*
Y441450D02*
D03*
Y416050D02*
D03*
D87*
Y390650D02*
D03*
D88*
X407100Y390000D02*
D03*
X457900D02*
D03*
D89*
X493500Y827500D02*
D03*
X371500D02*
D03*
D90*
X472500D02*
D03*
X452500D02*
D03*
X432500D02*
D03*
X392500D02*
D03*
D91*
X619500Y762500D02*
D03*
D92*
X572500Y732500D02*
D03*
D93*
Y792500D02*
D03*
D94*
X459800Y777000D02*
D03*
X379800D02*
D03*
D95*
X485200D02*
D03*
X405200D02*
D03*
D96*
X426500Y730000D02*
D03*
X425500Y710000D02*
D03*
X219500Y515000D02*
D03*
X445500Y551000D02*
D03*
X510500Y493000D02*
D03*
Y471000D02*
D03*
X646500Y506000D02*
D03*
Y473000D02*
D03*
Y440000D02*
D03*
Y539000D02*
D03*
X473500Y551000D02*
D03*
X417500D02*
D03*
X376500Y537000D02*
D03*
X354500Y489000D02*
D03*
X219500Y536000D02*
D03*
Y494000D02*
D03*
Y473000D02*
D03*
X268500Y513000D02*
D03*
X280500Y498000D02*
D03*
X327250Y555250D02*
D03*
X350500Y685000D02*
D03*
X373500Y731000D02*
D03*
X408500Y732000D02*
D03*
X493678Y759822D02*
D03*
X327500Y417500D02*
D03*
X297500Y422500D02*
D03*
X285000Y407500D02*
D03*
X345000Y387500D02*
D03*
X432500Y440000D02*
D03*
Y470000D02*
D03*
X316350Y408850D02*
D03*
X303650Y408748D02*
D03*
X280000Y385000D02*
D03*
X329050Y511550D02*
D03*
X245000Y515000D02*
D03*
X427500Y603000D02*
D03*
X580000Y605750D02*
D03*
X590000D02*
D03*
X312500Y759502D02*
D03*
Y750000D02*
D03*
X284875Y590500D02*
D03*
X309382Y631000D02*
D03*
X309000Y654000D02*
D03*
X290000Y644000D02*
D03*
X365000Y557000D02*
D03*
X246049Y719790D02*
D03*
X327000Y568000D02*
D03*
X442500Y441000D02*
D03*
X421500D02*
D03*
X429500Y641500D02*
D03*
X428000Y678000D02*
D03*
X506250Y539249D02*
D03*
X298001Y590499D02*
D03*
X347250Y565000D02*
D03*
X539250Y529090D02*
D03*
X528500Y539500D02*
D03*
X605750Y532750D02*
D03*
Y522250D02*
D03*
X552750Y472000D02*
D03*
X536000Y405660D02*
D03*
X264500Y807500D02*
D03*
X304500D02*
D03*
X506000Y564500D02*
D03*
X528250Y564750D02*
D03*
X587250Y565749D02*
D03*
X569750Y590750D02*
D03*
X532250D02*
D03*
X607250Y600750D02*
D03*
X569750Y605750D02*
D03*
X234250Y769751D02*
D03*
X256500Y773000D02*
D03*
X376000Y610000D02*
D03*
Y632000D02*
D03*
X449500Y665000D02*
D03*
X539250Y550500D02*
D03*
X282500Y787750D02*
D03*
X548250Y509750D02*
D03*
X355000Y612500D02*
D03*
X312500Y622500D02*
D03*
X197500Y815000D02*
D03*
Y800000D02*
D03*
Y785000D02*
D03*
Y740000D02*
D03*
Y755000D02*
D03*
Y770000D02*
D03*
Y695000D02*
D03*
Y710000D02*
D03*
Y725000D02*
D03*
Y650000D02*
D03*
Y665000D02*
D03*
Y680000D02*
D03*
Y605000D02*
D03*
Y620000D02*
D03*
Y635000D02*
D03*
Y560000D02*
D03*
Y575000D02*
D03*
Y590000D02*
D03*
X602500Y675000D02*
D03*
Y665000D02*
D03*
Y655000D02*
D03*
X591750Y674250D02*
D03*
Y665000D02*
D03*
Y655000D02*
D03*
D97*
X602500Y815000D02*
D03*
X227500Y577500D02*
D03*
X401000Y661000D02*
D03*
X499867Y660000D02*
D03*
X524443D02*
D03*
X549020D02*
D03*
X573597D02*
D03*
D98*
X578250Y450336D02*
D03*
Y407164D02*
D03*
D99*
X427500Y780000D02*
D03*
D100*
X432500Y468000D02*
D03*
Y462000D02*
D03*
D101*
X282500Y807000D02*
D03*
D102*
X591750Y624500D02*
D03*
Y698500D02*
D03*
X616750Y624500D02*
D03*
Y698500D02*
D03*
M02*
