G04*
G04 #@! TF.GenerationSoftware,Altium Limited,CircuitStudio,1.5.2 (1.5.2.30)*
G04*
G04 Layer_Color=7318015*
%FSLAX44Y44*%
%MOMM*%
G71*
G01*
G75*
%ADD10R,1.3000X1.6000*%
%ADD11R,1.0000X1.5240*%
%ADD12R,0.7000X1.3000*%
%ADD13R,0.9144X0.8128*%
%ADD14R,0.8128X0.9144*%
%ADD15R,0.6000X1.8000*%
%ADD16R,1.5240X1.0000*%
%ADD17R,1.3000X0.7000*%
G04:AMPARAMS|DCode=18|XSize=1.6mm|YSize=1.5mm|CornerRadius=0.375mm|HoleSize=0mm|Usage=FLASHONLY|Rotation=270.000|XOffset=0mm|YOffset=0mm|HoleType=Round|Shape=RoundedRectangle|*
%AMROUNDEDRECTD18*
21,1,1.6000,0.7500,0,0,270.0*
21,1,0.8500,1.5000,0,0,270.0*
1,1,0.7500,-0.3750,-0.4250*
1,1,0.7500,-0.3750,0.4250*
1,1,0.7500,0.3750,0.4250*
1,1,0.7500,0.3750,-0.4250*
%
%ADD18ROUNDEDRECTD18*%
G04:AMPARAMS|DCode=19|XSize=1.2mm|YSize=1.2mm|CornerRadius=0.3mm|HoleSize=0mm|Usage=FLASHONLY|Rotation=270.000|XOffset=0mm|YOffset=0mm|HoleType=Round|Shape=RoundedRectangle|*
%AMROUNDEDRECTD19*
21,1,1.2000,0.6000,0,0,270.0*
21,1,0.6000,1.2000,0,0,270.0*
1,1,0.6000,-0.3000,-0.3000*
1,1,0.6000,-0.3000,0.3000*
1,1,0.6000,0.3000,0.3000*
1,1,0.6000,0.3000,-0.3000*
%
%ADD19ROUNDEDRECTD19*%
%ADD20R,1.6000X1.3000*%
%ADD21R,1.2200X0.9100*%
%ADD22R,1.6000X3.5000*%
G04:AMPARAMS|DCode=23|XSize=1.6mm|YSize=3.5mm|CornerRadius=0.2mm|HoleSize=0mm|Usage=FLASHONLY|Rotation=0.000|XOffset=0mm|YOffset=0mm|HoleType=Round|Shape=RoundedRectangle|*
%AMROUNDEDRECTD23*
21,1,1.6000,3.1000,0,0,0.0*
21,1,1.2000,3.5000,0,0,0.0*
1,1,0.4000,0.6000,-1.5500*
1,1,0.4000,-0.6000,-1.5500*
1,1,0.4000,-0.6000,1.5500*
1,1,0.4000,0.6000,1.5500*
%
%ADD23ROUNDEDRECTD23*%
%ADD24R,1.4500X0.6000*%
%ADD25R,1.4000X0.6000*%
%ADD26R,1.7020X0.9140*%
%ADD27R,0.9100X1.2200*%
%ADD28R,1.0000X0.6000*%
%ADD29R,1.8900X0.5400*%
%ADD30R,0.2500X0.2500*%
%ADD31R,2.4130X5.0800*%
%ADD32R,0.6000X1.0000*%
%ADD35C,0.5000*%
%ADD36C,2.5000*%
G36*
X590750Y532750D02*
X562750Y532750D01*
X557500Y538000D01*
X542250Y538000D01*
Y543500D01*
X557500Y543500D01*
X562750Y548750D01*
X590750Y548750D01*
Y532750D01*
D02*
G37*
G36*
Y582750D02*
X562750Y582750D01*
X557500Y588000D01*
X542250Y588000D01*
Y593500D01*
X557500Y593500D01*
X562750Y598750D01*
X590750Y598750D01*
Y582750D01*
D02*
G37*
D10*
X457000Y700000D02*
D03*
X438000D02*
D03*
X300500Y676000D02*
D03*
X281500D02*
D03*
X515500Y382000D02*
D03*
X534500D02*
D03*
X402000Y800000D02*
D03*
X383000D02*
D03*
D11*
X360340Y701000D02*
D03*
X380660D02*
D03*
X367660Y757000D02*
D03*
X347340D02*
D03*
X449660Y587000D02*
D03*
X429340D02*
D03*
X303160Y607500D02*
D03*
X282840D02*
D03*
X582410Y509750D02*
D03*
X562090D02*
D03*
X267660Y497500D02*
D03*
X247340D02*
D03*
X301590Y720730D02*
D03*
X281270D02*
D03*
X344910Y593000D02*
D03*
X324590D02*
D03*
X442660Y414000D02*
D03*
X422340D02*
D03*
D12*
X231000Y653000D02*
D03*
X212000D02*
D03*
Y631000D02*
D03*
X231000D02*
D03*
X212000Y675667D02*
D03*
X231000D02*
D03*
X393000Y701000D02*
D03*
X412000D02*
D03*
X324500Y614000D02*
D03*
X343500D02*
D03*
X366500Y632000D02*
D03*
X385500D02*
D03*
Y610000D02*
D03*
X366500D02*
D03*
X476000Y752000D02*
D03*
X457000D02*
D03*
X256549Y719790D02*
D03*
X237549D02*
D03*
X244500Y653333D02*
D03*
X263500D02*
D03*
X476000Y732000D02*
D03*
X457000D02*
D03*
X244500Y698000D02*
D03*
X263500D02*
D03*
X244500Y675667D02*
D03*
X263500D02*
D03*
X244500Y631000D02*
D03*
X263500D02*
D03*
X281500Y698000D02*
D03*
X300500D02*
D03*
D13*
X395912Y729924D02*
D03*
X417088Y739576D02*
D03*
Y720424D02*
D03*
X360912Y729924D02*
D03*
X382088Y739576D02*
D03*
Y720424D02*
D03*
D14*
X256576Y593412D02*
D03*
X246924Y614588D02*
D03*
X266076D02*
D03*
Y579588D02*
D03*
X246924D02*
D03*
X256576Y558412D02*
D03*
X513436Y738646D02*
D03*
X503784Y759822D02*
D03*
X522936D02*
D03*
Y796572D02*
D03*
X503784D02*
D03*
X513436Y775396D02*
D03*
X350424Y409412D02*
D03*
X369576D02*
D03*
X359924Y430588D02*
D03*
D15*
X290950Y388000D02*
D03*
X303650D02*
D03*
X316350D02*
D03*
X329050D02*
D03*
Y497000D02*
D03*
X316350D02*
D03*
X303650D02*
D03*
X290950D02*
D03*
D16*
X368500Y659840D02*
D03*
Y680160D02*
D03*
X528250Y600910D02*
D03*
Y580590D02*
D03*
X607250Y565590D02*
D03*
Y585910D02*
D03*
X324000Y636840D02*
D03*
Y657160D02*
D03*
X401000Y672160D02*
D03*
Y651840D02*
D03*
X327500Y763494D02*
D03*
Y743174D02*
D03*
X528250Y529340D02*
D03*
Y549660D02*
D03*
X506000Y529090D02*
D03*
Y549410D02*
D03*
X256500Y739840D02*
D03*
Y760160D02*
D03*
X265000Y384840D02*
D03*
Y405160D02*
D03*
X387000Y568840D02*
D03*
Y589160D02*
D03*
D17*
X347000Y657000D02*
D03*
Y638000D02*
D03*
X234250Y741250D02*
D03*
Y760250D02*
D03*
X341000Y694500D02*
D03*
Y675500D02*
D03*
X227500Y568000D02*
D03*
Y587000D02*
D03*
X421500Y450500D02*
D03*
Y431500D02*
D03*
X299600Y522250D02*
D03*
Y541250D02*
D03*
X365000Y572500D02*
D03*
Y591500D02*
D03*
X341000Y707000D02*
D03*
Y726000D02*
D03*
X321000Y707000D02*
D03*
Y726000D02*
D03*
X319400Y522250D02*
D03*
Y541250D02*
D03*
X321000Y694500D02*
D03*
Y675500D02*
D03*
X442500Y450500D02*
D03*
Y431500D02*
D03*
X299000Y558500D02*
D03*
Y577500D02*
D03*
X279800Y522250D02*
D03*
Y541250D02*
D03*
X339200Y522250D02*
D03*
Y541250D02*
D03*
X260000Y522250D02*
D03*
Y541250D02*
D03*
X359000Y522250D02*
D03*
Y541250D02*
D03*
D18*
X434000Y617000D02*
D03*
D19*
X401000Y607000D02*
D03*
Y627000D02*
D03*
D20*
X607500Y614500D02*
D03*
Y633500D02*
D03*
X494000Y399500D02*
D03*
Y380500D02*
D03*
X357500Y780500D02*
D03*
Y799500D02*
D03*
X499867Y626710D02*
D03*
Y645710D02*
D03*
X524443Y626710D02*
D03*
Y645710D02*
D03*
X573597Y626710D02*
D03*
Y645710D02*
D03*
X549020Y626710D02*
D03*
Y645710D02*
D03*
X505840Y600250D02*
D03*
Y581250D02*
D03*
X499867Y693210D02*
D03*
Y674210D02*
D03*
X524443Y693210D02*
D03*
Y674210D02*
D03*
X573597Y693210D02*
D03*
Y674210D02*
D03*
X549020Y693210D02*
D03*
Y674210D02*
D03*
X556000Y386500D02*
D03*
Y405500D02*
D03*
D21*
X427500Y763650D02*
D03*
Y796350D02*
D03*
D22*
X405000Y477500D02*
D03*
D23*
X459000D02*
D03*
D24*
X527500Y513000D02*
D03*
D25*
Y497000D02*
D03*
D26*
X605750Y511780D02*
D03*
Y542220D02*
D03*
X552750Y454780D02*
D03*
Y485220D02*
D03*
D27*
X478850Y795000D02*
D03*
X446150D02*
D03*
D28*
X342752Y574500D02*
D03*
Y555500D02*
D03*
X316747D02*
D03*
Y565000D02*
D03*
Y574500D02*
D03*
X301752Y759500D02*
D03*
Y740500D02*
D03*
X275748D02*
D03*
Y750000D02*
D03*
Y759500D02*
D03*
D29*
X551750Y555750D02*
D03*
Y525750D02*
D03*
Y605750D02*
D03*
Y575750D02*
D03*
D30*
X582750Y540750D02*
D03*
Y590750D02*
D03*
D31*
X326315Y807000D02*
D03*
X238685D02*
D03*
D32*
X299499Y628998D02*
D03*
X280500D02*
D03*
Y655002D02*
D03*
X290000D02*
D03*
X299499D02*
D03*
X420500Y651998D02*
D03*
X430000D02*
D03*
X439499D02*
D03*
Y678002D02*
D03*
X420500D02*
D03*
D35*
X512000Y840049D02*
G03*
X502000Y850049I-10000J0D01*
G01*
X512000Y840049D02*
G03*
X514500Y837549I2500J0D01*
G01*
X362549Y850049D02*
G03*
X352549Y840049I0J-10000D01*
G01*
X350049Y837549D02*
G03*
X352549Y840049I0J2500D01*
G01*
X182500Y410000D02*
X242400Y350100D01*
X622600D01*
X182500Y410000D02*
Y837500D01*
X622600Y350100D02*
X682500Y410000D01*
Y837549D01*
X182500Y837500D02*
X350049D01*
X514500Y837549D02*
X667500D01*
X682500D01*
X362549Y850049D02*
X502000D01*
D36*
X495420Y437730D02*
G03*
X517100Y428750I21680J21680D01*
G01*
X491700Y446711D02*
G03*
X495420Y437730I12700J0D01*
G01*
X491700Y492250D02*
G03*
X482720Y513930I-30661J0D01*
G01*
X475280Y521370D02*
G03*
X453600Y530350I-21680J-21680D01*
G01*
X415500D02*
G03*
X393820Y521370I0J-30661D01*
G01*
X386380Y513930D02*
G03*
X377400Y492250I21680J-21680D01*
G01*
X368420Y457870D02*
G03*
X377400Y479550I-21680J21680D01*
G01*
X359439Y454150D02*
G03*
X368420Y457870I0J12700D01*
G01*
X517100Y428750D02*
X587250D01*
X491700Y446711D02*
Y492250D01*
X475280Y521370D02*
X482720Y513930D01*
X415500Y530350D02*
X453600D01*
X386380Y513930D02*
X393820Y521370D01*
X377400Y479550D02*
Y492250D01*
X251000Y454150D02*
X359439D01*
M02*
