M48
;Layer_Color=6321
;FILE_FORMAT=4:4
METRIC,LZ
;TYPE=PLATED
T1F00S00C0.3000
T2F00S00C0.4500
T3F00S00C0.6500
T4F00S00C0.7000
T5F00S00C0.7500
T7F00S00C0.7620
T8F00S00C0.8000
T9F00S00C1.0000
T10F00S00C1.2700
T11F00S00C1.5000
T12F00S00C3.5000
%
T01
X0028Y00385
X00345Y003875
X004215Y00441
X004325Y0044
X004425Y00441
X004325Y0047
X005105Y00471
Y00493
X0050625Y00539249
X005285Y005395
X0053925Y0052909
Y005505
X0052825Y0056475
X00506Y005645
X004735Y00551
X004455
X004175
X004275Y00603
X004295Y006415
X00428Y00678
X004255Y0071
X004265Y0073
X004085Y00732
X004495Y00665
X00493678Y00759822
X0059175Y0067425
Y00665
Y00655
X006025
Y00665
Y00675
X0060725Y0060075
X0059Y0060575
X0058
X0056975
Y0059075
X0053225
X0058725Y00565749
X0060575Y0053275
Y0052225
X006465Y00506
Y00473
Y0044
X0057825Y00450336
Y00407164
X00536Y0040566
X0055275Y00472
X0054825Y0050975
X006465Y00539
X003765Y00537
X00365Y00557
X0034725Y00565
X00327Y00568
X0032725Y0055525
X0032905Y0051155
X003545Y00489
X002805Y00498
X002685Y00513
X00245Y00515
X002195Y00515
Y00536
Y00494
Y00473
X001975Y0056
Y00575
Y0059
Y00605
Y0062
Y00635
Y0065
Y00665
Y0068
Y00695
Y0071
Y00725
Y0074
Y00755
Y0077
Y00785
X0023425Y00769751
X002565Y00773
X002825Y0078775
X003125Y00759502
Y0075
X003735Y00731
X003505Y00685
X00309Y00654
X00309382Y00631
X003125Y006225
X0029Y00644
X00284875Y005905
X00298001Y00590499
X00355Y006125
X00376Y0061
Y00632
X00246049Y0071979
X002975Y004225
X0030365Y00408748
X0031635Y0040885
X003275Y004175
X00285Y004075
X003045Y008075
X002645
X001975Y00815
Y008
T02
X00401Y00661
X00499867Y0066
X00524443
X0054902
X00573597
X002275Y005775
X006025Y00815
T03
X004052Y00777
X004598
X004852
X003798
T04
X004275Y0078
T05
X00491Y0071625
X00541
T07
X00517Y00405
Y00455
T08
X003925Y008275
X004325
X004525
X004725
T09
X0057825Y0039065
Y0041605
Y0044145
Y0046685
T10
X004071Y0039
X004579
T11
X003715Y008275
X004935
T12
X006325Y0041
X002325
M30
