G04*
G04 #@! TF.GenerationSoftware,Altium Limited,CircuitStudio,1.5.2 (30)*
G04*
G04 Layer_Physical_Order=1*
G04 Layer_Color=11767835*
%FSLAX44Y44*%
%MOMM*%
G71*
G01*
G75*
%ADD10R,1.6000X1.3000*%
%ADD11R,0.6000X1.0000*%
%ADD12R,2.4130X5.0800*%
%ADD13R,1.0000X1.5240*%
%ADD14R,0.2500X0.2500*%
%ADD15R,1.8900X0.5400*%
%ADD16R,1.3000X1.6000*%
%ADD17R,1.3000X0.7000*%
%ADD18R,0.7000X1.3000*%
%ADD19R,0.8128X0.9144*%
%ADD20R,0.9144X0.8128*%
%ADD21R,1.5240X1.0000*%
%ADD22R,1.0000X0.6000*%
%ADD23R,0.9100X1.2200*%
%ADD24R,1.7020X0.9140*%
%ADD25R,1.4000X0.6000*%
%ADD26R,1.4500X0.6000*%
G04:AMPARAMS|DCode=27|XSize=1.6mm|YSize=3.5mm|CornerRadius=0.2mm|HoleSize=0mm|Usage=FLASHONLY|Rotation=0.000|XOffset=0mm|YOffset=0mm|HoleType=Round|Shape=RoundedRectangle|*
%AMROUNDEDRECTD27*
21,1,1.6000,3.1000,0,0,0.0*
21,1,1.2000,3.5000,0,0,0.0*
1,1,0.4000,0.6000,-1.5500*
1,1,0.4000,-0.6000,-1.5500*
1,1,0.4000,-0.6000,1.5500*
1,1,0.4000,0.6000,1.5500*
%
%ADD27ROUNDEDRECTD27*%
%ADD28R,1.6000X3.5000*%
%ADD29R,1.2200X0.9100*%
G04:AMPARAMS|DCode=30|XSize=1.2mm|YSize=1.2mm|CornerRadius=0.3mm|HoleSize=0mm|Usage=FLASHONLY|Rotation=270.000|XOffset=0mm|YOffset=0mm|HoleType=Round|Shape=RoundedRectangle|*
%AMROUNDEDRECTD30*
21,1,1.2000,0.6000,0,0,270.0*
21,1,0.6000,1.2000,0,0,270.0*
1,1,0.6000,-0.3000,-0.3000*
1,1,0.6000,-0.3000,0.3000*
1,1,0.6000,0.3000,0.3000*
1,1,0.6000,0.3000,-0.3000*
%
%ADD30ROUNDEDRECTD30*%
G04:AMPARAMS|DCode=31|XSize=1.6mm|YSize=1.5mm|CornerRadius=0.375mm|HoleSize=0mm|Usage=FLASHONLY|Rotation=270.000|XOffset=0mm|YOffset=0mm|HoleType=Round|Shape=RoundedRectangle|*
%AMROUNDEDRECTD31*
21,1,1.6000,0.7500,0,0,270.0*
21,1,0.8500,1.5000,0,0,270.0*
1,1,0.7500,-0.3750,-0.4250*
1,1,0.7500,-0.3750,0.4250*
1,1,0.7500,0.3750,0.4250*
1,1,0.7500,0.3750,-0.4250*
%
%ADD31ROUNDEDRECTD31*%
%ADD32R,0.6000X1.8000*%
%ADD33C,0.5000*%
%ADD34C,0.2540*%
%ADD35C,0.2500*%
%ADD36C,2.5000*%
%ADD37C,1.5240*%
%ADD38C,1.3000*%
G04:AMPARAMS|DCode=39|XSize=1.3mm|YSize=1.3mm|CornerRadius=0.325mm|HoleSize=0mm|Usage=FLASHONLY|Rotation=180.000|XOffset=0mm|YOffset=0mm|HoleType=Round|Shape=RoundedRectangle|*
%AMROUNDEDRECTD39*
21,1,1.3000,0.6500,0,0,180.0*
21,1,0.6500,1.3000,0,0,180.0*
1,1,0.6500,-0.3250,0.3250*
1,1,0.6500,0.3250,0.3250*
1,1,0.6500,0.3250,-0.3250*
1,1,0.6500,-0.3250,-0.3250*
%
%ADD39ROUNDEDRECTD39*%
G04:AMPARAMS|DCode=40|XSize=2mm|YSize=4mm|CornerRadius=0.5mm|HoleSize=0mm|Usage=FLASHONLY|Rotation=90.000|XOffset=0mm|YOffset=0mm|HoleType=Round|Shape=RoundedRectangle|*
%AMROUNDEDRECTD40*
21,1,2.0000,3.0000,0,0,90.0*
21,1,1.0000,4.0000,0,0,90.0*
1,1,1.0000,1.5000,0.5000*
1,1,1.0000,1.5000,-0.5000*
1,1,1.0000,-1.5000,-0.5000*
1,1,1.0000,-1.5000,0.5000*
%
%ADD40ROUNDEDRECTD40*%
G04:AMPARAMS|DCode=41|XSize=2mm|YSize=4.5mm|CornerRadius=0.5mm|HoleSize=0mm|Usage=FLASHONLY|Rotation=270.000|XOffset=0mm|YOffset=0mm|HoleType=Round|Shape=RoundedRectangle|*
%AMROUNDEDRECTD41*
21,1,2.0000,3.5000,0,0,270.0*
21,1,1.0000,4.5000,0,0,270.0*
1,1,1.0000,-1.7500,-0.5000*
1,1,1.0000,-1.7500,0.5000*
1,1,1.0000,1.7500,0.5000*
1,1,1.0000,1.7500,-0.5000*
%
%ADD41ROUNDEDRECTD41*%
G04:AMPARAMS|DCode=42|XSize=2mm|YSize=4mm|CornerRadius=0.5mm|HoleSize=0mm|Usage=FLASHONLY|Rotation=180.000|XOffset=0mm|YOffset=0mm|HoleType=Round|Shape=RoundedRectangle|*
%AMROUNDEDRECTD42*
21,1,2.0000,3.0000,0,0,180.0*
21,1,1.0000,4.0000,0,0,180.0*
1,1,1.0000,-0.5000,1.5000*
1,1,1.0000,0.5000,1.5000*
1,1,1.0000,0.5000,-1.5000*
1,1,1.0000,-0.5000,-1.5000*
%
%ADD42ROUNDEDRECTD42*%
%ADD43C,1.5000*%
%ADD44O,2.0000X3.0000*%
%ADD45C,2.5400*%
%ADD46O,2.0000X1.5000*%
%ADD47C,2.0000*%
%ADD48R,2.0000X1.5000*%
%ADD49C,0.6000*%
%ADD50C,1.2000*%
%ADD51C,0.7500*%
%ADD52C,1.2500*%
G36*
X652500Y645000D02*
X652500Y550898D01*
X651602Y550000D01*
X592500Y550000D01*
Y546982D01*
X592009Y546884D01*
X591347Y546442D01*
X590905Y545780D01*
X590750Y545000D01*
Y532750D01*
X588588D01*
X587808Y532595D01*
X587146Y532153D01*
X586704Y531491D01*
X586549Y530711D01*
Y519910D01*
X581451D01*
Y530711D01*
X581296Y531491D01*
X580854Y532153D01*
X580192Y532595D01*
X579412Y532750D01*
X563740D01*
X563503Y532703D01*
X562960Y532595D01*
X562240Y533040D01*
X561798Y533702D01*
X558097Y537403D01*
D01*
X558097Y537403D01*
X557436Y537845D01*
X556655Y538000D01*
X542250Y538000D01*
Y539187D01*
Y543299D01*
Y543500D01*
X542290D01*
X542292Y543511D01*
Y543524D01*
X542297Y543535D01*
X542292Y543920D01*
Y544307D01*
X542287Y544319D01*
X542287Y544331D01*
X542136Y544684D01*
X541988Y545042D01*
X541988Y545630D01*
X542140Y546418D01*
X542855Y546895D01*
X543960Y548549D01*
X544348Y550500D01*
X544799Y551050D01*
X563200D01*
Y560450D01*
X540300D01*
Y559859D01*
X539006Y558994D01*
X538673Y558662D01*
X537500Y559148D01*
Y573590D01*
X537870D01*
Y585000D01*
X557616D01*
X560356Y582260D01*
X559830Y580990D01*
X553020D01*
Y577020D01*
X563740D01*
Y580711D01*
X590750D01*
X591530Y580866D01*
X592192Y581308D01*
X592634Y581969D01*
X592652Y582063D01*
X594030Y582481D01*
X594506Y582006D01*
X595994Y581011D01*
X597630Y580686D01*
Y578910D01*
X616870D01*
Y592910D01*
X611838D01*
Y598617D01*
X611960Y598799D01*
X612348Y600750D01*
X612088Y602056D01*
Y606000D01*
X617500D01*
Y623000D01*
X597500D01*
Y606000D01*
X602912D01*
Y603257D01*
X602540Y602701D01*
X602152Y600750D01*
X602540Y598799D01*
X602662Y598617D01*
Y592910D01*
X597630D01*
X597630Y592910D01*
Y592910D01*
X596377Y593111D01*
X595494Y593994D01*
X594006Y594989D01*
X592789Y595231D01*
Y598750D01*
X592634Y599530D01*
X592500Y599731D01*
Y601407D01*
X593605Y602145D01*
X594710Y603799D01*
X595098Y605750D01*
X594710Y607701D01*
X593605Y609355D01*
X592500Y610093D01*
Y611226D01*
Y611226D01*
Y644102D01*
X593398Y645000D01*
X652500Y645000D01*
D02*
G37*
G36*
X590750Y582750D02*
X562750D01*
X557500Y588000D01*
X542250Y588000D01*
Y593500D01*
X557500Y593500D01*
X562750Y598750D01*
X590750D01*
Y582750D01*
D02*
G37*
G36*
X518630Y554102D02*
Y542660D01*
X537870D01*
Y544201D01*
X538947Y545142D01*
X539417Y545088D01*
X539577Y544952D01*
X540292Y543909D01*
X540211Y543500D01*
Y538000D01*
X540366Y537220D01*
X540808Y536558D01*
X541470Y536116D01*
X542250Y535961D01*
X556655Y535961D01*
X560356Y532260D01*
X559830Y530990D01*
X553020D01*
Y527020D01*
X563740D01*
Y530711D01*
X579412D01*
Y519370D01*
X575410D01*
Y500130D01*
X589410D01*
Y519370D01*
X588588D01*
Y530711D01*
X590750D01*
X591530Y530866D01*
X592192Y531308D01*
X592634Y531969D01*
X592789Y532750D01*
Y545000D01*
X594342D01*
X594893Y544470D01*
X595225Y543930D01*
X595240Y543884D01*
Y535650D01*
X600198D01*
X600376Y535449D01*
X600976Y534380D01*
X600652Y532750D01*
X601040Y530799D01*
X602145Y529145D01*
X603799Y528040D01*
X605750Y527652D01*
X607701Y528040D01*
X609355Y529145D01*
X610460Y530799D01*
X610848Y532750D01*
X610524Y534380D01*
X611124Y535449D01*
X611302Y535650D01*
X616260D01*
Y545000D01*
X651602D01*
X651602Y545000D01*
X652500Y543884D01*
X652500Y430898D01*
X651602Y430000D01*
X601754D01*
X601454Y432280D01*
X601368Y432533D01*
X601316Y432794D01*
X600056Y435836D01*
X599907Y436058D01*
X599790Y436297D01*
X597785Y438909D01*
X597585Y439085D01*
X597409Y439286D01*
X594797Y441290D01*
X594558Y441408D01*
X594336Y441556D01*
X591294Y442816D01*
X591033Y442868D01*
X590780Y442954D01*
X590144Y443037D01*
X589941Y444583D01*
X588732Y447502D01*
X586808Y450009D01*
X586554Y450204D01*
X586571Y450336D01*
X586287Y452490D01*
X585456Y454497D01*
X584241Y456080D01*
X584523Y457350D01*
X590250D01*
Y476350D01*
X566250D01*
Y458969D01*
X566238Y458955D01*
X564980Y458348D01*
X563976Y459019D01*
X563260Y459161D01*
Y461350D01*
X542240D01*
Y460545D01*
X540970Y460019D01*
X540088Y460900D01*
Y482000D01*
X539739Y483756D01*
X538744Y485244D01*
X533259Y490730D01*
X533785Y492000D01*
X536500D01*
Y502000D01*
X518500D01*
Y492000D01*
X522912D01*
Y490000D01*
X523261Y488244D01*
X524256Y486756D01*
X530912Y480099D01*
Y459000D01*
X531261Y457244D01*
X532256Y455756D01*
X536475Y451536D01*
X537964Y450541D01*
X539720Y450192D01*
X542240D01*
Y448210D01*
X562301D01*
X563419Y447092D01*
X564908Y446097D01*
X565743Y445931D01*
X566557Y444586D01*
X566551Y444524D01*
X566399Y443369D01*
X517097Y443293D01*
X516837Y443241D01*
X513940Y443526D01*
X510902Y444448D01*
X508102Y445944D01*
X506227Y447483D01*
X506229Y453381D01*
X507499Y453464D01*
X507627Y452489D01*
X508597Y450149D01*
X510139Y448139D01*
X512148Y446597D01*
X514488Y445628D01*
X517000Y445297D01*
X519511Y445628D01*
X521851Y446597D01*
X523861Y448139D01*
X525403Y450149D01*
X526372Y452489D01*
X526703Y455000D01*
X526372Y457511D01*
X525403Y459851D01*
X523861Y461861D01*
X521851Y463403D01*
X519511Y464372D01*
X517000Y464703D01*
X514488Y464372D01*
X512148Y463403D01*
X510139Y461861D01*
X508597Y459851D01*
X507627Y457511D01*
X507500Y456544D01*
X506230Y456628D01*
X506243Y491712D01*
X506271Y491924D01*
X506335Y492250D01*
Y492250D01*
X506322Y492316D01*
X506331Y492383D01*
X505961Y498030D01*
X505926Y498159D01*
Y498294D01*
X504822Y503843D01*
X504771Y503968D01*
X504753Y504101D01*
X502934Y509459D01*
X502867Y509576D01*
X502832Y509706D01*
X500330Y514780D01*
X500248Y514887D01*
X500196Y515011D01*
X497053Y519716D01*
X496958Y519811D01*
X496890Y519928D01*
X496582Y520280D01*
X497157Y521550D01*
X504730D01*
Y527820D01*
X495840D01*
Y523052D01*
X494570Y522574D01*
X493160Y524182D01*
X493099Y524228D01*
X493056Y524292D01*
X485922Y531301D01*
X485814Y531442D01*
X485629Y531719D01*
X485573Y531756D01*
X485532Y531810D01*
X481278Y535541D01*
X481161Y535608D01*
X481066Y535703D01*
X476361Y538847D01*
X476237Y538898D01*
X476130Y538980D01*
X471055Y541483D01*
X470925Y541517D01*
X470809Y541585D01*
X465451Y543403D01*
X465318Y543421D01*
X465193Y543472D01*
X459644Y544576D01*
X459509D01*
X459379Y544611D01*
X453733Y544981D01*
X453666Y544972D01*
X453600Y544986D01*
X453600D01*
X453597Y544985D01*
X453595Y544986D01*
X416027Y544894D01*
X415826Y544921D01*
X415500Y544986D01*
X415500D01*
X415434Y544972D01*
X415367Y544981D01*
X409720Y544611D01*
X409590Y544576D01*
X409456D01*
X403906Y543472D01*
X403782Y543421D01*
X403649Y543403D01*
X398291Y541585D01*
X398174Y541517D01*
X398044Y541483D01*
X392970Y538980D01*
X392863Y538898D01*
X392738Y538847D01*
X388034Y535703D01*
X387939Y535608D01*
X387822Y535541D01*
X383568Y531810D01*
X383521Y531749D01*
X383458Y531706D01*
X376449Y524572D01*
X376308Y524464D01*
X376031Y524279D01*
X375994Y524223D01*
X375940Y524182D01*
X372209Y519928D01*
X372142Y519811D01*
X372047Y519716D01*
X368903Y515011D01*
X368852Y514887D01*
X368770Y514780D01*
X366267Y509706D01*
X366232Y509576D01*
X366165Y509459D01*
X364346Y504101D01*
X364329Y503968D01*
X364277Y503843D01*
X363173Y498294D01*
Y498159D01*
X363139Y498030D01*
X362769Y492383D01*
X362777Y492316D01*
X362764Y492250D01*
Y492250D01*
X362766Y492243D01*
X362764Y492235D01*
X362835Y482491D01*
X361941Y481589D01*
X250000D01*
X249219Y481434D01*
X248558Y480992D01*
X248116Y480330D01*
X247961Y479550D01*
Y468418D01*
X247469Y468354D01*
X247217Y468268D01*
X246955Y468216D01*
X243913Y466956D01*
X243692Y466808D01*
X243452Y466690D01*
X241250Y465000D01*
X212500D01*
X212500Y554102D01*
X213398Y555000D01*
X249614D01*
X250512Y554102D01*
Y551840D01*
X262640D01*
Y555000D01*
X289602D01*
X290500Y554102D01*
Y553000D01*
X307500D01*
Y555000D01*
X308849D01*
X309748Y554102D01*
Y553216D01*
X303282Y546750D01*
X291100D01*
Y544584D01*
X288300D01*
Y546750D01*
X271300D01*
Y544584D01*
X268500D01*
Y546750D01*
X251500D01*
Y535750D01*
X257996D01*
Y527750D01*
X251500D01*
Y516750D01*
X268500D01*
Y518916D01*
X271300D01*
Y516750D01*
X288300D01*
Y518916D01*
X291100D01*
Y516750D01*
X296266D01*
Y515400D01*
X296519Y514124D01*
X297242Y513043D01*
X300316Y509969D01*
Y508000D01*
X298650D01*
Y486000D01*
X308650D01*
Y508000D01*
X306984D01*
Y511350D01*
X306730Y512626D01*
X306007Y513707D01*
X304138Y515577D01*
X304624Y516750D01*
X308100D01*
Y525711D01*
X310900D01*
Y516750D01*
X312476D01*
X313201Y515480D01*
X313016Y514551D01*
Y508000D01*
X311350D01*
Y486000D01*
X321350D01*
Y508000D01*
X319684D01*
Y513170D01*
X321757Y515243D01*
X322191Y515891D01*
X322480Y516324D01*
X322565Y516750D01*
X325547D01*
X325932Y515480D01*
X325445Y515155D01*
X324340Y513501D01*
X323952Y511550D01*
X324340Y509599D01*
X324660Y509120D01*
X324061Y508000D01*
X324050D01*
Y486000D01*
X334050D01*
Y508000D01*
X334038D01*
X333440Y509120D01*
X333760Y509599D01*
X334148Y511550D01*
X333760Y513501D01*
X332655Y515155D01*
X332168Y515480D01*
X332553Y516750D01*
X347700D01*
Y518916D01*
X350500D01*
Y516750D01*
X367500D01*
Y525711D01*
X368280Y525866D01*
X368942Y526308D01*
X369384Y526970D01*
X369539Y527750D01*
Y535750D01*
X369384Y536530D01*
X368942Y537192D01*
X368280Y537634D01*
X367500Y537789D01*
Y546750D01*
X350500D01*
Y544584D01*
X347700D01*
Y546750D01*
X342534D01*
Y550500D01*
X349752D01*
Y555000D01*
X360323D01*
X361395Y553395D01*
X363049Y552290D01*
X365000Y551902D01*
X366951Y552290D01*
X368605Y553395D01*
X369677Y555000D01*
X495482Y555000D01*
X496380Y554102D01*
Y542410D01*
X515620D01*
Y555000D01*
X517732D01*
X518630Y554102D01*
D02*
G37*
G36*
X476633Y496367D02*
X476924Y495410D01*
X477244Y492152D01*
X477158Y447369D01*
X477123Y447302D01*
X477093Y447004D01*
X477035Y446711D01*
X477055Y446611D01*
X477045Y446511D01*
X477531Y441570D01*
X477590Y441378D01*
X477609Y441178D01*
X478611Y437876D01*
X478591Y437662D01*
X478443Y437224D01*
X477963Y436504D01*
X477744Y436363D01*
X477507Y436253D01*
X477412Y436149D01*
X477294Y436073D01*
X476581Y435383D01*
X476572Y435369D01*
X476558Y435359D01*
X476346Y435042D01*
X476129Y434728D01*
X476125Y434712D01*
X476116Y434698D01*
X476041Y434324D01*
X475961Y433951D01*
X475964Y433934D01*
X475961Y433918D01*
X475961Y370898D01*
X475961Y370898D01*
Y360898D01*
X475961Y360898D01*
X474844Y360000D01*
X439500D01*
X439500Y402942D01*
X440398Y403840D01*
X441390D01*
Y414000D01*
X443930D01*
Y403840D01*
X450200D01*
Y412104D01*
X451098Y413001D01*
X452500Y413000D01*
Y474166D01*
X459000D01*
X460276Y474420D01*
X461357Y475143D01*
X462080Y476224D01*
X462334Y477500D01*
X462080Y478776D01*
X461357Y479857D01*
X460276Y480580D01*
X459000Y480834D01*
X452500D01*
Y500000D01*
X473000Y500000D01*
X476633Y496367D01*
D02*
G37*
G36*
X374000Y442507D02*
X374000Y415984D01*
X363512D01*
Y412746D01*
X356488D01*
Y415984D01*
X344360D01*
Y412746D01*
X319519D01*
X318301Y413560D01*
X316350Y413948D01*
X314399Y413560D01*
X312745Y412455D01*
X311640Y410801D01*
X311252Y408850D01*
X311640Y406899D01*
X312745Y405245D01*
X313016Y405064D01*
Y399000D01*
X311350D01*
Y377000D01*
X321350D01*
Y399000D01*
X319684D01*
Y405064D01*
X319955Y405245D01*
X320511Y406078D01*
X344360D01*
Y402840D01*
X356488D01*
Y406078D01*
X363512D01*
Y402840D01*
X373102D01*
X374000Y401942D01*
X374000Y360000D01*
X255898Y360000D01*
X255000Y360898D01*
Y376727D01*
X255380Y377840D01*
X256270Y377840D01*
X274620D01*
Y381506D01*
X276321D01*
X276395Y381395D01*
X278049Y380290D01*
X280000Y379902D01*
X281951Y380290D01*
X283605Y381395D01*
X283679Y381506D01*
X285950D01*
Y377000D01*
X295950D01*
Y399000D01*
X285950D01*
Y388174D01*
X283892D01*
X283605Y388605D01*
X281951Y389710D01*
X280000Y390098D01*
X278049Y389710D01*
X276395Y388605D01*
X276107Y388174D01*
X274620D01*
Y391840D01*
X256270D01*
X255000Y392952D01*
Y397620D01*
X263730D01*
Y405160D01*
Y412700D01*
X255898D01*
X255000Y413598D01*
Y438961D01*
X361142D01*
X361142Y438961D01*
X361923Y439116D01*
X362584Y439558D01*
X362584Y439558D01*
X362836Y439810D01*
X364580Y439981D01*
X364772Y440040D01*
X364972Y440060D01*
X369723Y441501D01*
X369900Y441595D01*
X370092Y441654D01*
X372910Y443160D01*
X374000Y442507D01*
D02*
G37*
G36*
X224080Y830000D02*
Y830000D01*
Y808270D01*
X238685D01*
X253290D01*
Y829102D01*
Y830000D01*
X254188D01*
X254188Y830000D01*
X311710Y830000D01*
Y830000D01*
Y808270D01*
X326315D01*
X340920D01*
Y829102D01*
Y830000D01*
X341818D01*
D01*
X350000D01*
X359396D01*
Y822500D01*
X359809Y819367D01*
X360000Y818906D01*
X361018Y816448D01*
X362941Y813941D01*
X363598Y813437D01*
X363681Y812170D01*
X360000Y808488D01*
X359511Y808000D01*
X347500D01*
Y791000D01*
X367500D01*
Y803011D01*
X372787Y808298D01*
X373960Y807812D01*
Y801270D01*
X381730D01*
Y810540D01*
X377302D01*
X377049Y811810D01*
X377552Y812018D01*
X380058Y813941D01*
X381982Y816448D01*
X383191Y819367D01*
X383480Y821563D01*
X384808Y821919D01*
X385724Y820724D01*
X387709Y819202D01*
X390020Y818244D01*
X392500Y817918D01*
X394980Y818244D01*
X397291Y819202D01*
X399275Y820724D01*
X400798Y822709D01*
X401755Y825020D01*
X402082Y827500D01*
X401920Y828730D01*
X403034Y830000D01*
X421966D01*
X423080Y828730D01*
X422918Y827500D01*
X423245Y825020D01*
X424202Y822709D01*
X425724Y820724D01*
X427709Y819202D01*
X427912Y819118D01*
Y811900D01*
X424256Y808244D01*
X423261Y806756D01*
X422912Y805000D01*
Y802900D01*
X419400D01*
Y790885D01*
X418130Y790359D01*
X410500Y797989D01*
Y810000D01*
X393500D01*
Y790000D01*
X405511D01*
X408772Y786740D01*
X408112Y785603D01*
X401950D01*
X399902Y785195D01*
X398165Y784035D01*
X397005Y782298D01*
X396597Y780250D01*
Y773750D01*
X397005Y771702D01*
X398165Y769965D01*
X399902Y768805D01*
X401950Y768397D01*
X408450D01*
X410498Y768805D01*
X412235Y769965D01*
X413395Y771702D01*
X413803Y773750D01*
Y779912D01*
X414939Y780572D01*
X418756Y776756D01*
X420244Y775761D01*
X420745Y775661D01*
X421794Y774294D01*
X422912Y773437D01*
Y770200D01*
X419400D01*
Y757100D01*
X433226D01*
X433712Y755927D01*
X415142Y737357D01*
X414420Y736276D01*
X414166Y735000D01*
Y714867D01*
X413988Y714748D01*
X412718Y715427D01*
Y722128D01*
X409460D01*
Y729354D01*
X409207Y730622D01*
X408489Y731697D01*
X405314Y734872D01*
Y743500D01*
X407500D01*
Y760500D01*
X396500D01*
Y743500D01*
X398686D01*
Y733500D01*
X398897Y732442D01*
X398938Y732232D01*
X399657Y731157D01*
X402832Y727981D01*
Y722128D01*
X399574D01*
Y710000D01*
X408625D01*
X409112Y708827D01*
X382642Y682357D01*
X381920Y681276D01*
X381666Y680000D01*
Y651381D01*
X381119Y650834D01*
X365000D01*
X363724Y650580D01*
X362642Y649857D01*
X356663Y643878D01*
X355500Y643500D01*
Y643500D01*
X355500Y643500D01*
X345398D01*
X345016Y644296D01*
X344956Y644770D01*
X349343Y649157D01*
X350061Y650232D01*
X350313Y651500D01*
Y651500D01*
X355500D01*
Y653686D01*
X358880D01*
Y652840D01*
X378120D01*
Y666840D01*
X358880D01*
Y660314D01*
X355500D01*
Y662500D01*
X338500D01*
Y651500D01*
X338500Y651500D01*
X338500D01*
X338298Y650313D01*
X333620D01*
Y664160D01*
X314380D01*
Y657334D01*
X312785D01*
X312605Y657605D01*
X310951Y658710D01*
X309000Y659098D01*
X307049Y658710D01*
X305769Y657855D01*
X304499Y658376D01*
Y662002D01*
X302833D01*
Y666380D01*
X308160D01*
Y672666D01*
X312500D01*
Y670000D01*
X329500D01*
Y681000D01*
X330494Y681666D01*
X331506D01*
X332500Y681000D01*
X332500Y680396D01*
Y670000D01*
X349500D01*
Y672166D01*
X352738D01*
X354049Y671290D01*
X356000Y670902D01*
X357951Y671290D01*
X359604Y672395D01*
X360116Y673160D01*
X378120D01*
Y687160D01*
X358880D01*
Y683238D01*
X357802Y682517D01*
X356319Y681034D01*
X356000Y681098D01*
X354049Y680710D01*
X352395Y679605D01*
X351880Y678834D01*
X349500D01*
Y681000D01*
X339185D01*
X338800Y682270D01*
X339357Y682642D01*
X343357Y686643D01*
X344080Y687724D01*
X344334Y689000D01*
Y689000D01*
X349500D01*
Y700000D01*
X344334D01*
Y701500D01*
X349500D01*
Y712500D01*
X332500D01*
Y710334D01*
X329500D01*
Y712500D01*
X312500D01*
Y701500D01*
X329500D01*
Y703666D01*
X332500D01*
Y701500D01*
X337666D01*
Y700000D01*
X332500D01*
Y689000D01*
X331506Y688334D01*
X330494D01*
X329500Y689000D01*
X329500Y689604D01*
Y700000D01*
X312500D01*
Y697834D01*
X306000D01*
Y706500D01*
X295000D01*
Y689500D01*
X306000D01*
Y691166D01*
X312500D01*
Y689000D01*
X323814D01*
X324200Y687730D01*
X323642Y687357D01*
X318642Y682357D01*
X317920Y681276D01*
X317865Y681000D01*
X312500D01*
Y679334D01*
X308160D01*
Y685620D01*
X294160D01*
Y666380D01*
X296165D01*
Y662002D01*
X275500D01*
Y648002D01*
X277187D01*
Y641000D01*
X277397Y639942D01*
X277439Y639732D01*
X278157Y638657D01*
X279643Y637171D01*
X279156Y635998D01*
X275500D01*
Y632332D01*
X269000D01*
Y639500D01*
X266834D01*
Y644833D01*
X269000D01*
Y661833D01*
X266834D01*
Y667167D01*
X269000D01*
Y672666D01*
X273840D01*
Y666380D01*
X287840D01*
Y685620D01*
X273840D01*
Y679334D01*
X269000D01*
Y684167D01*
X258000D01*
X257334Y685161D01*
Y688506D01*
X258000Y689500D01*
X258604Y689500D01*
X269000D01*
Y694666D01*
X276000D01*
Y689500D01*
X287000D01*
Y706500D01*
X276000D01*
Y701334D01*
X269000D01*
Y706500D01*
X258000D01*
Y697185D01*
X256730Y696800D01*
X256357Y697357D01*
X253357Y700358D01*
X252276Y701080D01*
X251000Y701334D01*
X250000D01*
Y706500D01*
X239000D01*
Y689500D01*
X250000D01*
X250666Y688506D01*
Y685161D01*
X250000Y684167D01*
X249396Y684167D01*
X239000D01*
Y667167D01*
X241166D01*
Y661833D01*
X239000D01*
Y644833D01*
X241166D01*
Y639500D01*
X239000D01*
Y622500D01*
X241166D01*
Y621160D01*
X240860D01*
Y608016D01*
X252988D01*
Y621160D01*
X247834D01*
Y622500D01*
X250000D01*
Y639500D01*
X247834D01*
Y644833D01*
X250000D01*
Y661833D01*
X247834D01*
Y667167D01*
X250000D01*
Y676815D01*
X251270Y677200D01*
X251642Y676643D01*
X254976Y673309D01*
X256057Y672586D01*
X257333Y672333D01*
X258000D01*
Y667167D01*
X260166D01*
Y661833D01*
X258000D01*
Y644833D01*
X260166D01*
Y639500D01*
X258000D01*
Y622500D01*
X266025D01*
X266704Y621230D01*
X266657Y621160D01*
X260012D01*
Y608016D01*
X262742D01*
Y605834D01*
X235000D01*
X233724Y605580D01*
X232642Y604857D01*
X225142Y597357D01*
X224420Y596276D01*
X224166Y595000D01*
Y592500D01*
X219000D01*
Y581500D01*
X221910D01*
X222509Y580380D01*
X222084Y579743D01*
X221637Y577500D01*
X222084Y575256D01*
X222509Y574620D01*
X221910Y573500D01*
X219000D01*
Y562500D01*
X236000D01*
Y573500D01*
X233090D01*
X232491Y574620D01*
X232916Y575256D01*
X233363Y577500D01*
X232916Y579743D01*
X232491Y580380D01*
X233090Y581500D01*
X236000D01*
Y592500D01*
X231199D01*
X230985Y593770D01*
X236381Y599166D01*
X249614D01*
X250512Y598268D01*
Y586840D01*
X249300Y586700D01*
X248194D01*
Y579588D01*
Y572476D01*
X253242D01*
Y564984D01*
X250512D01*
Y558155D01*
X249614Y557039D01*
X213398D01*
X213398Y557039D01*
X212617Y556884D01*
X211956Y556442D01*
X211058Y555544D01*
X210695Y555000D01*
X188398D01*
X187500Y555898D01*
X187500Y829102D01*
X188398Y830000D01*
X224080Y830000D01*
D02*
G37*
G36*
X480092Y434395D02*
X481544Y431679D01*
X481671Y431524D01*
X481766Y431347D01*
X484916Y427509D01*
X484994Y427445D01*
X485050Y427360D01*
X485209Y427254D01*
X489422Y423559D01*
X489539Y423492D01*
X489634Y423397D01*
X494338Y420253D01*
X494463Y420202D01*
X494570Y420120D01*
X499644Y417617D01*
X499774Y417583D01*
X499891Y417515D01*
X505249Y415696D01*
X505382Y415679D01*
X505506Y415628D01*
X511056Y414524D01*
X511190D01*
X511320Y414489D01*
X511599Y414470D01*
X511859Y413181D01*
X510139Y411861D01*
X508597Y409851D01*
X507627Y407511D01*
X507430Y406013D01*
X504000D01*
Y408000D01*
X484000D01*
Y391000D01*
X504000D01*
Y399345D01*
X509213D01*
X510139Y398139D01*
X511166Y397351D01*
Y392000D01*
X507000D01*
Y372000D01*
X524000D01*
Y392000D01*
X517834D01*
Y395407D01*
X519511Y395628D01*
X521851Y396597D01*
X523861Y398139D01*
X525403Y400149D01*
X526305Y402326D01*
X532214D01*
X532395Y402055D01*
X534049Y400950D01*
X536000Y400562D01*
X537951Y400950D01*
X539604Y402055D01*
X539785Y402326D01*
X546000D01*
Y397000D01*
X566000D01*
Y410948D01*
X567270Y411201D01*
X567768Y409998D01*
X569691Y407491D01*
X569946Y407296D01*
X569929Y407164D01*
X570212Y405010D01*
X571044Y403003D01*
X572243Y401440D01*
X572208Y400715D01*
X571997Y399963D01*
X570686Y399420D01*
X568589Y397811D01*
X567472Y396355D01*
X566540Y395540D01*
Y395540D01*
X557270D01*
Y386500D01*
Y377460D01*
X566540D01*
Y384074D01*
X567810Y384505D01*
X568589Y383489D01*
X570686Y381880D01*
X573129Y380868D01*
X575750Y380523D01*
X576980D01*
Y390650D01*
X578250D01*
Y391920D01*
X590709D01*
X590531Y393271D01*
X589520Y395713D01*
X587910Y397811D01*
X585813Y399420D01*
X584503Y399963D01*
X584292Y400715D01*
X584256Y401440D01*
X585456Y403003D01*
X586287Y405010D01*
X586571Y407164D01*
X586554Y407296D01*
X586808Y407491D01*
X588732Y409998D01*
X589941Y412917D01*
X590144Y414463D01*
X590780Y414546D01*
X591033Y414632D01*
X591294Y414684D01*
X592944Y415367D01*
X594000Y414662D01*
X594000Y360000D01*
X478898Y360000D01*
X478000Y360898D01*
Y370898D01*
X478000Y370898D01*
X478000Y433918D01*
X478713Y434608D01*
X480092Y434395D01*
D02*
G37*
G36*
X652500Y829102D02*
X652500Y647937D01*
X651602Y647039D01*
X647088D01*
Y785000D01*
X646739Y786756D01*
X645744Y788244D01*
X615744Y818244D01*
X614256Y819239D01*
X612500Y819588D01*
X605983D01*
X604743Y820416D01*
X602500Y820863D01*
X600256Y820416D01*
X598354Y819145D01*
X597084Y817243D01*
X596637Y815000D01*
X597084Y812756D01*
X598354Y810854D01*
X600256Y809584D01*
X602500Y809137D01*
X604743Y809584D01*
X605983Y810412D01*
X610599D01*
X637912Y783099D01*
Y647937D01*
X637014Y647039D01*
X593398Y647039D01*
X593398Y647039D01*
X592618Y646884D01*
X591956Y646442D01*
X591058Y645544D01*
X590616Y644882D01*
X590461Y644102D01*
Y612051D01*
X590000Y610848D01*
X588049Y610460D01*
X587867Y610338D01*
X582133D01*
X581951Y610460D01*
X580000Y610848D01*
X578049Y610460D01*
X577867Y610338D01*
X571883D01*
X571701Y610460D01*
X569750Y610848D01*
X567799Y610460D01*
X567617Y610338D01*
X563200D01*
Y610450D01*
X540300D01*
Y610000D01*
X444239Y610000D01*
X443318Y611270D01*
X443613Y612750D01*
Y621250D01*
X443166Y623493D01*
X441895Y625396D01*
X439994Y626666D01*
X437750Y627113D01*
X437500Y627363D01*
Y633785D01*
X441857Y638142D01*
X442580Y639224D01*
X442833Y640500D01*
Y644998D01*
X444499D01*
Y658998D01*
X438398D01*
X437500Y659896D01*
Y661766D01*
X438276Y661920D01*
X439357Y662643D01*
X441857Y665142D01*
X442580Y666224D01*
X442833Y667500D01*
Y671002D01*
X444499D01*
Y685002D01*
X438398D01*
X437500Y685900D01*
Y703230D01*
X439154D01*
X440430Y703484D01*
X441511Y704206D01*
X445253Y707948D01*
X445976Y709030D01*
X446230Y710306D01*
Y711000D01*
X449468D01*
Y713730D01*
X456272D01*
X457500Y713628D01*
X457500Y712460D01*
Y701500D01*
X470644D01*
Y712897D01*
Y712943D01*
X470644Y713366D01*
Y713628D01*
X471147Y714690D01*
Y714690D01*
X471171Y714706D01*
X482607Y726142D01*
X483330Y727224D01*
X483584Y728500D01*
Y743500D01*
X487500D01*
Y760500D01*
X476500D01*
Y743500D01*
X476916D01*
Y729881D01*
X471817Y724782D01*
X470644Y725268D01*
Y732780D01*
X457500D01*
Y730406D01*
X456230Y729727D01*
X455185Y730426D01*
X453234Y730814D01*
X451283Y730426D01*
X449629Y729321D01*
X449448Y729050D01*
X438398D01*
X437500Y729948D01*
Y750285D01*
X448507Y761292D01*
X449230Y762374D01*
X449484Y763650D01*
Y786900D01*
X452700D01*
Y803100D01*
X450738D01*
Y806749D01*
X455744Y811756D01*
X456739Y813244D01*
X457088Y815000D01*
Y819118D01*
X457291Y819202D01*
X459275Y820724D01*
X460798Y822709D01*
X461755Y825020D01*
X461860Y825810D01*
X463140D01*
X463245Y825020D01*
X464202Y822709D01*
X465724Y820724D01*
X467709Y819202D01*
X468103Y819038D01*
X468261Y818244D01*
X469256Y816756D01*
X474262Y811749D01*
Y803100D01*
X472300D01*
Y786900D01*
X485400D01*
Y803100D01*
X483438D01*
Y813650D01*
X483394Y813872D01*
X484582Y814410D01*
X484941Y813941D01*
X487448Y812018D01*
X490367Y810809D01*
X493500Y810396D01*
X496633Y810809D01*
X499552Y812018D01*
X502058Y813941D01*
X503982Y816448D01*
X505191Y819367D01*
X505603Y822500D01*
Y830000D01*
X651602Y830000D01*
X652500Y829102D01*
D02*
G37*
G36*
X412500Y500000D02*
Y480834D01*
X405000D01*
X403724Y480580D01*
X402642Y479857D01*
X401920Y478776D01*
X401666Y477500D01*
X401920Y476224D01*
X402642Y475143D01*
X403724Y474420D01*
X405000Y474166D01*
X412500D01*
Y456540D01*
X412460D01*
Y444460D01*
X412500D01*
Y413000D01*
X413901Y413001D01*
X414800Y412104D01*
Y403840D01*
X421070D01*
Y414000D01*
X423610D01*
Y403840D01*
X424602D01*
X425500Y402942D01*
X425500Y360000D01*
X384898D01*
X384000Y360898D01*
X384000Y453950D01*
X385896Y456789D01*
X385948Y456913D01*
X386030Y457020D01*
X388532Y462094D01*
X388567Y462224D01*
X388634Y462341D01*
X390453Y467699D01*
X390471Y467832D01*
X390522Y467956D01*
X391626Y473506D01*
Y473641D01*
X391661Y473770D01*
X392031Y479417D01*
X392022Y479484D01*
X392035Y479550D01*
Y479550D01*
X392034Y479557D01*
X392035Y479565D01*
X391943Y492265D01*
X391891Y492516D01*
X392176Y495410D01*
X393098Y498448D01*
X393927Y500000D01*
X412500Y500000D01*
D02*
G37*
%LPC*%
G36*
X538410Y528070D02*
X529520D01*
Y521800D01*
X538410D01*
Y528070D01*
D02*
G37*
G36*
X526980D02*
X518090D01*
Y521800D01*
X526980D01*
Y528070D01*
D02*
G37*
G36*
X550480Y530990D02*
X539760D01*
Y527020D01*
X550480D01*
Y530990D01*
D02*
G37*
G36*
X516160Y536630D02*
X507270D01*
Y530360D01*
X516160D01*
Y536630D01*
D02*
G37*
G36*
X504730D02*
X495840D01*
Y530360D01*
X504730D01*
Y536630D01*
D02*
G37*
G36*
X563740Y524480D02*
X553020D01*
Y520510D01*
X554776D01*
X555090Y519370D01*
X555090Y519240D01*
Y513084D01*
X552036D01*
X551855Y513355D01*
X550201Y514460D01*
X548250Y514848D01*
X546299Y514460D01*
X544645Y513355D01*
X543540Y511701D01*
X543152Y509750D01*
X543540Y507799D01*
X544645Y506145D01*
X546299Y505040D01*
X548250Y504652D01*
X550201Y505040D01*
X551855Y506145D01*
X552036Y506416D01*
X555090D01*
Y500130D01*
X569090D01*
Y519370D01*
X564054D01*
X564054Y519370D01*
X563740Y520510D01*
X563740Y520640D01*
Y524480D01*
D02*
G37*
G36*
X537290Y511730D02*
X528770D01*
Y507460D01*
X537290D01*
Y511730D01*
D02*
G37*
G36*
X604480Y518890D02*
X594700D01*
Y513050D01*
X604480D01*
Y518890D01*
D02*
G37*
G36*
X616800D02*
X607020D01*
Y513050D01*
X616800D01*
Y518890D01*
D02*
G37*
G36*
X550480Y524480D02*
X539760D01*
Y520510D01*
X550480D01*
Y524480D01*
D02*
G37*
G36*
X516160Y527820D02*
X507270D01*
Y521550D01*
X516160D01*
Y527820D01*
D02*
G37*
G36*
X526230Y518540D02*
X517710D01*
Y514270D01*
X526230D01*
Y518540D01*
D02*
G37*
G36*
X537290D02*
X528770D01*
Y514270D01*
X537290D01*
Y518540D01*
D02*
G37*
G36*
X526980Y536880D02*
X518090D01*
Y530610D01*
X526980D01*
Y536880D01*
D02*
G37*
G36*
X245654Y586700D02*
X240320D01*
Y580858D01*
X245654D01*
Y586700D01*
D02*
G37*
G36*
X550480Y580990D02*
X539760D01*
Y577020D01*
X550480D01*
Y580990D01*
D02*
G37*
G36*
X245654Y578318D02*
X240320D01*
Y572476D01*
X245654D01*
Y578318D01*
D02*
G37*
G36*
X498597Y625440D02*
X489327D01*
Y617670D01*
X498597D01*
Y625440D01*
D02*
G37*
G36*
X534983D02*
X525713D01*
Y617670D01*
X534983D01*
Y625440D01*
D02*
G37*
G36*
X523173D02*
X513903D01*
Y617670D01*
X523173D01*
Y625440D01*
D02*
G37*
G36*
X510406D02*
X501137D01*
Y617670D01*
X510406D01*
Y625440D01*
D02*
G37*
G36*
X617410Y564320D02*
X608520D01*
Y558050D01*
X617410D01*
Y564320D01*
D02*
G37*
G36*
X605980D02*
X597090D01*
Y558050D01*
X605980D01*
Y564320D01*
D02*
G37*
G36*
X538410Y536880D02*
X529520D01*
Y530610D01*
X538410D01*
Y536880D01*
D02*
G37*
G36*
X605980Y573130D02*
X597090D01*
Y566860D01*
X605980D01*
Y573130D01*
D02*
G37*
G36*
X563740Y574480D02*
X553020D01*
Y570510D01*
X563740D01*
Y574480D01*
D02*
G37*
G36*
X550480D02*
X539760D01*
Y570510D01*
X550480D01*
Y574480D01*
D02*
G37*
G36*
X617410Y573130D02*
X608520D01*
Y566860D01*
X617410D01*
Y573130D01*
D02*
G37*
G36*
X533230Y392540D02*
X525460D01*
Y383270D01*
X533230D01*
Y392540D01*
D02*
G37*
G36*
X504540Y389540D02*
X495270D01*
Y381770D01*
X504540D01*
Y389540D01*
D02*
G37*
G36*
X492730D02*
X483460D01*
Y381770D01*
X492730D01*
Y389540D01*
D02*
G37*
G36*
X543540Y392540D02*
X535770D01*
Y383270D01*
X543540D01*
Y392540D01*
D02*
G37*
G36*
X334590Y399540D02*
X330320D01*
Y389270D01*
X334590D01*
Y399540D01*
D02*
G37*
G36*
X327780D02*
X323510D01*
Y389270D01*
X327780D01*
Y399540D01*
D02*
G37*
G36*
X554730Y395540D02*
X545460D01*
Y387770D01*
X554730D01*
Y395540D01*
D02*
G37*
G36*
X590709Y389380D02*
X579520D01*
Y380523D01*
X580750D01*
X583371Y380868D01*
X585813Y381880D01*
X587910Y383489D01*
X589520Y385587D01*
X590531Y388029D01*
X590709Y389380D01*
D02*
G37*
G36*
X533230Y380730D02*
X525460D01*
Y371460D01*
X533230D01*
Y380730D01*
D02*
G37*
G36*
X504540Y379230D02*
X495270D01*
Y371460D01*
X504540D01*
Y379230D01*
D02*
G37*
G36*
X492730D02*
X483460D01*
Y371460D01*
X492730D01*
Y379230D01*
D02*
G37*
G36*
X543540Y380730D02*
X535770D01*
Y371460D01*
X543540D01*
Y380730D01*
D02*
G37*
G36*
X554730Y385230D02*
X545460D01*
Y377460D01*
X554730D01*
Y385230D01*
D02*
G37*
G36*
X334590Y386730D02*
X330320D01*
Y376460D01*
X334590D01*
Y386730D01*
D02*
G37*
G36*
X327780D02*
X323510D01*
Y376460D01*
X327780D01*
Y386730D01*
D02*
G37*
G36*
X275160Y403890D02*
X266270D01*
Y397620D01*
X275160D01*
Y403890D01*
D02*
G37*
G36*
X266390Y507660D02*
X260120D01*
Y498770D01*
X266390D01*
Y507660D01*
D02*
G37*
G36*
X296490Y508540D02*
X292220D01*
Y498270D01*
X296490D01*
Y508540D01*
D02*
G37*
G36*
X289680D02*
X285410D01*
Y498270D01*
X289680D01*
Y508540D01*
D02*
G37*
G36*
X275200Y507660D02*
X268930D01*
Y498770D01*
X275200D01*
Y507660D01*
D02*
G37*
G36*
X526230Y511730D02*
X517710D01*
Y507460D01*
X526230D01*
Y511730D01*
D02*
G37*
G36*
X616800Y510510D02*
X607020D01*
Y504670D01*
X616800D01*
Y510510D01*
D02*
G37*
G36*
X604480D02*
X594700D01*
Y504670D01*
X604480D01*
Y510510D01*
D02*
G37*
G36*
X245000Y520098D02*
X243049Y519710D01*
X241395Y518605D01*
X240290Y516951D01*
X239902Y515000D01*
X240290Y513049D01*
X241395Y511395D01*
X243049Y510290D01*
X244006Y510100D01*
Y507120D01*
X240340D01*
Y487880D01*
X254340D01*
Y507120D01*
X250674D01*
Y512660D01*
X250420Y513936D01*
X250009Y514552D01*
X250098Y515000D01*
X249710Y516951D01*
X248605Y518605D01*
X246951Y519710D01*
X245000Y520098D01*
D02*
G37*
G36*
X563260Y491790D02*
X542240D01*
Y478650D01*
X548162D01*
Y474133D01*
X548040Y473951D01*
X547652Y472000D01*
X548040Y470049D01*
X549145Y468395D01*
X550799Y467290D01*
X552750Y466902D01*
X554701Y467290D01*
X556354Y468395D01*
X557460Y470049D01*
X557848Y472000D01*
X557460Y473951D01*
X557338Y474133D01*
Y478650D01*
X563260D01*
Y491790D01*
D02*
G37*
G36*
X365988Y437160D02*
X353860D01*
Y433922D01*
X323088D01*
X321812Y433668D01*
X320730Y432945D01*
X301292Y413507D01*
X300905Y412927D01*
X300045Y412353D01*
X298940Y410699D01*
X298552Y408748D01*
X298940Y406797D01*
X300045Y405143D01*
X300316Y404962D01*
Y399000D01*
X298650D01*
Y377000D01*
X308650D01*
Y399000D01*
X306984D01*
Y404962D01*
X307255Y405143D01*
X308360Y406797D01*
X308748Y408748D01*
X308360Y410699D01*
X308181Y410966D01*
X324469Y427254D01*
X353860D01*
Y424016D01*
X365988D01*
Y437160D01*
D02*
G37*
G36*
X275160Y412700D02*
X266270D01*
Y406430D01*
X275160D01*
Y412700D01*
D02*
G37*
G36*
X289680Y495730D02*
X285410D01*
Y485460D01*
X289680D01*
Y495730D01*
D02*
G37*
G36*
X275200Y496230D02*
X268930D01*
Y487340D01*
X275200D01*
Y496230D01*
D02*
G37*
G36*
X266390D02*
X260120D01*
Y487340D01*
X266390D01*
Y496230D01*
D02*
G37*
G36*
X296490Y495730D02*
X292220D01*
Y485460D01*
X296490D01*
Y495730D01*
D02*
G37*
G36*
X547750Y625440D02*
X538480D01*
Y617670D01*
X547750D01*
Y625440D01*
D02*
G37*
G36*
X288810Y730890D02*
X282540D01*
Y722000D01*
X288810D01*
Y730890D01*
D02*
G37*
G36*
X282500Y792848D02*
X280549Y792460D01*
X278895Y791355D01*
X277790Y789701D01*
X277402Y787750D01*
X277790Y785799D01*
X278895Y784145D01*
X279166Y783964D01*
Y779000D01*
X279420Y777724D01*
X280142Y776643D01*
X285142Y771642D01*
X286224Y770920D01*
X287500Y770666D01*
X316681D01*
X317880Y770494D01*
Y763334D01*
X315765D01*
X314451Y764212D01*
X312500Y764600D01*
X310549Y764212D01*
X310023Y763860D01*
X308752Y764500D01*
Y764500D01*
X308752Y764500D01*
X294753D01*
Y754500D01*
X308082D01*
X308156Y754418D01*
X308645Y753230D01*
X307790Y751951D01*
X307402Y750000D01*
X307790Y748049D01*
X308284Y747310D01*
X307605Y746040D01*
X303022D01*
Y741770D01*
X309293D01*
Y744602D01*
X310549Y745290D01*
X312500Y744902D01*
X314451Y745290D01*
X316105Y746395D01*
X316364Y746421D01*
X317880Y744905D01*
Y736174D01*
X337120D01*
Y750174D01*
X322041D01*
X319858Y752357D01*
X318776Y753080D01*
X317500Y753334D01*
X316286D01*
X316105Y753605D01*
X315532Y753987D01*
Y755515D01*
X316105Y755897D01*
X316618Y756666D01*
X317880D01*
Y756494D01*
X337120D01*
Y768436D01*
X338293Y768922D01*
X341166Y766049D01*
Y731500D01*
X332500D01*
Y729334D01*
X329500D01*
Y731500D01*
X312500D01*
Y729334D01*
X308590D01*
Y730350D01*
X294590D01*
Y711110D01*
X308590D01*
Y722666D01*
X312500D01*
Y720500D01*
X329500D01*
Y722666D01*
X332500D01*
Y720500D01*
X349500D01*
Y731500D01*
X347834D01*
Y767430D01*
X347580Y768706D01*
X346927Y769684D01*
X346859Y769786D01*
X346857Y769788D01*
X346749Y770016D01*
X346749Y770567D01*
X347344Y771369D01*
X347939Y771460D01*
X348221Y771460D01*
X348230D01*
X348230D01*
X356230D01*
Y779230D01*
X346960D01*
Y771481D01*
X346047Y770598D01*
X340288Y776357D01*
X339206Y777080D01*
X337930Y777334D01*
X288881D01*
X285834Y780381D01*
Y783964D01*
X286105Y784145D01*
X287210Y785799D01*
X287598Y787750D01*
X287210Y789701D01*
X286105Y791355D01*
X284451Y792460D01*
X282500Y792848D01*
D02*
G37*
G36*
X590000Y744560D02*
X555000D01*
X553173Y744320D01*
X551470Y743615D01*
X550008Y742493D01*
X548885Y741030D01*
X548180Y739327D01*
X547939Y737500D01*
Y727500D01*
X548180Y725673D01*
X548885Y723970D01*
X550008Y722507D01*
X551470Y721385D01*
X553173Y720680D01*
X555000Y720440D01*
X590000D01*
X591827Y720680D01*
X593530Y721385D01*
X594992Y722507D01*
X596114Y723970D01*
X596820Y725673D01*
X597060Y727500D01*
Y737500D01*
X596820Y739327D01*
X596114Y741030D01*
X594992Y742493D01*
X593530Y743615D01*
X591827Y744320D01*
X590000Y744560D01*
D02*
G37*
G36*
X280000Y730890D02*
X273730D01*
Y722000D01*
X280000D01*
Y730890D01*
D02*
G37*
G36*
X587500Y804560D02*
X557500D01*
X555673Y804320D01*
X553970Y803615D01*
X552508Y802493D01*
X551385Y801030D01*
X550680Y799327D01*
X550439Y797500D01*
Y787500D01*
X550680Y785673D01*
X551385Y783970D01*
X552508Y782508D01*
X553970Y781385D01*
X555673Y780680D01*
X557500Y780440D01*
X587500D01*
X589327Y780680D01*
X591030Y781385D01*
X592492Y782508D01*
X593614Y783970D01*
X594320Y785673D01*
X594560Y787500D01*
Y787912D01*
X597099D01*
X607448Y777563D01*
X607439Y777500D01*
Y747500D01*
X607680Y745673D01*
X608385Y743970D01*
X609507Y742508D01*
X610970Y741386D01*
X612673Y740680D01*
X614500Y740440D01*
X624500D01*
X626327Y740680D01*
X628030Y741386D01*
X629492Y742508D01*
X630614Y743970D01*
X631320Y745673D01*
X631560Y747500D01*
Y777500D01*
X631320Y779327D01*
X630614Y781030D01*
X629492Y782493D01*
X628030Y783615D01*
X626327Y784320D01*
X624500Y784560D01*
X614500D01*
X613553Y784436D01*
X602244Y795744D01*
X600756Y796739D01*
X599000Y797088D01*
X594560D01*
Y797500D01*
X594320Y799327D01*
X593614Y801030D01*
X592492Y802493D01*
X591030Y803615D01*
X589327Y804320D01*
X587500Y804560D01*
D02*
G37*
G36*
X300483Y746040D02*
X294212D01*
Y741770D01*
X300483D01*
Y746040D01*
D02*
G37*
G36*
Y739230D02*
X294212D01*
Y734960D01*
X300483D01*
Y739230D01*
D02*
G37*
G36*
X309293D02*
X303022D01*
Y734960D01*
X309293D01*
Y739230D01*
D02*
G37*
G36*
X501080Y714980D02*
X492270D01*
Y706169D01*
X493652Y706351D01*
X496124Y707375D01*
X498246Y709004D01*
X499875Y711126D01*
X500898Y713598D01*
X501080Y714980D01*
D02*
G37*
G36*
X541000Y725953D02*
X538489Y725622D01*
X536148Y724653D01*
X534139Y723111D01*
X532597Y721101D01*
X531628Y718761D01*
X531297Y716250D01*
X531628Y713739D01*
X532597Y711398D01*
X534139Y709389D01*
X536148Y707847D01*
X538489Y706878D01*
X541000Y706547D01*
X543511Y706878D01*
X545851Y707847D01*
X547861Y709389D01*
X549403Y711398D01*
X550372Y713739D01*
X550703Y716250D01*
X550372Y718761D01*
X549403Y721101D01*
X547861Y723111D01*
X545851Y724653D01*
X543511Y725622D01*
X541000Y725953D01*
D02*
G37*
G36*
X584137Y702250D02*
X574867D01*
Y694480D01*
X584137D01*
Y702250D01*
D02*
G37*
G36*
X489730Y714980D02*
X480919D01*
X481101Y713598D01*
X482125Y711126D01*
X483754Y709004D01*
X485876Y707375D01*
X488348Y706351D01*
X489730Y706169D01*
Y714980D01*
D02*
G37*
G36*
Y726330D02*
X488348Y726148D01*
X485876Y725125D01*
X483754Y723496D01*
X482125Y721374D01*
X481101Y718902D01*
X480919Y717520D01*
X489730D01*
Y726330D01*
D02*
G37*
G36*
X492270D02*
Y717520D01*
X501080D01*
X500898Y718902D01*
X499875Y721374D01*
X498246Y723496D01*
X496124Y725125D01*
X493652Y726148D01*
X492270Y726330D01*
D02*
G37*
G36*
X280000Y719460D02*
X273730D01*
Y710570D01*
X280000D01*
Y719460D01*
D02*
G37*
G36*
X288810D02*
X282540D01*
Y710570D01*
X288810D01*
Y719460D01*
D02*
G37*
G36*
X379800Y785573D02*
X377581Y785281D01*
X375513Y784425D01*
X373738Y783062D01*
X372375Y781287D01*
X371519Y779219D01*
X371227Y777000D01*
X371519Y774781D01*
X372375Y772713D01*
X373738Y770938D01*
X375513Y769575D01*
X377581Y768719D01*
X379666Y768444D01*
Y760500D01*
X377500D01*
Y743500D01*
X388500D01*
Y760500D01*
X386334D01*
Y771553D01*
X387225Y772713D01*
X388081Y774781D01*
X388373Y777000D01*
X388081Y779219D01*
X387225Y781287D01*
X385862Y783062D01*
X385117Y783634D01*
X384857Y784023D01*
X383776Y784745D01*
X382885Y784922D01*
X382019Y785281D01*
X379800Y785573D01*
D02*
G37*
G36*
X340920Y805730D02*
X327585D01*
Y779060D01*
X340920D01*
Y805730D01*
D02*
G37*
G36*
X356230Y789540D02*
X346960D01*
Y781770D01*
X356230D01*
Y789540D01*
D02*
G37*
G36*
X253290Y805730D02*
X239955D01*
Y779060D01*
X253290D01*
Y805730D01*
D02*
G37*
G36*
X325045D02*
X311710D01*
Y779060D01*
X325045D01*
Y805730D01*
D02*
G37*
G36*
X392040Y798730D02*
X384270D01*
Y789460D01*
X392040D01*
Y798730D01*
D02*
G37*
G36*
Y810540D02*
X384270D01*
Y801270D01*
X392040D01*
Y810540D01*
D02*
G37*
G36*
X368040Y789540D02*
X358770D01*
Y783099D01*
Y781770D01*
X368040D01*
Y789540D01*
D02*
G37*
G36*
X381730Y798730D02*
X373960D01*
Y789460D01*
X381730D01*
Y798730D01*
D02*
G37*
G36*
X234250Y774849D02*
X232299Y774461D01*
X230645Y773356D01*
X229540Y771702D01*
X229152Y769751D01*
X229540Y767800D01*
X230061Y767020D01*
X229382Y765750D01*
X225750D01*
Y754750D01*
X242750D01*
Y765750D01*
X239118D01*
X238439Y767020D01*
X238960Y767800D01*
X239348Y769751D01*
X238960Y771702D01*
X237855Y773356D01*
X236201Y774461D01*
X234250Y774849D01*
D02*
G37*
G36*
X274478Y765040D02*
X268208D01*
Y760770D01*
X274478D01*
Y765040D01*
D02*
G37*
G36*
X459800Y785573D02*
X457581Y785281D01*
X455513Y784425D01*
X453738Y783062D01*
X452375Y781287D01*
X451519Y779219D01*
X451227Y777000D01*
X451519Y774781D01*
X452375Y772713D01*
X453738Y770938D01*
X455513Y769575D01*
X457581Y768719D01*
X459666Y768444D01*
Y760500D01*
X457500D01*
Y743500D01*
X468500D01*
Y760500D01*
X466334D01*
Y771553D01*
X467225Y772713D01*
X468081Y774781D01*
X468373Y777000D01*
X468081Y779219D01*
X467225Y781287D01*
X465862Y783062D01*
X464087Y784425D01*
X462019Y785281D01*
X459800Y785573D01*
D02*
G37*
G36*
X256500Y778098D02*
X254549Y777710D01*
X252895Y776605D01*
X251790Y774951D01*
X251402Y773000D01*
X251790Y771049D01*
X251902Y770881D01*
X252895Y769395D01*
X253166Y769214D01*
Y767160D01*
X246880D01*
Y753160D01*
X253166D01*
Y753000D01*
X253420Y751724D01*
X254142Y750642D01*
X256675Y748110D01*
X256149Y746840D01*
X246880D01*
Y744584D01*
X242750D01*
Y746750D01*
X225750D01*
Y735750D01*
X242750D01*
Y737916D01*
X246880D01*
Y732840D01*
X251916D01*
Y728290D01*
X251049D01*
Y723593D01*
X249779Y723207D01*
X249654Y723395D01*
X248000Y724500D01*
X246049Y724888D01*
X244319Y724544D01*
X243049Y725210D01*
Y728290D01*
X232049D01*
Y711290D01*
X243049D01*
Y714370D01*
X244319Y715036D01*
X246049Y714692D01*
X248000Y715080D01*
X249654Y716185D01*
X249779Y716372D01*
X251049Y715987D01*
Y711290D01*
X262049D01*
Y728290D01*
X258584D01*
Y732840D01*
X266120D01*
Y737166D01*
X268748D01*
Y735500D01*
X282748D01*
Y745000D01*
Y753960D01*
X283288D01*
Y758230D01*
X275748D01*
Y759500D01*
D01*
Y758230D01*
X268208D01*
Y754299D01*
X267112Y753540D01*
X266120Y753846D01*
Y767160D01*
X259834D01*
Y769214D01*
X260105Y769395D01*
X261210Y771049D01*
X261598Y773000D01*
X261210Y774951D01*
X260105Y776605D01*
X258451Y777710D01*
X256500Y778098D01*
D02*
G37*
G36*
X368040Y779230D02*
X358770D01*
Y771460D01*
X368040D01*
Y779230D01*
D02*
G37*
G36*
X237415Y805730D02*
X224080D01*
Y779060D01*
X237415D01*
Y805730D01*
D02*
G37*
G36*
X283288Y765040D02*
X277018D01*
Y760770D01*
X283288D01*
Y765040D01*
D02*
G37*
G36*
X488450Y785603D02*
X481950D01*
X479902Y785195D01*
X478165Y784035D01*
X477005Y782298D01*
X476597Y780250D01*
Y773750D01*
X477005Y771702D01*
X478165Y769965D01*
X479902Y768805D01*
X481950Y768397D01*
X488450D01*
X490498Y768805D01*
X492235Y769965D01*
X493395Y771702D01*
X493803Y773750D01*
Y780250D01*
X493395Y782298D01*
X492235Y784035D01*
X490498Y785195D01*
X488450Y785603D01*
D02*
G37*
G36*
X534983Y635750D02*
X525713D01*
Y627980D01*
X534983D01*
Y635750D01*
D02*
G37*
G36*
X559560D02*
X550290D01*
Y627980D01*
X559560D01*
Y635750D01*
D02*
G37*
G36*
X572327D02*
X563057D01*
Y627980D01*
X572327D01*
Y635750D01*
D02*
G37*
G36*
X510406D02*
X501137D01*
Y627980D01*
X510406D01*
Y635750D01*
D02*
G37*
G36*
X618040Y642540D02*
X608770D01*
Y634770D01*
X618040D01*
Y642540D01*
D02*
G37*
G36*
X602500Y680098D02*
X600549Y679710D01*
X598895Y678605D01*
X597790Y676951D01*
X597402Y675000D01*
X597790Y673049D01*
X598895Y671395D01*
X599840Y670764D01*
Y669236D01*
X598895Y668605D01*
X597790Y666951D01*
X597402Y665000D01*
X597790Y663049D01*
X598895Y661395D01*
X599840Y660764D01*
Y659236D01*
X598895Y658605D01*
X597790Y656951D01*
X597402Y655000D01*
X597790Y653049D01*
X598895Y651395D01*
X600549Y650290D01*
X602500Y649902D01*
X604451Y650290D01*
X606105Y651395D01*
X607210Y653049D01*
X607598Y655000D01*
X607210Y656951D01*
X606105Y658605D01*
X605160Y659236D01*
Y660764D01*
X606105Y661395D01*
X607210Y663049D01*
X607598Y665000D01*
X607210Y666951D01*
X606105Y668605D01*
X605160Y669236D01*
Y670764D01*
X606105Y671395D01*
X607210Y673049D01*
X607598Y675000D01*
X607210Y676951D01*
X606105Y678605D01*
X604451Y679710D01*
X602500Y680098D01*
D02*
G37*
G36*
X584137Y635750D02*
X574867D01*
Y627980D01*
X584137D01*
Y635750D01*
D02*
G37*
G36*
X606230Y642540D02*
X596960D01*
Y634770D01*
X606230D01*
Y642540D01*
D02*
G37*
G36*
X584137Y625440D02*
X574867D01*
Y617670D01*
X584137D01*
Y625440D01*
D02*
G37*
G36*
X606230Y632230D02*
X596960D01*
Y624460D01*
X606230D01*
Y632230D01*
D02*
G37*
G36*
X559560Y625440D02*
X550290D01*
Y617670D01*
X559560D01*
Y625440D01*
D02*
G37*
G36*
X572327D02*
X563057D01*
Y617670D01*
X572327D01*
Y625440D01*
D02*
G37*
G36*
X523173Y635750D02*
X513903D01*
Y627980D01*
X523173D01*
Y635750D01*
D02*
G37*
G36*
X547750D02*
X538480D01*
Y627980D01*
X547750D01*
Y635750D01*
D02*
G37*
G36*
X618040Y632230D02*
X608770D01*
Y624460D01*
X618040D01*
Y632230D01*
D02*
G37*
G36*
X498597Y635750D02*
X489327D01*
Y627980D01*
X498597D01*
Y635750D01*
D02*
G37*
G36*
X449500Y670098D02*
X447549Y669710D01*
X445895Y668605D01*
X444790Y666951D01*
X444402Y665000D01*
X444790Y663049D01*
X445895Y661395D01*
X447549Y660290D01*
X449500Y659902D01*
X451451Y660290D01*
X453105Y661395D01*
X454210Y663049D01*
X454598Y665000D01*
X454210Y666951D01*
X453105Y668605D01*
X451451Y669710D01*
X449500Y670098D01*
D02*
G37*
G36*
X523173Y702250D02*
X513903D01*
Y694480D01*
X523173D01*
Y702250D01*
D02*
G37*
G36*
X547750D02*
X538480D01*
Y694480D01*
X547750D01*
Y702250D01*
D02*
G37*
G36*
X584137Y691940D02*
X574867D01*
Y684170D01*
X584137D01*
Y691940D01*
D02*
G37*
G36*
X498597Y702250D02*
X489327D01*
Y694480D01*
X498597D01*
Y702250D01*
D02*
G37*
G36*
X534983D02*
X525713D01*
Y694480D01*
X534983D01*
Y702250D01*
D02*
G37*
G36*
X559560D02*
X550290D01*
Y694480D01*
X559560D01*
Y702250D01*
D02*
G37*
G36*
X572327D02*
X563057D01*
Y694480D01*
X572327D01*
Y702250D01*
D02*
G37*
G36*
X510406D02*
X501137D01*
Y694480D01*
X510406D01*
Y702250D01*
D02*
G37*
G36*
Y691940D02*
X501137D01*
Y684170D01*
X510406D01*
Y691940D01*
D02*
G37*
G36*
X523173D02*
X513903D01*
Y684170D01*
X523173D01*
Y691940D01*
D02*
G37*
G36*
X583597Y682710D02*
X563597D01*
Y678798D01*
X559020D01*
Y682710D01*
X539020D01*
Y678798D01*
X534443D01*
Y682710D01*
X514443D01*
Y678798D01*
X509866D01*
Y682710D01*
X489867D01*
Y665710D01*
X495278D01*
Y663483D01*
X494450Y662243D01*
X494004Y660000D01*
X494450Y657756D01*
X495278Y656517D01*
Y654210D01*
X489867D01*
Y637210D01*
X509866D01*
Y646122D01*
X514443D01*
Y637210D01*
X534443D01*
Y646122D01*
X539020D01*
Y637210D01*
X559020D01*
Y646122D01*
X563597D01*
Y637210D01*
X583597D01*
Y654210D01*
X578185D01*
Y656517D01*
X579013Y657756D01*
X579459Y660000D01*
X579013Y662243D01*
X578185Y663483D01*
Y665710D01*
X583597D01*
Y682710D01*
D02*
G37*
G36*
X498597Y691940D02*
X489327D01*
Y684170D01*
X498597D01*
Y691940D01*
D02*
G37*
G36*
X559560D02*
X550290D01*
Y684170D01*
X559560D01*
Y691940D01*
D02*
G37*
G36*
X572327D02*
X563057D01*
Y684170D01*
X572327D01*
Y691940D01*
D02*
G37*
G36*
X534983D02*
X525713D01*
Y684170D01*
X534983D01*
Y691940D01*
D02*
G37*
G36*
X547750D02*
X538480D01*
Y684170D01*
X547750D01*
Y691940D01*
D02*
G37*
%LPD*%
D10*
X556000Y405500D02*
D03*
Y386500D02*
D03*
X549020Y674210D02*
D03*
Y693210D02*
D03*
X573597Y674210D02*
D03*
Y693210D02*
D03*
X524443Y674210D02*
D03*
Y693210D02*
D03*
X499867Y674210D02*
D03*
Y693210D02*
D03*
X505840Y581250D02*
D03*
Y600250D02*
D03*
X549020Y645710D02*
D03*
Y626710D02*
D03*
X573597Y645710D02*
D03*
Y626710D02*
D03*
X524443Y645710D02*
D03*
Y626710D02*
D03*
X499867Y645710D02*
D03*
Y626710D02*
D03*
X357500Y799500D02*
D03*
Y780500D02*
D03*
X494000Y380500D02*
D03*
Y399500D02*
D03*
X607500Y633500D02*
D03*
Y614500D02*
D03*
D11*
X420500Y678002D02*
D03*
X439499D02*
D03*
Y651998D02*
D03*
X430000D02*
D03*
X420500D02*
D03*
X299499Y655002D02*
D03*
X290000D02*
D03*
X280500D02*
D03*
Y628998D02*
D03*
X299499D02*
D03*
D12*
X238685Y807000D02*
D03*
X326315D02*
D03*
D13*
X422340Y414000D02*
D03*
X442660D02*
D03*
X280840Y676000D02*
D03*
X301160D02*
D03*
X324590Y593000D02*
D03*
X344910D02*
D03*
X281270Y720730D02*
D03*
X301590D02*
D03*
X247340Y497500D02*
D03*
X267660D02*
D03*
X562090Y509750D02*
D03*
X582410D02*
D03*
X282840Y607500D02*
D03*
X303160D02*
D03*
X422340Y587500D02*
D03*
X442660D02*
D03*
D14*
X582750Y590750D02*
D03*
Y540750D02*
D03*
D15*
X551750Y575750D02*
D03*
Y605750D02*
D03*
Y525750D02*
D03*
Y555750D02*
D03*
D16*
X383000Y800000D02*
D03*
X402000D02*
D03*
X534500Y382000D02*
D03*
X515500D02*
D03*
D17*
X359000Y541250D02*
D03*
Y522250D02*
D03*
X260000Y541250D02*
D03*
Y522250D02*
D03*
X339200Y541250D02*
D03*
Y522250D02*
D03*
X279800Y541250D02*
D03*
Y522250D02*
D03*
X299000Y577500D02*
D03*
Y558500D02*
D03*
X442500Y431500D02*
D03*
Y450500D02*
D03*
X321000Y675500D02*
D03*
Y694500D02*
D03*
X319400Y541250D02*
D03*
Y522250D02*
D03*
X321000Y726000D02*
D03*
Y707000D02*
D03*
X341000Y726000D02*
D03*
Y707000D02*
D03*
X365000Y591500D02*
D03*
Y572500D02*
D03*
X299600Y541250D02*
D03*
Y522250D02*
D03*
X421500Y431500D02*
D03*
Y450500D02*
D03*
X227500Y587000D02*
D03*
Y568000D02*
D03*
X341000Y675500D02*
D03*
Y694500D02*
D03*
X234250Y760250D02*
D03*
Y741250D02*
D03*
X347000Y638000D02*
D03*
Y657000D02*
D03*
D18*
X300500Y698000D02*
D03*
X281500D02*
D03*
X263500Y631000D02*
D03*
X244500D02*
D03*
X263500Y675667D02*
D03*
X244500D02*
D03*
X263500Y698000D02*
D03*
X244500D02*
D03*
X383000Y752000D02*
D03*
X402000D02*
D03*
X263500Y653333D02*
D03*
X244500D02*
D03*
X237549Y719790D02*
D03*
X256549D02*
D03*
X463000Y752000D02*
D03*
X482000D02*
D03*
X366500Y610000D02*
D03*
X385500D02*
D03*
Y632000D02*
D03*
X366500D02*
D03*
X343500Y614000D02*
D03*
X324500D02*
D03*
D19*
X359924Y430588D02*
D03*
X369576Y409412D02*
D03*
X350424D02*
D03*
X256576Y558412D02*
D03*
X246924Y579588D02*
D03*
X266076D02*
D03*
Y614588D02*
D03*
X246924D02*
D03*
X256576Y593412D02*
D03*
D20*
X442896Y717064D02*
D03*
X464072Y726716D02*
D03*
Y707564D02*
D03*
X427322Y706564D02*
D03*
Y725716D02*
D03*
X406146Y716064D02*
D03*
D21*
X387000Y589160D02*
D03*
Y568840D02*
D03*
X265000Y405160D02*
D03*
Y384840D02*
D03*
X256500Y760160D02*
D03*
Y739840D02*
D03*
X506000Y549410D02*
D03*
Y529090D02*
D03*
X528250Y549660D02*
D03*
Y529340D02*
D03*
X327500Y743174D02*
D03*
Y763494D02*
D03*
X401000Y651840D02*
D03*
Y672160D02*
D03*
X324000Y657160D02*
D03*
Y636840D02*
D03*
X607250Y585910D02*
D03*
Y565590D02*
D03*
X528250Y580590D02*
D03*
Y600910D02*
D03*
X368500Y680160D02*
D03*
Y659840D02*
D03*
D22*
X275748Y759500D02*
D03*
Y750000D02*
D03*
Y740500D02*
D03*
X301752D02*
D03*
Y759500D02*
D03*
X316747Y574500D02*
D03*
Y565000D02*
D03*
Y555500D02*
D03*
X342752D02*
D03*
Y574500D02*
D03*
D23*
X478850Y795000D02*
D03*
X446150D02*
D03*
D24*
X552750Y485220D02*
D03*
Y454780D02*
D03*
X605750Y542220D02*
D03*
Y511780D02*
D03*
D25*
X527500Y497000D02*
D03*
D26*
Y513000D02*
D03*
D27*
X459000Y477500D02*
D03*
D28*
X405000D02*
D03*
D29*
X427500Y796350D02*
D03*
Y763650D02*
D03*
D30*
X401000Y627000D02*
D03*
Y607000D02*
D03*
D31*
X434000Y617000D02*
D03*
D32*
X290950Y497000D02*
D03*
X303650D02*
D03*
X316350D02*
D03*
X329050D02*
D03*
Y388000D02*
D03*
X316350D02*
D03*
X303650D02*
D03*
X290950D02*
D03*
D33*
X619500Y762500D02*
Y772000D01*
X599000Y792500D02*
X619500Y772000D01*
X572500Y792500D02*
X599000D01*
X549020Y660000D02*
Y674210D01*
Y650710D02*
Y660000D01*
X524443Y650710D02*
X549020D01*
X573597D01*
Y660000D02*
Y674210D01*
Y650710D02*
Y660000D01*
Y650710D02*
X574867D01*
X499867Y631710D02*
X503597Y627980D01*
X422000Y780000D02*
X427500D01*
X402000Y800000D02*
X422000Y780000D01*
X371500Y813500D02*
Y827500D01*
X357500Y799500D02*
X371500Y813500D01*
X642500Y630000D02*
Y785000D01*
X612500Y815000D02*
X642500Y785000D01*
X602500Y815000D02*
X612500D01*
X478850Y795000D02*
Y813650D01*
X446150Y800000D02*
Y808650D01*
X452500Y815000D01*
Y827500D01*
X472500Y820000D02*
X478850Y813650D01*
X472500Y820000D02*
Y827500D01*
X432500Y810000D02*
Y827500D01*
X427500Y805000D02*
X432500Y810000D01*
X427500Y796350D02*
Y805000D01*
Y763650D02*
Y780000D01*
X574136Y627980D02*
X577367Y631210D01*
X499867Y693210D02*
X503650Y696993D01*
X607500Y633500D02*
X621500D01*
X627500Y627500D01*
Y568000D02*
Y627500D01*
X539720Y454780D02*
X552750D01*
X535500Y459000D02*
X539720Y454780D01*
X535500Y459000D02*
Y482000D01*
X527500Y490000D02*
X535500Y482000D01*
X527500Y490000D02*
Y497000D01*
X528250Y529340D02*
Y539500D01*
Y529090D02*
X539160D01*
X506000D02*
X528250D01*
X527500Y513000D02*
Y528590D01*
X573597Y693210D02*
X574866D01*
X607250Y585910D02*
Y600750D01*
Y585250D02*
Y585910D01*
X607500Y601000D02*
Y614500D01*
X625090Y565590D02*
X627500Y568000D01*
X587751Y566250D02*
X607250D01*
Y565590D02*
X625090D01*
X528250Y529090D02*
Y529340D01*
X584000Y507250D02*
Y539750D01*
X499867Y650710D02*
X524443D01*
Y674210D01*
Y650710D02*
Y650710D01*
X549020Y650710D02*
Y650710D01*
X573597Y650710D02*
Y650710D01*
X549020Y674210D02*
X573597D01*
X524443D02*
X549020D01*
X499867D02*
X524443D01*
X499867Y650710D02*
Y674210D01*
Y650710D02*
Y650710D01*
X573597Y674210D02*
X573806Y674000D01*
X528250Y549660D02*
X529090Y550500D01*
X539250D01*
Y552750D01*
X542250Y555750D01*
X551750D01*
X539250Y529090D02*
X542590Y525750D01*
X551750D01*
X574866Y693210D02*
X574867Y693208D01*
X504750Y600250D02*
X505840D01*
X527250Y600910D02*
X528250D01*
X569750Y605750D02*
Y605750D01*
X551750Y605750D02*
X569750D01*
X587250Y545750D02*
X587250Y545750D01*
Y565749D01*
X567250Y575750D02*
X577251Y565749D01*
X587250D02*
X587751Y566250D01*
X577251Y565749D02*
X587250D01*
X551750Y575750D02*
X567250D01*
X528250Y580590D02*
Y586750D01*
X532250Y590750D01*
X552250D01*
X577250D02*
X592250D01*
X597750Y585250D01*
X607250D01*
X528250Y600910D02*
X537410D01*
X542250Y605750D01*
X551750D01*
X505840Y600250D02*
X527590D01*
X528250Y564750D02*
Y580590D01*
X506000Y564500D02*
Y581090D01*
X528250Y549660D02*
Y564750D01*
X506000Y549410D02*
Y564500D01*
X505840Y581250D02*
X527590D01*
X242685Y807500D02*
X264500D01*
X552750Y472000D02*
Y485220D01*
X605750Y511780D02*
X606280Y511250D01*
X605750Y511780D02*
Y522250D01*
Y532750D02*
Y542220D01*
X506000Y529090D02*
X506250Y529340D01*
Y539249D01*
X552750Y454780D02*
X562220D01*
X566664Y450336D01*
X578250D01*
X565000Y792500D02*
X572500D01*
X304500Y807500D02*
X326315D01*
Y795000D02*
Y807000D01*
X569750Y605750D02*
X590000D01*
X568000Y797000D02*
X572500Y792500D01*
X350049Y837549D02*
G03*
X352549Y840049I0J2500D01*
G01*
X362549Y850049D02*
G03*
X352549Y840049I0J-10000D01*
G01*
X512000D02*
G03*
X514500Y837549I2500J0D01*
G01*
X512000Y840049D02*
G03*
X502000Y850049I-10000J0D01*
G01*
X362549D02*
X502000D01*
X667500Y837549D02*
X682500D01*
X514500D02*
X667500D01*
X182500Y837500D02*
X350049D01*
X682500Y410000D02*
Y837549D01*
X622600Y350100D02*
X682500Y410000D01*
X182500D02*
Y837500D01*
X242400Y350100D02*
X622600D01*
X182500Y410000D02*
X242400Y350100D01*
D34*
X480250Y750250D02*
X482000Y752000D01*
X480250Y728500D02*
Y750250D01*
X468814Y717064D02*
X480250Y728500D01*
X442896Y717064D02*
X468814D01*
X446150Y763650D02*
Y800000D01*
X417500Y735000D02*
X446150Y763650D01*
X417500Y712500D02*
Y735000D01*
X385000Y680000D02*
X417500Y712500D01*
X385000Y650000D02*
Y680000D01*
X310000Y620000D02*
X312500Y622500D01*
X271488Y620000D02*
X310000D01*
X266076Y614588D02*
X271488Y620000D01*
X401000Y652500D02*
X405000Y648500D01*
X401000Y652500D02*
Y661000D01*
Y651840D02*
Y652500D01*
X365000Y647500D02*
X382500D01*
X357500Y640000D02*
X365000Y647500D01*
X357500Y625000D02*
Y640000D01*
X385500Y632000D02*
X390902D01*
X355000Y622500D02*
X357500Y625000D01*
X355000Y612500D02*
Y622500D01*
X382500Y647500D02*
X385000Y650000D01*
X227500Y568000D02*
Y577500D01*
Y568000D02*
X228000Y567500D01*
X266076Y602500D02*
Y614588D01*
Y579588D02*
Y602500D01*
X235000D02*
X266076D01*
X227500Y595000D02*
X235000Y602500D01*
X227500Y587000D02*
Y595000D01*
X459800Y777000D02*
X463000Y773800D01*
Y752000D02*
Y773800D01*
X377835Y777000D02*
X382500Y781665D01*
X379800Y777000D02*
X383000Y773800D01*
Y752000D02*
Y773800D01*
X548250Y509750D02*
X562090D01*
X442896Y710306D02*
Y717064D01*
X439154Y706564D02*
X442896Y710306D01*
X427322Y706564D02*
X439154D01*
X319400Y517600D02*
Y522250D01*
X279800D02*
X299600D01*
X366500Y632000D02*
X376000D01*
X366500Y610000D02*
X376000D01*
X433998Y634999D02*
X439499Y640500D01*
X433998Y625499D02*
Y634999D01*
X439499Y640500D02*
Y651998D01*
X390902Y632000D02*
X395902Y627000D01*
X401000D01*
X385500Y610000D02*
X398000D01*
X427322Y725716D02*
X464072D01*
X301590Y720730D02*
X306860Y726000D01*
X321000D01*
X256500Y760160D02*
Y773000D01*
Y753000D02*
Y760160D01*
Y753000D02*
X259500Y750000D01*
X275748D01*
X287500Y774000D02*
X337930D01*
X282500Y779000D02*
X287500Y774000D01*
X282500Y779000D02*
Y787750D01*
X251000Y698000D02*
X254000Y695000D01*
Y679000D02*
Y695000D01*
Y679000D02*
X257333Y675667D01*
X341000Y694500D02*
Y707000D01*
X244500Y631000D02*
Y653333D01*
X234250Y760250D02*
Y769751D01*
X356000Y676000D02*
X360160Y680160D01*
X369500D01*
X439499Y667500D02*
Y678002D01*
X437000Y665000D02*
X439499Y667500D01*
X439000Y450500D02*
X442500D01*
X439000D02*
Y475000D01*
X420000Y477500D02*
X425500Y472000D01*
X405000Y477500D02*
X420000D01*
X339200Y555000D02*
X342252D01*
X339200Y541250D02*
Y555000D01*
X302497Y541250D02*
X316747Y555500D01*
X339750Y541250D02*
X359000D01*
X319400D02*
X339200D01*
X279800D02*
X299600D01*
X260000D02*
X279800D01*
X260000Y522250D02*
X279800D01*
X339200D02*
X359000D01*
X319400D02*
X339200D01*
X256161Y740500D02*
X275748D01*
X256500Y739840D02*
X257411Y740751D01*
X275748Y750000D02*
X276748Y749000D01*
X514500Y382000D02*
Y402500D01*
X514679Y402679D02*
X517000Y405000D01*
X514500Y402500D02*
X514679Y402679D01*
X497179D02*
X514679D01*
X494000Y399500D02*
X497179Y402679D01*
X550750Y385840D02*
X553910Y389000D01*
X550250Y385340D02*
X550750Y385840D01*
X556000D01*
X545840D02*
X550750D01*
X542000Y382000D02*
X545840Y385840D01*
X534500Y382000D02*
X542000D01*
X377000Y568840D02*
X387000D01*
X373340Y572500D02*
X377000Y568840D01*
X365000Y572500D02*
X373340D01*
X342752Y569498D02*
Y574500D01*
X321000Y726000D02*
X341000D01*
X342252Y555000D02*
X342752Y555500D01*
X342752Y555500D01*
X553910Y389000D02*
X576600D01*
X578250Y390650D01*
X517000Y405000D02*
X520250Y401750D01*
X516840Y405160D02*
X517000Y405000D01*
X326999Y555500D02*
X327250Y555250D01*
X320500Y555500D02*
X326999D01*
X517340Y405660D02*
X536000D01*
X550250D01*
X528250Y381250D02*
Y385340D01*
X275500Y759747D02*
X275748Y759500D01*
X342752Y569498D02*
X347250Y565000D01*
X298001Y590499D02*
Y600500D01*
X302000Y604500D01*
X420500Y651998D02*
Y661500D01*
X424000Y665000D01*
X437000D01*
X401000Y671500D02*
X408500D01*
X415002Y678002D01*
X420500D01*
X428000Y678000D01*
X377840Y589160D02*
X387000D01*
X375500Y591500D02*
X377840Y589160D01*
X365000Y591500D02*
X375500D01*
X429500Y641500D02*
X430000Y642000D01*
Y651998D01*
X421500Y431500D02*
Y441000D01*
X441500Y477500D02*
X459000D01*
X439000Y475000D02*
X441500Y477500D01*
X342252Y555000D02*
Y559748D01*
X334000Y568000D02*
X342252Y559748D01*
X334000Y568000D02*
Y580250D01*
X316747Y565000D02*
X324000D01*
X327000Y568000D01*
X321000Y707000D02*
X341000D01*
X234250Y741250D02*
X255090D01*
X313623Y565000D02*
X316747D01*
X307122Y558500D02*
X313623Y565000D01*
X299000Y558500D02*
X307122D01*
X299000Y577500D02*
X306500D01*
X309500Y574500D01*
X316747D01*
X301160Y676000D02*
X320500D01*
X304000Y694500D02*
X321000D01*
X299499Y655002D02*
Y674340D01*
X263833Y676000D02*
X280840D01*
X263500Y698000D02*
X281500D01*
X244500Y694667D02*
Y698000D01*
X251000D01*
X257333Y675667D02*
X263500D01*
X244500Y653333D02*
Y675667D01*
X263500Y653333D02*
Y675667D01*
Y631000D02*
Y653333D01*
X265502Y628998D02*
X280500D01*
X299499D02*
X307380D01*
X301752Y740500D02*
X302002Y740750D01*
X301252Y741500D02*
X302002Y740750D01*
X237549Y719790D02*
X246049D01*
X255250Y722250D02*
Y739590D01*
X364460Y556460D02*
X365000Y557000D01*
Y572500D01*
X315222Y636840D02*
X324000D01*
X307380Y628998D02*
X315222Y636840D01*
X290000Y644000D02*
Y655002D01*
X320840Y654000D02*
X324000Y657160D01*
X309000Y654000D02*
X320840D01*
X321000Y675500D02*
Y680000D01*
X326000Y685000D01*
X337000D01*
X341000Y689000D01*
Y694500D01*
X324590Y585590D02*
Y593000D01*
X316747Y577748D02*
X324590Y585590D01*
X316747Y574500D02*
Y577748D01*
X324590Y593000D02*
Y613910D01*
X324500Y614000D02*
X324590Y613910D01*
X343500Y594410D02*
Y614000D01*
Y594410D02*
X344910Y593000D01*
X334000Y580250D02*
X345830Y592080D01*
X341000Y675500D02*
X355500D01*
X356000Y676000D01*
X324500Y614000D02*
Y622500D01*
X327000Y625000D01*
X339500D01*
X347000Y632500D01*
Y638000D01*
X284875Y590500D02*
Y603000D01*
Y589625D02*
Y590500D01*
X244500Y617012D02*
Y631000D01*
X256576Y558412D02*
Y593412D01*
X603500Y633500D02*
X607500D01*
X275748Y750000D02*
X275748Y750000D01*
X312500D02*
X317500D01*
X327660Y739840D01*
X332500D01*
X324006Y760000D02*
X327500Y763494D01*
X312998Y760000D02*
X324006D01*
X312500Y759502D02*
X312998Y760000D01*
X301750Y759502D02*
X312500D01*
X420500Y608000D02*
Y651998D01*
X401660Y589160D02*
X420500Y608000D01*
X387000Y589160D02*
X401660D01*
X434000Y608136D02*
Y617000D01*
Y608136D02*
X442660Y599477D01*
Y587500D02*
Y599477D01*
X422340Y587500D02*
X427500Y592660D01*
Y602500D01*
X316350Y497000D02*
Y514551D01*
X319400Y517600D01*
X329050Y497000D02*
Y511550D01*
X303650Y497000D02*
Y511350D01*
X299600Y515400D02*
X303650Y511350D01*
X299600Y515400D02*
Y522250D01*
X265000Y384840D02*
X287790D01*
X290950Y388000D01*
X442730Y430500D02*
Y439770D01*
X303650Y388000D02*
Y408748D01*
X350424Y409412D02*
X369576D01*
X247340Y497500D02*
Y512660D01*
X245000Y515000D02*
X247340Y512660D01*
X421500Y450500D02*
X425500D01*
Y470000D02*
X432500D01*
X425500Y450500D02*
Y470000D01*
Y472000D01*
X303650Y408748D02*
Y411150D01*
X323088Y430588D01*
X359924D01*
X316350Y388000D02*
Y409412D01*
X350424D01*
X341000Y726000D02*
X344500D01*
Y767430D01*
X337930Y774000D02*
X344500Y767430D01*
D35*
X406146Y716064D02*
Y729354D01*
X402000Y733500D02*
X406146Y729354D01*
X402000Y733500D02*
Y752000D01*
X280500Y641000D02*
Y655002D01*
Y641000D02*
X283750Y637750D01*
X302250D01*
X311500Y647000D01*
X342500D01*
X347000Y651500D01*
Y657000D01*
X365660D01*
X368500Y659840D01*
D36*
X359439Y454150D02*
G03*
X368420Y457870I0J12700D01*
G01*
D02*
G03*
X377400Y479550I-21680J21680D01*
G01*
X386380Y513930D02*
G03*
X377400Y492250I21680J-21680D01*
G01*
X415500Y530350D02*
G03*
X393820Y521370I0J-30661D01*
G01*
X475280D02*
G03*
X453600Y530350I-21680J-21680D01*
G01*
X491700Y492250D02*
G03*
X482720Y513930I-30661J0D01*
G01*
X491700Y446711D02*
G03*
X495420Y437730I12700J0D01*
G01*
D02*
G03*
X517100Y428750I21680J21680D01*
G01*
X251000Y454150D02*
X359439D01*
X377400Y479550D02*
Y492250D01*
X386380Y513930D02*
X393820Y521370D01*
X415500Y530350D02*
X453600D01*
X475280Y521370D02*
X482720Y513930D01*
X491700Y446711D02*
Y492250D01*
X517100Y428750D02*
X587250D01*
D37*
X541000Y716250D02*
D03*
X491000D02*
D03*
X232500Y410000D02*
D03*
X632500D02*
D03*
X517000Y405000D02*
D03*
Y455000D02*
D03*
D38*
X379800Y777000D02*
D03*
X459800D02*
D03*
D39*
X405200D02*
D03*
X485200D02*
D03*
D40*
X572500Y792500D02*
D03*
D41*
Y732500D02*
D03*
D42*
X619500Y762500D02*
D03*
D43*
X392500Y827500D02*
D03*
X432500D02*
D03*
X452500D02*
D03*
X472500D02*
D03*
D44*
X371500D02*
D03*
X493500D02*
D03*
D45*
X457900Y390000D02*
D03*
X407100D02*
D03*
D46*
X578250Y390650D02*
D03*
D47*
Y416050D02*
D03*
Y441450D02*
D03*
D48*
Y466850D02*
D03*
D49*
X591750Y655000D02*
D03*
Y665000D02*
D03*
Y674250D02*
D03*
X602500Y655000D02*
D03*
Y665000D02*
D03*
Y675000D02*
D03*
X197500Y590000D02*
D03*
Y575000D02*
D03*
Y560000D02*
D03*
Y635000D02*
D03*
Y620000D02*
D03*
Y605000D02*
D03*
Y680000D02*
D03*
Y665000D02*
D03*
Y650000D02*
D03*
Y725000D02*
D03*
Y710000D02*
D03*
Y695000D02*
D03*
Y770000D02*
D03*
Y755000D02*
D03*
Y740000D02*
D03*
Y785000D02*
D03*
Y800000D02*
D03*
Y815000D02*
D03*
X312500Y622500D02*
D03*
X355000Y612500D02*
D03*
X548250Y509750D02*
D03*
X282500Y787750D02*
D03*
X539250Y550500D02*
D03*
X449500Y665000D02*
D03*
X376000Y632000D02*
D03*
Y610000D02*
D03*
X256500Y773000D02*
D03*
X234250Y769751D02*
D03*
X569750Y605750D02*
D03*
X607250Y600750D02*
D03*
X532250Y590750D02*
D03*
X569750D02*
D03*
X587250Y565749D02*
D03*
X528250Y564750D02*
D03*
X506000Y564500D02*
D03*
X304500Y807500D02*
D03*
X264500D02*
D03*
X536000Y405660D02*
D03*
X327250Y555250D02*
D03*
X552750Y472000D02*
D03*
X605750Y522250D02*
D03*
Y532750D02*
D03*
X528500Y539500D02*
D03*
X539250Y529090D02*
D03*
X347250Y565000D02*
D03*
X298001Y590499D02*
D03*
X453234Y725716D02*
D03*
X506250Y539249D02*
D03*
X428000Y678000D02*
D03*
X429500Y641500D02*
D03*
X421500Y441000D02*
D03*
X442500D02*
D03*
X327000Y568000D02*
D03*
X246049Y719790D02*
D03*
X365000Y557000D02*
D03*
X290000Y644000D02*
D03*
X309000Y654000D02*
D03*
X309382Y631000D02*
D03*
X356000Y676000D02*
D03*
X284875Y590500D02*
D03*
X312500Y750000D02*
D03*
Y759502D02*
D03*
X590000Y605750D02*
D03*
X580000D02*
D03*
X427500Y602500D02*
D03*
X245000Y515000D02*
D03*
X329050Y511550D02*
D03*
X280000Y385000D02*
D03*
X303650Y408748D02*
D03*
X316350Y408850D02*
D03*
X432500Y470000D02*
D03*
Y440000D02*
D03*
X345000Y387500D02*
D03*
X285000Y407500D02*
D03*
X297500Y422500D02*
D03*
X327500Y417500D02*
D03*
D50*
X427500Y780000D02*
D03*
D51*
X573597Y660000D02*
D03*
X549020D02*
D03*
X524443D02*
D03*
X499867D02*
D03*
X401000Y661000D02*
D03*
X227500Y577500D02*
D03*
X602500Y815000D02*
D03*
D52*
X578250Y407164D02*
D03*
Y450336D02*
D03*
M02*
