G04*
G04 #@! TF.GenerationSoftware,Altium Limited,CircuitStudio,1.5.2 (30)*
G04*
G04 Layer_Color=11767835*
%FSLAX44Y44*%
%MOMM*%
G71*
G01*
G75*
%ADD10R,1.6000X1.3000*%
%ADD11R,0.6000X1.0000*%
%ADD12R,2.4130X5.0800*%
%ADD13R,1.0000X1.5240*%
%ADD14R,0.2500X0.2500*%
%ADD15R,1.8900X0.5400*%
%ADD16R,1.3000X1.6000*%
%ADD17R,1.3000X0.7000*%
%ADD18R,0.7000X1.3000*%
%ADD19R,0.8128X0.9144*%
%ADD20R,0.9144X0.8128*%
%ADD21R,1.5240X1.0000*%
%ADD22R,1.0000X0.6000*%
%ADD23R,0.9100X1.2200*%
%ADD24R,1.7020X0.9140*%
%ADD25R,1.4000X0.6000*%
%ADD26R,1.4500X0.6000*%
G04:AMPARAMS|DCode=27|XSize=1.6mm|YSize=3.5mm|CornerRadius=0.2mm|HoleSize=0mm|Usage=FLASHONLY|Rotation=0.000|XOffset=0mm|YOffset=0mm|HoleType=Round|Shape=RoundedRectangle|*
%AMROUNDEDRECTD27*
21,1,1.6000,3.1000,0,0,0.0*
21,1,1.2000,3.5000,0,0,0.0*
1,1,0.4000,0.6000,-1.5500*
1,1,0.4000,-0.6000,-1.5500*
1,1,0.4000,-0.6000,1.5500*
1,1,0.4000,0.6000,1.5500*
%
%ADD27ROUNDEDRECTD27*%
%ADD28R,1.6000X3.5000*%
%ADD29R,1.2200X0.9100*%
G04:AMPARAMS|DCode=30|XSize=1.2mm|YSize=1.2mm|CornerRadius=0.3mm|HoleSize=0mm|Usage=FLASHONLY|Rotation=270.000|XOffset=0mm|YOffset=0mm|HoleType=Round|Shape=RoundedRectangle|*
%AMROUNDEDRECTD30*
21,1,1.2000,0.6000,0,0,270.0*
21,1,0.6000,1.2000,0,0,270.0*
1,1,0.6000,-0.3000,-0.3000*
1,1,0.6000,-0.3000,0.3000*
1,1,0.6000,0.3000,0.3000*
1,1,0.6000,0.3000,-0.3000*
%
%ADD30ROUNDEDRECTD30*%
G04:AMPARAMS|DCode=31|XSize=1.6mm|YSize=1.5mm|CornerRadius=0.375mm|HoleSize=0mm|Usage=FLASHONLY|Rotation=270.000|XOffset=0mm|YOffset=0mm|HoleType=Round|Shape=RoundedRectangle|*
%AMROUNDEDRECTD31*
21,1,1.6000,0.7500,0,0,270.0*
21,1,0.8500,1.5000,0,0,270.0*
1,1,0.7500,-0.3750,-0.4250*
1,1,0.7500,-0.3750,0.4250*
1,1,0.7500,0.3750,0.4250*
1,1,0.7500,0.3750,-0.4250*
%
%ADD31ROUNDEDRECTD31*%
%ADD32R,0.6000X1.8000*%
%ADD33C,0.5000*%
%ADD36C,2.5000*%
%ADD37C,1.5240*%
%ADD38C,1.3000*%
G04:AMPARAMS|DCode=39|XSize=1.3mm|YSize=1.3mm|CornerRadius=0.325mm|HoleSize=0mm|Usage=FLASHONLY|Rotation=180.000|XOffset=0mm|YOffset=0mm|HoleType=Round|Shape=RoundedRectangle|*
%AMROUNDEDRECTD39*
21,1,1.3000,0.6500,0,0,180.0*
21,1,0.6500,1.3000,0,0,180.0*
1,1,0.6500,-0.3250,0.3250*
1,1,0.6500,0.3250,0.3250*
1,1,0.6500,0.3250,-0.3250*
1,1,0.6500,-0.3250,-0.3250*
%
%ADD39ROUNDEDRECTD39*%
G04:AMPARAMS|DCode=40|XSize=2mm|YSize=4mm|CornerRadius=0.5mm|HoleSize=0mm|Usage=FLASHONLY|Rotation=90.000|XOffset=0mm|YOffset=0mm|HoleType=Round|Shape=RoundedRectangle|*
%AMROUNDEDRECTD40*
21,1,2.0000,3.0000,0,0,90.0*
21,1,1.0000,4.0000,0,0,90.0*
1,1,1.0000,1.5000,0.5000*
1,1,1.0000,1.5000,-0.5000*
1,1,1.0000,-1.5000,-0.5000*
1,1,1.0000,-1.5000,0.5000*
%
%ADD40ROUNDEDRECTD40*%
G04:AMPARAMS|DCode=41|XSize=2mm|YSize=4.5mm|CornerRadius=0.5mm|HoleSize=0mm|Usage=FLASHONLY|Rotation=270.000|XOffset=0mm|YOffset=0mm|HoleType=Round|Shape=RoundedRectangle|*
%AMROUNDEDRECTD41*
21,1,2.0000,3.5000,0,0,270.0*
21,1,1.0000,4.5000,0,0,270.0*
1,1,1.0000,-1.7500,-0.5000*
1,1,1.0000,-1.7500,0.5000*
1,1,1.0000,1.7500,0.5000*
1,1,1.0000,1.7500,-0.5000*
%
%ADD41ROUNDEDRECTD41*%
G04:AMPARAMS|DCode=42|XSize=2mm|YSize=4mm|CornerRadius=0.5mm|HoleSize=0mm|Usage=FLASHONLY|Rotation=180.000|XOffset=0mm|YOffset=0mm|HoleType=Round|Shape=RoundedRectangle|*
%AMROUNDEDRECTD42*
21,1,2.0000,3.0000,0,0,180.0*
21,1,1.0000,4.0000,0,0,180.0*
1,1,1.0000,-0.5000,1.5000*
1,1,1.0000,0.5000,1.5000*
1,1,1.0000,0.5000,-1.5000*
1,1,1.0000,-0.5000,-1.5000*
%
%ADD42ROUNDEDRECTD42*%
%ADD43C,1.5000*%
%ADD44O,2.0000X3.0000*%
%ADD45C,2.5400*%
%ADD46O,2.0000X1.5000*%
%ADD47C,2.0000*%
%ADD48R,2.0000X1.5000*%
D10*
X556000Y405500D02*
D03*
Y386500D02*
D03*
X549020Y674210D02*
D03*
Y693210D02*
D03*
X573597Y674210D02*
D03*
Y693210D02*
D03*
X524443Y674210D02*
D03*
Y693210D02*
D03*
X499867Y674210D02*
D03*
Y693210D02*
D03*
X505840Y581250D02*
D03*
Y600250D02*
D03*
X549020Y645710D02*
D03*
Y626710D02*
D03*
X573597Y645710D02*
D03*
Y626710D02*
D03*
X524443Y645710D02*
D03*
Y626710D02*
D03*
X499867Y645710D02*
D03*
Y626710D02*
D03*
X357500Y799500D02*
D03*
Y780500D02*
D03*
X494000Y380500D02*
D03*
Y399500D02*
D03*
X607500Y633500D02*
D03*
Y614500D02*
D03*
D11*
X420500Y678002D02*
D03*
X439499D02*
D03*
Y651998D02*
D03*
X430000D02*
D03*
X420500D02*
D03*
X299499Y655002D02*
D03*
X290000D02*
D03*
X280500D02*
D03*
Y628998D02*
D03*
X299499D02*
D03*
D12*
X238685Y807000D02*
D03*
X326315D02*
D03*
D13*
X422340Y414000D02*
D03*
X442660D02*
D03*
X280840Y676000D02*
D03*
X301160D02*
D03*
X324590Y593000D02*
D03*
X344910D02*
D03*
X281270Y720730D02*
D03*
X301590D02*
D03*
X247340Y497500D02*
D03*
X267660D02*
D03*
X562090Y509750D02*
D03*
X582410D02*
D03*
X282840Y607500D02*
D03*
X303160D02*
D03*
X422340Y587500D02*
D03*
X442660D02*
D03*
D14*
X582750Y590750D02*
D03*
Y540750D02*
D03*
D15*
X551750Y575750D02*
D03*
Y605750D02*
D03*
Y525750D02*
D03*
Y555750D02*
D03*
D16*
X383000Y800000D02*
D03*
X402000D02*
D03*
X534500Y382000D02*
D03*
X515500D02*
D03*
D17*
X359000Y541250D02*
D03*
Y522250D02*
D03*
X260000Y541250D02*
D03*
Y522250D02*
D03*
X339200Y541250D02*
D03*
Y522250D02*
D03*
X279800Y541250D02*
D03*
Y522250D02*
D03*
X299000Y577500D02*
D03*
Y558500D02*
D03*
X442500Y431500D02*
D03*
Y450500D02*
D03*
X321000Y675500D02*
D03*
Y694500D02*
D03*
X319400Y541250D02*
D03*
Y522250D02*
D03*
X321000Y726000D02*
D03*
Y707000D02*
D03*
X341000Y726000D02*
D03*
Y707000D02*
D03*
X365000Y591500D02*
D03*
Y572500D02*
D03*
X299600Y541250D02*
D03*
Y522250D02*
D03*
X421500Y431500D02*
D03*
Y450500D02*
D03*
X227500Y587000D02*
D03*
Y568000D02*
D03*
X341000Y675500D02*
D03*
Y694500D02*
D03*
X234250Y760250D02*
D03*
Y741250D02*
D03*
X347000Y638000D02*
D03*
Y657000D02*
D03*
D18*
X300500Y698000D02*
D03*
X281500D02*
D03*
X263500Y631000D02*
D03*
X244500D02*
D03*
X263500Y675667D02*
D03*
X244500D02*
D03*
X263500Y698000D02*
D03*
X244500D02*
D03*
X383000Y752000D02*
D03*
X402000D02*
D03*
X263500Y653333D02*
D03*
X244500D02*
D03*
X237549Y719790D02*
D03*
X256549D02*
D03*
X463000Y752000D02*
D03*
X482000D02*
D03*
X366500Y610000D02*
D03*
X385500D02*
D03*
Y632000D02*
D03*
X366500D02*
D03*
X343500Y614000D02*
D03*
X324500D02*
D03*
D19*
X359924Y430588D02*
D03*
X369576Y409412D02*
D03*
X350424D02*
D03*
X256576Y558412D02*
D03*
X246924Y579588D02*
D03*
X266076D02*
D03*
Y614588D02*
D03*
X246924D02*
D03*
X256576Y593412D02*
D03*
D20*
X442896Y717064D02*
D03*
X464072Y726716D02*
D03*
Y707564D02*
D03*
X427322Y706564D02*
D03*
Y725716D02*
D03*
X406146Y716064D02*
D03*
D21*
X387000Y589160D02*
D03*
Y568840D02*
D03*
X265000Y405160D02*
D03*
Y384840D02*
D03*
X256500Y760160D02*
D03*
Y739840D02*
D03*
X506000Y549410D02*
D03*
Y529090D02*
D03*
X528250Y549660D02*
D03*
Y529340D02*
D03*
X327500Y743174D02*
D03*
Y763494D02*
D03*
X401000Y651840D02*
D03*
Y672160D02*
D03*
X324000Y657160D02*
D03*
Y636840D02*
D03*
X607250Y585910D02*
D03*
Y565590D02*
D03*
X528250Y580590D02*
D03*
Y600910D02*
D03*
X368500Y680160D02*
D03*
Y659840D02*
D03*
D22*
X275748Y759500D02*
D03*
Y750000D02*
D03*
Y740500D02*
D03*
X301752D02*
D03*
Y759500D02*
D03*
X316747Y574500D02*
D03*
Y565000D02*
D03*
Y555500D02*
D03*
X342752D02*
D03*
Y574500D02*
D03*
D23*
X478850Y795000D02*
D03*
X446150D02*
D03*
D24*
X552750Y485220D02*
D03*
Y454780D02*
D03*
X605750Y542220D02*
D03*
Y511780D02*
D03*
D25*
X527500Y497000D02*
D03*
D26*
Y513000D02*
D03*
D27*
X459000Y477500D02*
D03*
D28*
X405000D02*
D03*
D29*
X427500Y796350D02*
D03*
Y763650D02*
D03*
D30*
X401000Y627000D02*
D03*
Y607000D02*
D03*
D31*
X434000Y617000D02*
D03*
D32*
X290950Y497000D02*
D03*
X303650D02*
D03*
X316350D02*
D03*
X329050D02*
D03*
Y388000D02*
D03*
X316350D02*
D03*
X303650D02*
D03*
X290950D02*
D03*
D33*
X350049Y837549D02*
G03*
X352549Y840049I0J2500D01*
G01*
X362549Y850049D02*
G03*
X352549Y840049I0J-10000D01*
G01*
X512000D02*
G03*
X514500Y837549I2500J0D01*
G01*
X512000Y840049D02*
G03*
X502000Y850049I-10000J0D01*
G01*
X362549D02*
X502000D01*
X667500Y837549D02*
X682500D01*
X514500D02*
X667500D01*
X182500Y837500D02*
X350049D01*
X682500Y410000D02*
Y837549D01*
X622600Y350100D02*
X682500Y410000D01*
X182500D02*
Y837500D01*
X242400Y350100D02*
X622600D01*
X182500Y410000D02*
X242400Y350100D01*
D36*
X359439Y454150D02*
G03*
X368420Y457870I0J12700D01*
G01*
D02*
G03*
X377400Y479550I-21680J21680D01*
G01*
X386380Y513930D02*
G03*
X377400Y492250I21680J-21680D01*
G01*
X415500Y530350D02*
G03*
X393820Y521370I0J-30661D01*
G01*
X475280D02*
G03*
X453600Y530350I-21680J-21680D01*
G01*
X491700Y492250D02*
G03*
X482720Y513930I-30661J0D01*
G01*
X491700Y446711D02*
G03*
X495420Y437730I12700J0D01*
G01*
D02*
G03*
X517100Y428750I21680J21680D01*
G01*
X251000Y454150D02*
X359439D01*
X377400Y479550D02*
Y492250D01*
X386380Y513930D02*
X393820Y521370D01*
X415500Y530350D02*
X453600D01*
X475280Y521370D02*
X482720Y513930D01*
X491700Y446711D02*
Y492250D01*
X517100Y428750D02*
X587250D01*
D37*
X541000Y716250D02*
D03*
X491000D02*
D03*
X232500Y410000D02*
D03*
X632500D02*
D03*
X517000Y405000D02*
D03*
Y455000D02*
D03*
D38*
X379800Y777000D02*
D03*
X459800D02*
D03*
D39*
X405200D02*
D03*
X485200D02*
D03*
D40*
X572500Y792500D02*
D03*
D41*
Y732500D02*
D03*
D42*
X619500Y762500D02*
D03*
D43*
X392500Y827500D02*
D03*
X432500D02*
D03*
X452500D02*
D03*
X472500D02*
D03*
D44*
X371500D02*
D03*
X493500D02*
D03*
D45*
X457900Y390000D02*
D03*
X407100D02*
D03*
D46*
X578250Y390650D02*
D03*
D47*
Y416050D02*
D03*
Y441450D02*
D03*
D48*
Y466850D02*
D03*
M02*
